G04 Layer: BoardOutlineLayer*
G04 EasyEDA v6.5.22, 2023-04-13 15:33:26*
G04 175b12f3a105431bbf95af8d835410e9,ef4dac4c239f4a7f90591e71bd1ece2f,10*
G04 Gerber Generator version 0.2*
G04 Scale: 100 percent, Rotated: No, Reflected: No *
G04 Dimensions in inches *
G04 leading zeros omitted , absolute positions ,3 integer and 6 decimal *
%FSLAX36Y36*%
%MOIN*%

%ADD10C,0.0100*%
D10*
X-1259839Y-502006D02*
G01*
X-1259839Y4419243D01*
X3818890Y-698856D02*
G01*
X-1062989Y-698856D01*
X4015740Y4419243D02*
G01*
X4015740Y-502006D01*
X-1062989Y4616093D02*
G01*
X3818890Y4616093D01*
G75*
G01*
X3818890Y4616093D02*
G02*
X4015740Y4419243I0J-196850D01*
G75*
G01*
X4015740Y-502007D02*
G02*
X3818890Y-698857I-196850J0D01*
G75*
G01*
X-1062990Y-698857D02*
G02*
X-1259840Y-502007I0J196850D01*
G75*
G01*
X-1259840Y4419243D02*
G02*
X-1062990Y4616093I196850J0D01*
G75*
G01
X-627690Y491930D02*
G03X-627690Y491930I-39370J0D01*
G75*
G01
X-446590Y1239960D02*
G03X-446590Y1239960I-62990J0D01*
G75*
G01
X2230570Y610040D02*
G03X2230570Y610040I-62990J0D01*
G75*
G01
X2364430Y2367070D02*
G03X2364430Y2367070I-39370J0D01*
G75*
G01
X2230570Y1619040D02*
G03X2230570Y1619040I-62990J0D01*
G75*
G01
X-446590Y2248960D02*
G03X-446590Y2248960I-62990J0D01*
G75*
G01
X-628690Y2519930D02*
G03X-628690Y2519930I-39370J0D01*
G75*
G01
X-447590Y3267960D02*
G03X-447590Y3267960I-62990J0D01*
G75*
G01
X2229570Y2638040D02*
G03X2229570Y2638040I-62990J0D01*
G75*
G01
X2366430Y4402070D02*
G03X2366430Y4402070I-39370J0D01*
G75*
G01
X2232570Y3654040D02*
G03X2232570Y3654040I-62990J0D01*
G75*
G01
X-444590Y4283960D02*
G03X-444590Y4283960I-62990J0D01*
G75*
G01
X3690440Y261940D02*
G03X3690440Y261940I-39370J0D01*
G75*
G01
X2966030Y419420D02*
G03X2966030Y419420I-62990J0D01*
G75*
G01
X3595950Y3096580D02*
G03X3595950Y3096580I-62990J0D01*

%LPD*%
M02*
