M48
INCH,LZ
;FILE_FORMAT=2:4
;TYPE=PLATED
;Layer: PTH_Through
;EasyEDA v6.5.22, 2023-04-15 12:39:05
;be6c2babb4a64d26810588ea53c7a698,ef4dac4c239f4a7f90591e71bd1ece2f,10
;Gerber Generator version 0.2
;Holesize 1 = 0.0400 inch
T01C0.0400
;Holesize 2 = 0.0410 inch
T02C0.0410
;Holesize 3 = 0.0630 inch
T03C0.0630
;Holesize 4 = 0.1300 inch
T04C0.1300
%
G05
G90
T01
X-005080Y001350
X-006080Y001350
X-007080Y001350
X-008080Y001350
X-009080Y001350
X-010080Y001350
T02
X-000410Y003810
X000590Y003810
X001590Y003810
X002590Y003810
X003590Y003810
X004590Y003810
X005590Y003810
X006590Y003810
X007590Y003810
X008590Y003810
X009590Y003810
X010590Y003810
X011590Y003810
X012590Y003810
X013590Y003810
X014590Y003810
X015590Y003810
X016590Y003810
X017590Y003810
X-000410Y-006140
X000590Y-006140
X001590Y-006140
X002590Y-006140
X003590Y-006140
X004590Y-006140
X005590Y-006140
X006590Y-006140
X007590Y-006140
X008590Y-006140
X009590Y-006140
X010590Y-006140
X011590Y-006140
X012590Y-006140
X013590Y-006140
X014590Y-006140
X015590Y-006140
X016590Y-006140
X017590Y-006140
T03
X037960Y005850
X037960Y007850
X037960Y009850
X037960Y011850
T04
X037780Y043800
X-010140Y043770
X-010130Y-004790
X037790Y-004770
M30
