G04 Layer: TopSilkscreenLayer*
G04 EasyEDA v6.5.22, 2023-04-15 12:39:05*
G04 be6c2babb4a64d26810588ea53c7a698,ef4dac4c239f4a7f90591e71bd1ece2f,10*
G04 Gerber Generator version 0.2*
G04 Scale: 100 percent, Rotated: No, Reflected: No *
G04 Dimensions in inches *
G04 leading zeros omitted , absolute positions ,3 integer and 6 decimal *
%FSLAX36Y36*%
%MOIN*%

%ADD10C,0.0120*%
%ADD11C,0.0080*%
%ADD12C,0.0150*%
%ADD13C,0.0200*%
%ADD14C,0.0100*%
%ADD15C,0.0160*%

%LPD*%
G36*
X3482320Y-245280D02*
G01*
X3478039Y-245400D01*
X3475580Y-245720D01*
X3475140Y-246160D01*
X3476900Y-246700D01*
X3480059Y-247120D01*
X3483480Y-247240D01*
X3486720Y-247079D01*
X3489400Y-246640D01*
X3490520Y-246080D01*
X3489560Y-245640D01*
X3486760Y-245360D01*
G37*
G36*
X3333920Y-245340D02*
G01*
X3329000Y-245440D01*
X3326040Y-245740D01*
X3325260Y-246160D01*
X3326880Y-246700D01*
X3330160Y-247120D01*
X3333900Y-247260D01*
X3337660Y-247120D01*
X3340940Y-246700D01*
X3342559Y-246160D01*
X3341780Y-245740D01*
X3338820Y-245440D01*
G37*
G36*
X3311259Y-247480D02*
G01*
X3313200Y-341960D01*
X3313600Y-355920D01*
X3314100Y-369360D01*
X3314700Y-382260D01*
X3315380Y-394640D01*
X3316180Y-406560D01*
X3317080Y-417980D01*
X3318080Y-428940D01*
X3319180Y-439480D01*
X3320400Y-449580D01*
X3321740Y-459280D01*
X3323180Y-468579D01*
X3325160Y-479680D01*
X3327320Y-490240D01*
X3329200Y-498300D01*
X3331720Y-507920D01*
X3333880Y-515300D01*
X3337380Y-525840D01*
X3340539Y-534180D01*
X3343220Y-540580D01*
X3346780Y-548280D01*
X3349480Y-553600D01*
X3351980Y-558080D01*
X3354540Y-562260D01*
X3357120Y-566120D01*
X3359660Y-569620D01*
X3362120Y-572720D01*
X3364460Y-575360D01*
X3366620Y-577540D01*
X3368560Y-579180D01*
X3370220Y-580240D01*
X3370940Y-580560D01*
X3371580Y-580700D01*
X3372120Y-580700D01*
X3372559Y-580540D01*
X3372900Y-580180D01*
X3373140Y-579660D01*
X3373260Y-578960D01*
X3373260Y-578080D01*
X3372860Y-575720D01*
X3371920Y-572560D01*
X3369900Y-567020D01*
X3368200Y-561580D01*
X3366560Y-555560D01*
X3364980Y-548960D01*
X3363480Y-541800D01*
X3362040Y-534160D01*
X3360680Y-526020D01*
X3359080Y-515240D01*
X3357900Y-506160D01*
X3356780Y-496700D01*
X3354800Y-476800D01*
X3353340Y-458480D01*
X3352300Y-442260D01*
X3351720Y-431220D01*
X3350820Y-408760D01*
X3350460Y-394560D01*
X3350200Y-371760D01*
X3350260Y-354739D01*
X3350500Y-340700D01*
X3350899Y-326860D01*
X3351460Y-313260D01*
X3352040Y-302600D01*
X3352900Y-289620D01*
X3353960Y-277080D01*
X3356720Y-250219D01*
X3342980Y-252260D01*
X3339960Y-252620D01*
X3336840Y-252820D01*
X3333700Y-252860D01*
X3330600Y-252740D01*
X3327620Y-252480D01*
X3324840Y-252100D01*
X3322360Y-251560D01*
X3320240Y-250900D01*
G37*
G36*
X3461920Y-248260D02*
G01*
X3464920Y-280600D01*
X3465640Y-290100D01*
X3466240Y-299940D01*
X3467140Y-320540D01*
X3467540Y-336640D01*
X3467740Y-355920D01*
X3467679Y-369920D01*
X3467500Y-384060D01*
X3467100Y-401060D01*
X3466240Y-423640D01*
X3465680Y-434799D01*
X3464320Y-456680D01*
X3462420Y-480300D01*
X3460920Y-495280D01*
X3459840Y-504840D01*
X3458399Y-516260D01*
X3457160Y-524920D01*
X3455860Y-533120D01*
X3454480Y-540840D01*
X3453060Y-548020D01*
X3451560Y-554640D01*
X3448540Y-566300D01*
X3447520Y-570960D01*
X3446940Y-574660D01*
X3446820Y-576140D01*
X3446820Y-577380D01*
X3446920Y-578400D01*
X3447140Y-579160D01*
X3447480Y-579660D01*
X3447919Y-579940D01*
X3448500Y-579980D01*
X3449160Y-579780D01*
X3449960Y-579320D01*
X3450860Y-578640D01*
X3453020Y-576520D01*
X3455640Y-573460D01*
X3458720Y-569420D01*
X3462260Y-564420D01*
X3465400Y-559580D01*
X3468440Y-554460D01*
X3471340Y-549000D01*
X3474120Y-543240D01*
X3478060Y-533940D01*
X3481120Y-525580D01*
X3484020Y-516640D01*
X3486220Y-509060D01*
X3488800Y-499040D01*
X3490740Y-490560D01*
X3492580Y-481680D01*
X3494320Y-472340D01*
X3495940Y-462580D01*
X3497480Y-452360D01*
X3498900Y-441680D01*
X3500240Y-430520D01*
X3501500Y-418880D01*
X3502640Y-406740D01*
X3503700Y-394099D01*
X3504680Y-380920D01*
X3505580Y-367220D01*
X3507120Y-338200D01*
X3507820Y-321180D01*
X3508480Y-301480D01*
X3508740Y-285540D01*
X3508700Y-278900D01*
X3508540Y-273060D01*
X3508260Y-268020D01*
X3507860Y-263700D01*
X3507300Y-260060D01*
X3506600Y-257079D01*
X3505760Y-254720D01*
X3504740Y-252920D01*
X3504180Y-252220D01*
X3503580Y-251660D01*
X3502919Y-251200D01*
X3502240Y-250859D01*
X3501500Y-250640D01*
X3500720Y-250520D01*
X3499020Y-250560D01*
X3497120Y-250980D01*
X3493700Y-252040D01*
X3491220Y-252560D01*
X3488660Y-252880D01*
X3486019Y-253000D01*
X3483279Y-252900D01*
X3480419Y-252600D01*
X3477460Y-252100D01*
X3474340Y-251400D01*
G37*
D10*
X2233540Y-217599D02*
G01*
X2233540Y-293899D01*
X2208140Y-217599D02*
G01*
X2259040Y-217599D01*
X2283040Y-242999D02*
G01*
X2283040Y-279399D01*
X2286640Y-290299D01*
X2293940Y-293899D01*
X2304840Y-293899D01*
X2312140Y-290299D01*
X2323040Y-279399D01*
X2323040Y-242999D02*
G01*
X2323040Y-293899D01*
X2387040Y-253899D02*
G01*
X2383440Y-246699D01*
X2372440Y-242999D01*
X2361540Y-242999D01*
X2350640Y-246699D01*
X2347040Y-253899D01*
X2350640Y-261199D01*
X2357940Y-264899D01*
X2376140Y-268499D01*
X2383440Y-272100D01*
X2387040Y-279399D01*
X2387040Y-282999D01*
X2383440Y-290299D01*
X2372440Y-293899D01*
X2361540Y-293899D01*
X2350640Y-290299D01*
X2347040Y-282999D01*
X2411040Y-217599D02*
G01*
X2411040Y-293899D01*
X2447440Y-242999D02*
G01*
X2411040Y-279399D01*
X2425540Y-264899D02*
G01*
X2451040Y-293899D01*
X2531040Y-242999D02*
G01*
X2552840Y-293899D01*
X2574640Y-242999D02*
G01*
X2552840Y-293899D01*
X2620440Y-217599D02*
G01*
X2609540Y-221199D01*
X2602340Y-232100D01*
X2598640Y-250299D01*
X2598640Y-261199D01*
X2602340Y-279399D01*
X2609540Y-290299D01*
X2620440Y-293899D01*
X2627740Y-293899D01*
X2638640Y-290299D01*
X2645940Y-279399D01*
X2649540Y-261199D01*
X2649540Y-250299D01*
X2645940Y-232100D01*
X2638640Y-221199D01*
X2627740Y-217599D01*
X2620440Y-217599D01*
X2677240Y-275799D02*
G01*
X2673540Y-279399D01*
X2677240Y-282999D01*
X2680840Y-279399D01*
X2677240Y-275799D01*
X2712140Y-217599D02*
G01*
X2752140Y-217599D01*
X2730340Y-246699D01*
X2741240Y-246699D01*
X2748440Y-250299D01*
X2752140Y-253899D01*
X2755740Y-264899D01*
X2755740Y-272100D01*
X2752140Y-282999D01*
X2744840Y-290299D01*
X2733940Y-293899D01*
X2723040Y-293899D01*
X2712140Y-290299D01*
X2708440Y-286699D01*
X2704840Y-279399D01*
X2835740Y-261199D02*
G01*
X2901240Y-261199D01*
X2984840Y-235799D02*
G01*
X2984840Y-232100D01*
X2988440Y-224899D01*
X2992140Y-221199D01*
X2999440Y-217599D01*
X3013940Y-217599D01*
X3021240Y-221199D01*
X3024840Y-224899D01*
X3028440Y-232100D01*
X3028440Y-239399D01*
X3024840Y-246699D01*
X3017540Y-257599D01*
X2981240Y-293899D01*
X3032140Y-293899D01*
X3077940Y-217599D02*
G01*
X3067040Y-221199D01*
X3059740Y-232100D01*
X3056140Y-250299D01*
X3056140Y-261199D01*
X3059740Y-279399D01*
X3067040Y-290299D01*
X3077940Y-293899D01*
X3085240Y-293899D01*
X3096140Y-290299D01*
X3103440Y-279399D01*
X3107040Y-261199D01*
X3107040Y-250299D01*
X3103440Y-232100D01*
X3096140Y-221199D01*
X3085240Y-217599D01*
X3077940Y-217599D01*
X3134640Y-235799D02*
G01*
X3134640Y-232100D01*
X3138340Y-224899D01*
X3141940Y-221199D01*
X3149240Y-217599D01*
X3163740Y-217599D01*
X3171040Y-221199D01*
X3174640Y-224899D01*
X3178340Y-232100D01*
X3178340Y-239399D01*
X3174640Y-246699D01*
X3167440Y-257599D01*
X3131040Y-293899D01*
X3181940Y-293899D01*
X3213240Y-217599D02*
G01*
X3253240Y-217599D01*
X3231440Y-246699D01*
X3242340Y-246699D01*
X3249540Y-250299D01*
X3253240Y-253899D01*
X3256840Y-264899D01*
X3256840Y-272100D01*
X3253240Y-282999D01*
X3245940Y-290299D01*
X3235040Y-293899D01*
X3224140Y-293899D01*
X3213240Y-290299D01*
X3209540Y-286699D01*
X3205940Y-279399D01*
D11*
X1221040Y3547200D02*
G01*
X1228240Y3550800D01*
X1239140Y3561700D01*
X1239140Y3485399D01*
X1281340Y3561700D02*
G01*
X1270440Y3558100D01*
X1266840Y3550800D01*
X1266840Y3543500D01*
X1270440Y3536300D01*
X1277740Y3532600D01*
X1292240Y3529000D01*
X1303140Y3525399D01*
X1310440Y3518100D01*
X1314140Y3510800D01*
X1314140Y3499900D01*
X1310440Y3492600D01*
X1306840Y3489000D01*
X1295940Y3485399D01*
X1281340Y3485399D01*
X1270440Y3489000D01*
X1266840Y3492600D01*
X1263140Y3499900D01*
X1263140Y3510800D01*
X1266840Y3518100D01*
X1274140Y3525399D01*
X1285040Y3529000D01*
X1299540Y3532600D01*
X1306840Y3536300D01*
X1310440Y3543500D01*
X1310440Y3550800D01*
X1306840Y3558100D01*
X1295940Y3561700D01*
X1281340Y3561700D01*
X1381740Y3550800D02*
G01*
X1378140Y3558100D01*
X1367140Y3561700D01*
X1359940Y3561700D01*
X1349040Y3558100D01*
X1341740Y3547200D01*
X1338140Y3529000D01*
X1338140Y3510800D01*
X1341740Y3496300D01*
X1349040Y3489000D01*
X1359940Y3485399D01*
X1363540Y3485399D01*
X1374440Y3489000D01*
X1381740Y3496300D01*
X1385340Y3507200D01*
X1385340Y3510800D01*
X1381740Y3521700D01*
X1374440Y3529000D01*
X1363540Y3532600D01*
X1359940Y3532600D01*
X1349040Y3529000D01*
X1341740Y3521700D01*
X1338140Y3510800D01*
X1453040Y3561700D02*
G01*
X1416640Y3561700D01*
X1413040Y3529000D01*
X1416640Y3532600D01*
X1427540Y3536300D01*
X1438440Y3536300D01*
X1449340Y3532600D01*
X1456640Y3525399D01*
X1460240Y3514500D01*
X1460240Y3507200D01*
X1456640Y3496300D01*
X1449340Y3489000D01*
X1438440Y3485399D01*
X1427540Y3485399D01*
X1416640Y3489000D01*
X1413040Y3492600D01*
X1409340Y3499900D01*
X1506140Y3561700D02*
G01*
X1495140Y3558100D01*
X1487940Y3547200D01*
X1484240Y3529000D01*
X1484240Y3518100D01*
X1487940Y3499900D01*
X1495140Y3489000D01*
X1506140Y3485399D01*
X1513340Y3485399D01*
X1524240Y3489000D01*
X1531540Y3499900D01*
X1535140Y3518100D01*
X1535140Y3529000D01*
X1531540Y3547200D01*
X1524240Y3558100D01*
X1513340Y3561700D01*
X1506140Y3561700D01*
D12*
X3432600Y747040D02*
G01*
X3432600Y828840D01*
X3430940Y614300D02*
G01*
X3430940Y532500D01*
X3390040Y573400D02*
G01*
X3471840Y573400D01*
D10*
X2216040Y-370299D02*
G01*
X2216040Y-446599D01*
X2216040Y-370299D02*
G01*
X2248740Y-370299D01*
X2259640Y-373899D01*
X2263240Y-377500D01*
X2266940Y-384800D01*
X2266940Y-392100D01*
X2263240Y-399399D01*
X2259640Y-402999D01*
X2248740Y-406599D01*
X2216040Y-406599D02*
G01*
X2248740Y-406599D01*
X2259640Y-410299D01*
X2263240Y-413899D01*
X2266940Y-421199D01*
X2266940Y-432100D01*
X2263240Y-439399D01*
X2259640Y-442999D01*
X2248740Y-446599D01*
X2216040Y-446599D01*
X2294540Y-395699D02*
G01*
X2316340Y-446599D01*
X2338140Y-395699D02*
G01*
X2316340Y-446599D01*
X2309140Y-461199D01*
X2301840Y-468499D01*
X2294540Y-472100D01*
X2290940Y-472100D01*
X2443640Y-370299D02*
G01*
X2443640Y-446599D01*
X2418140Y-370299D02*
G01*
X2469140Y-370299D01*
X2493140Y-417500D02*
G01*
X2536740Y-417500D01*
X2536740Y-410299D01*
X2533140Y-402999D01*
X2529440Y-399399D01*
X2522140Y-395699D01*
X2511240Y-395699D01*
X2504040Y-399399D01*
X2496740Y-406599D01*
X2493140Y-417500D01*
X2493140Y-424800D01*
X2496740Y-435699D01*
X2504040Y-442999D01*
X2511240Y-446599D01*
X2522140Y-446599D01*
X2529440Y-442999D01*
X2536740Y-435699D01*
X2604340Y-395699D02*
G01*
X2604340Y-446599D01*
X2604340Y-406599D02*
G01*
X2597140Y-399399D01*
X2589840Y-395699D01*
X2578940Y-395699D01*
X2571640Y-399399D01*
X2564340Y-406599D01*
X2560740Y-417500D01*
X2560740Y-424800D01*
X2564340Y-435699D01*
X2571640Y-442999D01*
X2578940Y-446599D01*
X2589840Y-446599D01*
X2597140Y-442999D01*
X2604340Y-435699D01*
X2628340Y-395699D02*
G01*
X2628340Y-446599D01*
X2628340Y-410299D02*
G01*
X2639240Y-399399D01*
X2646540Y-395699D01*
X2657440Y-395699D01*
X2664740Y-399399D01*
X2668340Y-410299D01*
X2668340Y-446599D01*
X2668340Y-410299D02*
G01*
X2679240Y-399399D01*
X2686540Y-395699D01*
X2697440Y-395699D01*
X2704740Y-399399D01*
X2708340Y-410299D01*
X2708340Y-446599D01*
X2788340Y-370299D02*
G01*
X2806540Y-446599D01*
X2824740Y-370299D02*
G01*
X2806540Y-446599D01*
X2824740Y-370299D02*
G01*
X2842940Y-446599D01*
X2861140Y-370299D02*
G01*
X2842940Y-446599D01*
X2928740Y-395699D02*
G01*
X2928740Y-446599D01*
X2928740Y-406599D02*
G01*
X2921440Y-399399D01*
X2914140Y-395699D01*
X2903240Y-395699D01*
X2896040Y-399399D01*
X2888740Y-406599D01*
X2885140Y-417500D01*
X2885140Y-424800D01*
X2888740Y-435699D01*
X2896040Y-442999D01*
X2903240Y-446599D01*
X2914140Y-446599D01*
X2921440Y-442999D01*
X2928740Y-435699D01*
X2952740Y-370299D02*
G01*
X2952740Y-446599D01*
X2976740Y-395699D02*
G01*
X2976740Y-446599D01*
X2976740Y-417500D02*
G01*
X2980340Y-406599D01*
X2987640Y-399399D01*
X2994940Y-395699D01*
X3005840Y-395699D01*
X3029840Y-395699D02*
G01*
X3029840Y-432100D01*
X3033440Y-442999D01*
X3040740Y-446599D01*
X3051640Y-446599D01*
X3058940Y-442999D01*
X3069840Y-432100D01*
X3069840Y-395699D02*
G01*
X3069840Y-446599D01*
X3133840Y-406599D02*
G01*
X3130140Y-399399D01*
X3119240Y-395699D01*
X3108340Y-395699D01*
X3097440Y-399399D01*
X3093840Y-406599D01*
X3097440Y-413899D01*
X3104740Y-417500D01*
X3122940Y-421199D01*
X3130140Y-424800D01*
X3133840Y-432100D01*
X3133840Y-435699D01*
X3130140Y-442999D01*
X3119240Y-446599D01*
X3108340Y-446599D01*
X3097440Y-442999D01*
X3093840Y-435699D01*
X1849240Y424700D02*
G01*
X1889240Y424700D01*
X1867440Y395600D01*
X1878340Y395600D01*
X1885640Y392000D01*
X1889240Y388400D01*
X1892940Y377500D01*
X1892940Y370199D01*
X1889240Y359300D01*
X1882040Y352000D01*
X1871140Y348400D01*
X1860140Y348400D01*
X1849240Y352000D01*
X1845640Y355600D01*
X1842040Y362899D01*
X1920540Y366500D02*
G01*
X1916940Y362899D01*
X1920540Y359300D01*
X1924140Y362899D01*
X1920540Y366500D01*
X1955440Y424700D02*
G01*
X1995440Y424700D01*
X1973640Y395600D01*
X1984540Y395600D01*
X1991840Y392000D01*
X1995440Y388400D01*
X1999140Y377500D01*
X1999140Y370199D01*
X1995440Y359300D01*
X1988140Y352000D01*
X1977240Y348400D01*
X1966340Y348400D01*
X1955440Y352000D01*
X1951840Y355600D01*
X1948140Y362899D01*
X2023140Y424700D02*
G01*
X2052140Y348400D01*
X2081240Y424700D02*
G01*
X2052140Y348400D01*
X1919542Y-591499D02*
G01*
X1915942Y-584199D01*
X1908642Y-576899D01*
X1901342Y-573299D01*
X1886842Y-573299D01*
X1879542Y-576899D01*
X1872242Y-584199D01*
X1868642Y-591499D01*
X1865042Y-602399D01*
X1865042Y-620499D01*
X1868642Y-631499D01*
X1872242Y-638699D01*
X1879542Y-645999D01*
X1886842Y-649600D01*
X1901342Y-649600D01*
X1908642Y-645999D01*
X1915942Y-638699D01*
X1919542Y-631499D01*
X1919542Y-620499D01*
X1901342Y-620499D02*
G01*
X1919542Y-620499D01*
X1943542Y-573299D02*
G01*
X1943542Y-649600D01*
X1943542Y-573299D02*
G01*
X1994442Y-649600D01*
X1994442Y-573299D02*
G01*
X1994442Y-649600D01*
X2018442Y-573299D02*
G01*
X2018442Y-649600D01*
X2018442Y-573299D02*
G01*
X2043942Y-573299D01*
X2054842Y-576899D01*
X2062142Y-584199D01*
X2065742Y-591499D01*
X2069342Y-602399D01*
X2069342Y-620499D01*
X2065742Y-631499D01*
X2062142Y-638699D01*
X2054842Y-645999D01*
X2043942Y-649600D01*
X2018442Y-649600D01*
X-237359Y417699D02*
G01*
X-273759Y417699D01*
X-277359Y385000D01*
X-273759Y388600D01*
X-262859Y392300D01*
X-251859Y392300D01*
X-240959Y388600D01*
X-233759Y381400D01*
X-230059Y370500D01*
X-230059Y363200D01*
X-233759Y352300D01*
X-240959Y345000D01*
X-251859Y341400D01*
X-262859Y341400D01*
X-273759Y345000D01*
X-277359Y348600D01*
X-280959Y355900D01*
X-206059Y417699D02*
G01*
X-176959Y341400D01*
X-147859Y417699D02*
G01*
X-176959Y341400D01*
X-266457Y-596499D02*
G01*
X-270057Y-589199D01*
X-277357Y-581899D01*
X-284657Y-578299D01*
X-299157Y-578299D01*
X-306457Y-581899D01*
X-313757Y-589199D01*
X-317357Y-596499D01*
X-320957Y-607399D01*
X-320957Y-625499D01*
X-317357Y-636499D01*
X-313757Y-643699D01*
X-306457Y-650999D01*
X-299157Y-654600D01*
X-284657Y-654600D01*
X-277357Y-650999D01*
X-270057Y-643699D01*
X-266457Y-636499D01*
X-242457Y-578299D02*
G01*
X-242457Y-654600D01*
X-242457Y-654600D02*
G01*
X-198857Y-654600D01*
X-174857Y-578299D02*
G01*
X-174857Y-654600D01*
X-123857Y-578299D02*
G01*
X-174857Y-629199D01*
X-156657Y-610999D02*
G01*
X-123857Y-654600D01*
X398040Y-83299D02*
G01*
X398040Y-159600D01*
X398040Y-83299D02*
G01*
X445240Y-83299D01*
X398040Y-119600D02*
G01*
X427140Y-119600D01*
X398040Y-159600D02*
G01*
X445240Y-159600D01*
X520140Y-94199D02*
G01*
X512940Y-86899D01*
X502040Y-83299D01*
X487440Y-83299D01*
X476540Y-86899D01*
X469240Y-94199D01*
X469240Y-101499D01*
X472940Y-108699D01*
X476540Y-112399D01*
X483840Y-115999D01*
X505640Y-123299D01*
X512940Y-126899D01*
X516540Y-130499D01*
X520140Y-137799D01*
X520140Y-148699D01*
X512940Y-155999D01*
X502040Y-159600D01*
X487440Y-159600D01*
X476540Y-155999D01*
X469240Y-148699D01*
X544140Y-83299D02*
G01*
X544140Y-159600D01*
X544140Y-83299D02*
G01*
X576940Y-83299D01*
X587840Y-86899D01*
X591440Y-90499D01*
X595140Y-97799D01*
X595140Y-108699D01*
X591440Y-115999D01*
X587840Y-119600D01*
X576940Y-123299D01*
X544140Y-123299D01*
X626340Y-83299D02*
G01*
X666340Y-83299D01*
X644540Y-112399D01*
X655440Y-112399D01*
X662740Y-115999D01*
X666340Y-119600D01*
X670040Y-130499D01*
X670040Y-137799D01*
X666340Y-148699D01*
X659140Y-155999D01*
X648140Y-159600D01*
X637240Y-159600D01*
X626340Y-155999D01*
X622740Y-152399D01*
X619140Y-145099D01*
X697640Y-101499D02*
G01*
X697640Y-97799D01*
X701240Y-90499D01*
X704940Y-86899D01*
X712140Y-83299D01*
X726740Y-83299D01*
X734040Y-86899D01*
X737640Y-90499D01*
X741240Y-97799D01*
X741240Y-105099D01*
X737640Y-112399D01*
X730340Y-123299D01*
X694040Y-159600D01*
X744940Y-159600D01*
X768940Y-126899D02*
G01*
X834340Y-126899D01*
X858340Y-83299D02*
G01*
X858340Y-159600D01*
X858340Y-83299D02*
G01*
X883840Y-83299D01*
X894740Y-86899D01*
X902040Y-94199D01*
X905640Y-101499D01*
X909240Y-112399D01*
X909240Y-130499D01*
X905640Y-141499D01*
X902040Y-148699D01*
X894740Y-155999D01*
X883840Y-159600D01*
X858340Y-159600D01*
X933240Y-130499D02*
G01*
X976940Y-130499D01*
X976940Y-123299D01*
X973240Y-115999D01*
X969640Y-112399D01*
X962340Y-108699D01*
X951440Y-108699D01*
X944140Y-112399D01*
X936940Y-119600D01*
X933240Y-130499D01*
X933240Y-137799D01*
X936940Y-148699D01*
X944140Y-155999D01*
X951440Y-159600D01*
X962340Y-159600D01*
X969640Y-155999D01*
X976940Y-148699D01*
X1000940Y-108699D02*
G01*
X1022740Y-159600D01*
X1044540Y-108699D02*
G01*
X1022740Y-159600D01*
X1068540Y-83299D02*
G01*
X1068540Y-159600D01*
X1119440Y-83299D02*
G01*
X1068540Y-134199D01*
X1086740Y-115999D02*
G01*
X1119440Y-159600D01*
X1143440Y-83299D02*
G01*
X1147140Y-86899D01*
X1150740Y-83299D01*
X1147140Y-79600D01*
X1143440Y-83299D01*
X1147140Y-108699D02*
G01*
X1147140Y-159600D01*
X1185640Y-83299D02*
G01*
X1185640Y-145099D01*
X1189240Y-155999D01*
X1196540Y-159600D01*
X1203840Y-159600D01*
X1174740Y-108699D02*
G01*
X1200140Y-108699D01*
X1282340Y-101499D02*
G01*
X1278740Y-94199D01*
X1271440Y-86899D01*
X1264140Y-83299D01*
X1249640Y-83299D01*
X1242340Y-86899D01*
X1235140Y-94199D01*
X1231440Y-101499D01*
X1227840Y-112399D01*
X1227840Y-130499D01*
X1231440Y-141499D01*
X1235140Y-148699D01*
X1242340Y-155999D01*
X1249640Y-159600D01*
X1264140Y-159600D01*
X1271440Y-155999D01*
X1278740Y-148699D01*
X1282340Y-141499D01*
X1362340Y-83299D02*
G01*
X1391440Y-159600D01*
X1420540Y-83299D02*
G01*
X1391440Y-159600D01*
X1480940Y-83299D02*
G01*
X1444540Y-134199D01*
X1499140Y-134199D01*
X1480940Y-83299D02*
G01*
X1480940Y-159600D01*
X-1198959Y387699D02*
G01*
X-1198959Y311400D01*
X-1198959Y387699D02*
G01*
X-1169859Y311400D01*
X-1140859Y387699D02*
G01*
X-1169859Y311400D01*
X-1140859Y387699D02*
G01*
X-1140859Y311400D01*
X-1116859Y387699D02*
G01*
X-1113159Y384100D01*
X-1109559Y387699D01*
X-1113159Y391400D01*
X-1116859Y387699D01*
X-1113159Y362300D02*
G01*
X-1113159Y311400D01*
X-1041859Y351400D02*
G01*
X-1049159Y358600D01*
X-1056459Y362300D01*
X-1067359Y362300D01*
X-1074659Y358600D01*
X-1081859Y351400D01*
X-1085559Y340500D01*
X-1085559Y333200D01*
X-1081859Y322300D01*
X-1074659Y315000D01*
X-1067359Y311400D01*
X-1056459Y311400D01*
X-1049159Y315000D01*
X-1041859Y322300D01*
X-1017859Y362300D02*
G01*
X-1017859Y311400D01*
X-1017859Y340500D02*
G01*
X-1014259Y351400D01*
X-1006959Y358600D01*
X-999759Y362300D01*
X-988859Y362300D01*
X-946659Y362300D02*
G01*
X-953859Y358600D01*
X-961159Y351400D01*
X-964859Y340500D01*
X-964859Y333200D01*
X-961159Y322300D01*
X-953859Y315000D01*
X-946659Y311400D01*
X-935759Y311400D01*
X-928459Y315000D01*
X-921159Y322300D01*
X-917559Y333200D01*
X-917559Y340500D01*
X-921159Y351400D01*
X-928459Y358600D01*
X-935759Y362300D01*
X-946659Y362300D01*
X-786659Y376800D02*
G01*
X-793859Y384100D01*
X-804859Y387699D01*
X-819359Y387699D01*
X-830259Y384100D01*
X-837559Y376800D01*
X-837559Y369500D01*
X-833859Y362300D01*
X-830259Y358600D01*
X-822959Y355000D01*
X-801159Y347699D01*
X-793859Y344100D01*
X-790259Y340500D01*
X-786659Y333200D01*
X-786659Y322300D01*
X-793859Y315000D01*
X-804859Y311400D01*
X-819359Y311400D01*
X-830259Y315000D01*
X-837559Y322300D01*
X-762659Y387699D02*
G01*
X-762659Y311400D01*
X-762659Y387699D02*
G01*
X-737159Y387699D01*
X-726259Y384100D01*
X-718959Y376800D01*
X-715359Y369500D01*
X-711759Y358600D01*
X-711759Y340500D01*
X-715359Y329500D01*
X-718959Y322300D01*
X-726259Y315000D01*
X-737159Y311400D01*
X-762659Y311400D01*
X-577159Y369500D02*
G01*
X-580859Y376800D01*
X-588059Y384100D01*
X-595359Y387699D01*
X-609859Y387699D01*
X-617159Y384100D01*
X-624459Y376800D01*
X-628059Y369500D01*
X-631759Y358600D01*
X-631759Y340500D01*
X-628059Y329500D01*
X-624459Y322300D01*
X-617159Y315000D01*
X-609859Y311400D01*
X-595359Y311400D01*
X-588059Y315000D01*
X-580859Y322300D01*
X-577159Y329500D01*
X-509559Y362300D02*
G01*
X-509559Y311400D01*
X-509559Y351400D02*
G01*
X-516859Y358600D01*
X-524059Y362300D01*
X-534959Y362300D01*
X-542259Y358600D01*
X-549559Y351400D01*
X-553159Y340500D01*
X-553159Y333200D01*
X-549559Y322300D01*
X-542259Y315000D01*
X-534959Y311400D01*
X-524059Y311400D01*
X-516859Y315000D01*
X-509559Y322300D01*
X-485559Y362300D02*
G01*
X-485559Y311400D01*
X-485559Y340500D02*
G01*
X-481859Y351400D01*
X-474659Y358600D01*
X-467359Y362300D01*
X-456459Y362300D01*
X-388859Y387699D02*
G01*
X-388859Y311400D01*
X-388859Y351400D02*
G01*
X-396059Y358600D01*
X-403359Y362300D01*
X-414259Y362300D01*
X-421559Y358600D01*
X-428859Y351400D01*
X-432459Y340500D01*
X-432459Y333200D01*
X-428859Y322300D01*
X-421559Y315000D01*
X-414259Y311400D01*
X-403359Y311400D01*
X-396059Y315000D01*
X-388859Y322300D01*
X-1203088Y64912D02*
G01*
X-1163088Y64912D01*
X-1184888Y35812D01*
X-1173988Y35812D01*
X-1166688Y32212D01*
X-1163088Y28612D01*
X-1159388Y17712D01*
X-1159388Y10412D01*
X-1163088Y-488D01*
X-1170288Y-7787D01*
X-1181188Y-11387D01*
X-1192188Y-11387D01*
X-1203088Y-7787D01*
X-1206688Y-4187D01*
X-1210288Y3112D01*
X-1131788Y6712D02*
G01*
X-1135388Y3112D01*
X-1131788Y-488D01*
X-1128188Y3112D01*
X-1131788Y6712D01*
X-1096888Y64912D02*
G01*
X-1056888Y64912D01*
X-1078688Y35812D01*
X-1067788Y35812D01*
X-1060488Y32212D01*
X-1056888Y28612D01*
X-1053188Y17712D01*
X-1053188Y10412D01*
X-1056888Y-488D01*
X-1064188Y-7787D01*
X-1075088Y-11387D01*
X-1085988Y-11387D01*
X-1096888Y-7787D01*
X-1100488Y-4187D01*
X-1104188Y3112D01*
X-1029188Y64912D02*
G01*
X-1000188Y-11387D01*
X-971088Y64912D02*
G01*
X-1000188Y-11387D01*
X-448789Y51500D02*
G01*
X-452389Y58800D01*
X-459689Y66100D01*
X-466989Y69700D01*
X-481489Y69700D01*
X-488789Y66100D01*
X-496089Y58800D01*
X-499689Y51500D01*
X-503289Y40600D01*
X-503289Y22500D01*
X-499689Y11500D01*
X-496089Y4300D01*
X-488789Y-2999D01*
X-481489Y-6599D01*
X-466989Y-6599D01*
X-459689Y-2999D01*
X-452389Y4300D01*
X-448789Y11500D01*
X-448789Y22500D01*
X-466989Y22500D02*
G01*
X-448789Y22500D01*
X-424789Y69700D02*
G01*
X-424789Y-6599D01*
X-424789Y69700D02*
G01*
X-373889Y-6599D01*
X-373889Y69700D02*
G01*
X-373889Y-6599D01*
X-349889Y69700D02*
G01*
X-349889Y-6599D01*
X-349889Y69700D02*
G01*
X-324389Y69700D01*
X-313489Y66100D01*
X-306189Y58800D01*
X-302589Y51500D01*
X-298989Y40600D01*
X-298989Y22500D01*
X-302589Y11500D01*
X-306189Y4300D01*
X-313489Y-2999D01*
X-324389Y-6599D01*
X-349889Y-6599D01*
X-875929Y8360D02*
G01*
X-868729Y15660D01*
X-865029Y22860D01*
X-865029Y33859D01*
X-868729Y41060D01*
X-875929Y48360D01*
X-886829Y51960D01*
X-894129Y51960D01*
X-905029Y48360D01*
X-912329Y41060D01*
X-915929Y33859D01*
X-915929Y22860D01*
X-912329Y15660D01*
X-905029Y8360D01*
X-875929Y-55639D02*
G01*
X-868729Y-52039D01*
X-865029Y-41140D01*
X-865029Y-30139D01*
X-868729Y-19239D01*
X-875929Y-15639D01*
X-883229Y-19239D01*
X-886829Y-26539D01*
X-890529Y-44739D01*
X-894129Y-52039D01*
X-901429Y-55639D01*
X-905029Y-55639D01*
X-912329Y-52039D01*
X-915929Y-41140D01*
X-915929Y-30139D01*
X-912329Y-19239D01*
X-905029Y-15639D01*
X-772362Y52027D02*
G01*
X-823262Y52027D01*
X-786962Y52027D02*
G01*
X-776062Y41127D01*
X-772362Y33827D01*
X-772362Y22926D01*
X-776062Y15627D01*
X-786962Y12027D01*
X-823262Y12027D01*
X-786962Y12027D02*
G01*
X-776062Y1127D01*
X-772362Y-6172D01*
X-772362Y-17073D01*
X-776062Y-24372D01*
X-786962Y-27972D01*
X-823262Y-27972D01*
X-772362Y-70172D02*
G01*
X-776062Y-62872D01*
X-783262Y-55672D01*
X-794162Y-51972D01*
X-801462Y-51972D01*
X-812362Y-55672D01*
X-819662Y-62872D01*
X-823262Y-70172D01*
X-823262Y-81072D01*
X-819662Y-88372D01*
X-812362Y-95672D01*
X-801462Y-99272D01*
X-794162Y-99272D01*
X-783262Y-95672D01*
X-776062Y-88372D01*
X-772362Y-81072D01*
X-772362Y-70172D01*
X-783262Y-163272D02*
G01*
X-776062Y-159672D01*
X-772362Y-148772D01*
X-772362Y-137772D01*
X-776062Y-126872D01*
X-783262Y-123272D01*
X-790562Y-126872D01*
X-794162Y-134172D01*
X-797862Y-152372D01*
X-801462Y-159672D01*
X-808762Y-163272D01*
X-812362Y-163272D01*
X-819662Y-159672D01*
X-823262Y-148772D01*
X-823262Y-137772D01*
X-819662Y-126872D01*
X-812362Y-123272D01*
X-746962Y-187273D02*
G01*
X-750562Y-190872D01*
X-746962Y-194573D01*
X-743262Y-190872D01*
X-746962Y-187273D01*
X-772362Y-190872D02*
G01*
X-823262Y-190872D01*
X-683929Y8360D02*
G01*
X-676729Y15660D01*
X-673029Y22860D01*
X-673029Y33859D01*
X-676729Y41060D01*
X-683929Y48360D01*
X-694829Y51960D01*
X-702129Y51960D01*
X-713029Y48360D01*
X-720329Y41060D01*
X-723929Y33859D01*
X-723929Y22860D01*
X-720329Y15660D01*
X-713029Y8360D01*
X-647629Y-15639D02*
G01*
X-723929Y-15639D01*
X-647629Y-39639D02*
G01*
X-723929Y-39639D01*
X-673029Y-76039D02*
G01*
X-709429Y-39639D01*
X-694829Y-54139D02*
G01*
X-723929Y-79639D01*
X-571696Y51993D02*
G01*
X-622596Y51993D01*
X-586296Y51993D02*
G01*
X-575396Y41093D01*
X-571696Y33793D01*
X-571696Y22893D01*
X-575396Y15593D01*
X-586296Y11993D01*
X-622596Y11993D01*
X-586296Y11993D02*
G01*
X-575396Y1093D01*
X-571696Y-6206D01*
X-571696Y-17106D01*
X-575396Y-24406D01*
X-586296Y-28006D01*
X-622596Y-28006D01*
X-546296Y-52006D02*
G01*
X-549896Y-55606D01*
X-546296Y-59306D01*
X-542596Y-55606D01*
X-546296Y-52006D01*
X-571696Y-55606D02*
G01*
X-622596Y-55606D01*
X-582596Y-123306D02*
G01*
X-575396Y-119606D01*
X-571696Y-108706D01*
X-571696Y-97806D01*
X-575396Y-86906D01*
X-582596Y-83306D01*
X-589896Y-86906D01*
X-593496Y-94206D01*
X-597196Y-112406D01*
X-600796Y-119606D01*
X-608096Y-123306D01*
X-611696Y-123306D01*
X-618996Y-119606D01*
X-622596Y-108706D01*
X-622596Y-97806D01*
X-618996Y-86906D01*
X-611696Y-83306D01*
X-571696Y-165407D02*
G01*
X-575396Y-158206D01*
X-582596Y-150906D01*
X-593496Y-147306D01*
X-600796Y-147306D01*
X-611696Y-150906D01*
X-618996Y-158206D01*
X-622596Y-165407D01*
X-622596Y-176406D01*
X-618996Y-183606D01*
X-611696Y-190906D01*
X-600796Y-194506D01*
X-593496Y-194506D01*
X-582596Y-190906D01*
X-575396Y-183606D01*
X-571696Y-176406D01*
X-571696Y-165407D01*
D13*
X3315519Y1983261D02*
G01*
X3192792Y1983261D01*
X3253198Y2833912D02*
G01*
X3253198Y2956612D01*
X3314498Y2895212D02*
G01*
X3191798Y2895212D01*
X-632518Y2898739D02*
G01*
X-509791Y2898739D01*
X-570159Y2048100D02*
G01*
X-570159Y1925399D01*
X-631559Y1986700D02*
G01*
X-508759Y1986700D01*
D14*
X-1067053Y170433D02*
G01*
X-1067053Y184212D01*
X-448944Y184212D01*
X-448944Y85788D01*
X-1067053Y85788D01*
X-1067053Y172400D01*
X-95725Y430211D02*
G01*
X-95725Y331787D01*
X1813722Y430212D02*
G01*
X-95725Y430212D01*
X1813722Y331787D02*
G01*
X-95725Y331787D01*
X1712618Y331787D02*
G01*
X1712618Y430211D01*
X1813722Y430211D02*
G01*
X1813722Y331787D01*
X-95723Y-564786D02*
G01*
X-95723Y-663210D01*
X1813724Y-564785D02*
G01*
X-95723Y-564785D01*
X1813724Y-663210D02*
G01*
X-95723Y-663210D01*
X1712620Y-663210D02*
G01*
X1712620Y-564786D01*
X1813724Y-564786D02*
G01*
X1813724Y-663210D01*
X3603087Y489724D02*
G01*
X3603087Y1280276D01*
X3603087Y489724D02*
G01*
X4008598Y489724D01*
X4008598Y489724D02*
G01*
X4008598Y1280276D01*
X3603087Y1280276D02*
G01*
X4008598Y1280276D01*
X3696000Y489724D02*
G01*
X3696000Y1280276D01*
X3896083Y489724D02*
G01*
X3896083Y1280276D01*
X3630949Y465000D02*
G01*
X3630949Y488623D01*
X3677763Y465000D02*
G01*
X3630949Y465000D01*
X3677763Y488623D02*
G01*
X3677763Y465000D01*
X3976000Y465000D02*
G01*
X3930949Y465000D01*
X3930949Y488623D01*
X3976000Y488623D02*
G01*
X3976000Y465000D01*
X3603087Y537768D02*
G01*
X3656000Y537768D01*
X3656000Y635000D01*
X3603087Y635000D01*
X3628793Y537768D02*
G01*
X3628793Y635000D01*
X3603087Y737756D02*
G01*
X3656000Y737756D01*
X3656000Y834988D01*
X3603087Y834988D01*
X3628793Y737757D02*
G01*
X3628793Y834988D01*
X3603087Y737757D02*
G01*
X3656000Y737757D01*
X3656000Y834988D02*
G01*
X3603087Y834988D01*
X3956508Y489724D02*
G01*
X3956508Y1280276D01*
X3656000Y1233400D02*
G01*
X3603087Y1233400D01*
X3603087Y1136168D02*
G01*
X3656000Y1136168D01*
X3628793Y1136168D02*
G01*
X3628793Y1233400D01*
X3603087Y1136168D02*
G01*
X3656000Y1136168D01*
X3656000Y1233400D01*
X3603087Y1233400D01*
X3628793Y936181D02*
G01*
X3628793Y1033412D01*
X3603087Y936181D02*
G01*
X3656000Y936181D01*
X3656000Y1033412D01*
X3603087Y1033412D01*
X202000Y1985000D02*
G01*
X292000Y1985000D01*
X247000Y2030000D02*
G01*
X247000Y1940000D01*
X2392000Y1985000D02*
G01*
X2482000Y1985000D01*
X-175499Y1577500D02*
G01*
X-175499Y2392500D01*
X2859500Y2392500D01*
X2859500Y1577500D01*
X-175499Y1577500D01*
X2481000Y2897000D02*
G01*
X2391000Y2897000D01*
X2436000Y2852000D02*
G01*
X2436000Y2942000D01*
X291000Y2897000D02*
G01*
X201000Y2897000D01*
X2858500Y3304500D02*
G01*
X2858500Y2489500D01*
X-176499Y2489500D01*
X-176499Y3304500D01*
X2858500Y3304500D01*
G75*
G01
X-1008000Y209800D02*
G03X-1008000Y209800I-11810J0D01*
G75*
G01
X310000Y1985000D02*
G03X310000Y1985000I-63000J0D01*
G75*
G01
X2500000Y1985000D02*
G03X2500000Y1985000I-63000J0D01*
G75*
G01
X2499000Y2897000D02*
G03X2499000Y2897000I-63000J0D01*
G75*
G01
X309000Y2897000D02*
G03X309000Y2897000I-63000J0D01*
M02*
