G04 Layer: BottomSilkscreenLayer*
G04 EasyEDA v6.5.22, 2023-04-15 12:39:05*
G04 be6c2babb4a64d26810588ea53c7a698,ef4dac4c239f4a7f90591e71bd1ece2f,10*
G04 Gerber Generator version 0.2*
G04 Scale: 100 percent, Rotated: No, Reflected: No *
G04 Dimensions in inches *
G04 leading zeros omitted , absolute positions ,3 integer and 6 decimal *
%FSLAX36Y36*%
%MOIN*%

%ADD10C,0.0080*%
%ADD11C,0.0200*%
%ADD12C,0.0150*%
%ADD13C,0.0100*%

%LPD*%
G36*
X2022400Y929700D02*
G01*
X2022400Y904800D01*
X2121800Y904800D01*
X2121800Y929700D01*
G37*
G36*
X-385800Y1031100D02*
G01*
X-385800Y936300D01*
X-475100Y936300D01*
X-475100Y915699D01*
X-385800Y915699D01*
X-385800Y818900D01*
X-363600Y818900D01*
X-363600Y915699D01*
X-273900Y915699D01*
X-273900Y936300D01*
X-363600Y936300D01*
X-363600Y1031100D01*
G37*
G36*
X1169900Y1041900D02*
G01*
X1164100Y1041740D01*
X1158580Y1041300D01*
X1153360Y1040560D01*
X1148440Y1039520D01*
X1143800Y1038220D01*
X1141580Y1037480D01*
X1137380Y1035780D01*
X1133460Y1033820D01*
X1129820Y1031620D01*
X1126440Y1029180D01*
X1123360Y1026500D01*
X1120540Y1023600D01*
X1117980Y1020480D01*
X1115700Y1017159D01*
X1113680Y1013640D01*
X1111920Y1009940D01*
X1110420Y1006040D01*
X1109180Y1001979D01*
X1108200Y997740D01*
X1107460Y993340D01*
X1106980Y988780D01*
X1106740Y984100D01*
X1106720Y980020D01*
X1106880Y976680D01*
X1107200Y973400D01*
X1107680Y970160D01*
X1108340Y966919D01*
X1109180Y963700D01*
X1110200Y960480D01*
X1111400Y957240D01*
X1112820Y953980D01*
X1114420Y950660D01*
X1116240Y947280D01*
X1118260Y943840D01*
X1120500Y940300D01*
X1125660Y932940D01*
X1128600Y929060D01*
X1131760Y925060D01*
X1138840Y916580D01*
X1146960Y907400D01*
X1156140Y897400D01*
X1166420Y886460D01*
X1194100Y857760D01*
X1214900Y836400D01*
X1097100Y836400D01*
X1097100Y810000D01*
X1236600Y810000D01*
X1236600Y831100D01*
X1214400Y856020D01*
X1185100Y889400D01*
X1176480Y899419D01*
X1168740Y908900D01*
X1165180Y913460D01*
X1161840Y917900D01*
X1158720Y922240D01*
X1155800Y926500D01*
X1153100Y930660D01*
X1150600Y934740D01*
X1148300Y938740D01*
X1146220Y942680D01*
X1144340Y946560D01*
X1142660Y950400D01*
X1141180Y954180D01*
X1139900Y957940D01*
X1138820Y961680D01*
X1137960Y965380D01*
X1137280Y969080D01*
X1136780Y972780D01*
X1136500Y976480D01*
X1136400Y980200D01*
X1136440Y982900D01*
X1136580Y985540D01*
X1137140Y990639D01*
X1138060Y995480D01*
X1139320Y1000040D01*
X1140080Y1002220D01*
X1141860Y1006340D01*
X1142860Y1008300D01*
X1145120Y1011979D01*
X1147680Y1015320D01*
X1149060Y1016860D01*
X1150540Y1018319D01*
X1152060Y1019680D01*
X1153680Y1020960D01*
X1157100Y1023240D01*
X1158900Y1024240D01*
X1162720Y1025920D01*
X1164720Y1026620D01*
X1166800Y1027220D01*
X1168920Y1027720D01*
X1171100Y1028100D01*
X1173340Y1028379D01*
X1175640Y1028540D01*
X1179900Y1028560D01*
X1184040Y1028300D01*
X1188640Y1027760D01*
X1196300Y1026400D01*
X1204140Y997860D01*
X1205260Y994520D01*
X1206480Y991600D01*
X1207760Y989020D01*
X1209160Y986820D01*
X1210640Y984980D01*
X1212220Y983439D01*
X1213900Y982240D01*
X1215680Y981320D01*
X1217580Y980680D01*
X1219580Y980320D01*
X1221700Y980200D01*
X1224300Y980380D01*
X1226780Y980920D01*
X1229120Y981800D01*
X1231280Y983020D01*
X1233280Y984520D01*
X1235100Y986320D01*
X1236720Y988379D01*
X1238100Y990699D01*
X1237220Y995680D01*
X1235980Y1000420D01*
X1235240Y1002700D01*
X1233480Y1007039D01*
X1231400Y1011140D01*
X1230260Y1013080D01*
X1227720Y1016800D01*
X1224920Y1020260D01*
X1221840Y1023460D01*
X1218520Y1026400D01*
X1214960Y1029080D01*
X1211160Y1031520D01*
X1207180Y1033700D01*
X1203020Y1035620D01*
X1198660Y1037280D01*
X1194160Y1038700D01*
X1189540Y1039840D01*
X1184760Y1040740D01*
X1179900Y1041380D01*
X1174940Y1041780D01*
G37*
G36*
X657200Y1041900D02*
G01*
X654060Y1041820D01*
X650920Y1041560D01*
X647780Y1041140D01*
X644680Y1040560D01*
X641600Y1039780D01*
X638560Y1038820D01*
X635540Y1037700D01*
X632560Y1036360D01*
X629640Y1034860D01*
X626760Y1033139D01*
X623940Y1031240D01*
X621160Y1029140D01*
X618480Y1026820D01*
X615860Y1024300D01*
X613300Y1021580D01*
X610840Y1018640D01*
X608460Y1015480D01*
X606180Y1012099D01*
X604000Y1008500D01*
X601900Y1004659D01*
X599940Y1000600D01*
X598080Y996300D01*
X596320Y991760D01*
X594720Y987000D01*
X593220Y981979D01*
X591860Y976720D01*
X590660Y971200D01*
X589580Y965440D01*
X588660Y959400D01*
X587900Y953120D01*
X587300Y946560D01*
X586860Y939760D01*
X586580Y932660D01*
X586500Y925300D01*
X616900Y925300D01*
X616980Y934440D01*
X617240Y943060D01*
X617660Y951180D01*
X618220Y958780D01*
X618940Y965920D01*
X619800Y972600D01*
X620780Y978820D01*
X621900Y984580D01*
X623160Y989940D01*
X624520Y994860D01*
X626000Y999400D01*
X627580Y1003540D01*
X629260Y1007320D01*
X631020Y1010720D01*
X632880Y1013780D01*
X634820Y1016500D01*
X636820Y1018900D01*
X638900Y1021000D01*
X641040Y1022800D01*
X643240Y1024300D01*
X645480Y1025560D01*
X647760Y1026540D01*
X650080Y1027280D01*
X652440Y1027800D01*
X654800Y1028100D01*
X657200Y1028199D01*
X659700Y1028100D01*
X662159Y1027800D01*
X664599Y1027280D01*
X667020Y1026540D01*
X669380Y1025560D01*
X671700Y1024300D01*
X673960Y1022800D01*
X676160Y1021000D01*
X678300Y1018900D01*
X680380Y1016500D01*
X682360Y1013780D01*
X684280Y1010720D01*
X686080Y1007320D01*
X687800Y1003540D01*
X689419Y999400D01*
X690939Y994860D01*
X692320Y989940D01*
X693600Y984580D01*
X694740Y978820D01*
X695759Y972600D01*
X696640Y965920D01*
X697360Y958780D01*
X697940Y951180D01*
X698360Y943060D01*
X698620Y934440D01*
X698700Y925300D01*
X698620Y916480D01*
X698400Y908120D01*
X698040Y900220D01*
X697540Y892760D01*
X696900Y885740D01*
X696140Y879140D01*
X695260Y872960D01*
X694260Y867159D01*
X693160Y861780D01*
X691940Y856760D01*
X690620Y852120D01*
X689200Y847820D01*
X687680Y843880D01*
X686080Y840280D01*
X684400Y837000D01*
X682640Y834020D01*
X680800Y831340D01*
X678900Y828960D01*
X676940Y826860D01*
X674920Y825040D01*
X672840Y823460D01*
X670720Y822140D01*
X668540Y821040D01*
X666340Y820160D01*
X664080Y819500D01*
X661820Y819060D01*
X659520Y818780D01*
X657200Y818700D01*
X654800Y818800D01*
X652440Y819120D01*
X650080Y819659D01*
X647760Y820420D01*
X644340Y822060D01*
X642120Y823500D01*
X639960Y825220D01*
X637860Y827240D01*
X635800Y829560D01*
X633840Y832220D01*
X631940Y835220D01*
X630120Y838580D01*
X628400Y842300D01*
X626760Y846400D01*
X625240Y850879D01*
X623820Y855780D01*
X622520Y861120D01*
X621340Y866880D01*
X620280Y873080D01*
X619340Y879740D01*
X618560Y886900D01*
X617920Y894520D01*
X617420Y902660D01*
X617100Y911320D01*
X616900Y925300D01*
X586500Y925300D01*
X586580Y917700D01*
X586860Y910400D01*
X587300Y903379D01*
X587900Y896620D01*
X588660Y890160D01*
X589580Y883960D01*
X590660Y878020D01*
X591860Y872360D01*
X593220Y866940D01*
X594720Y861800D01*
X596320Y856900D01*
X598080Y852240D01*
X599940Y847840D01*
X601900Y843680D01*
X604000Y839760D01*
X606180Y836060D01*
X608460Y832620D01*
X610840Y829380D01*
X613300Y826380D01*
X615860Y823600D01*
X618480Y821020D01*
X621160Y818680D01*
X623940Y816520D01*
X626760Y814580D01*
X629640Y812840D01*
X632560Y811300D01*
X635540Y809960D01*
X638560Y808820D01*
X641600Y807840D01*
X644680Y807060D01*
X647780Y806460D01*
X650920Y806040D01*
X654060Y805780D01*
X657200Y805699D01*
X660420Y805780D01*
X663640Y806040D01*
X666820Y806460D01*
X670000Y807060D01*
X673139Y807840D01*
X676240Y808820D01*
X679320Y809960D01*
X682340Y811300D01*
X685300Y812840D01*
X688220Y814580D01*
X691100Y816520D01*
X693880Y818680D01*
X696620Y821020D01*
X699260Y823600D01*
X701840Y826380D01*
X704320Y829380D01*
X706720Y832620D01*
X709020Y836060D01*
X711240Y839760D01*
X713319Y843680D01*
X715320Y847840D01*
X717180Y852240D01*
X718940Y856900D01*
X720560Y861800D01*
X722060Y866940D01*
X723420Y872360D01*
X724640Y878020D01*
X725720Y883960D01*
X726640Y890160D01*
X727400Y896620D01*
X728000Y903379D01*
X728439Y910400D01*
X728720Y917700D01*
X728800Y925300D01*
X728720Y932660D01*
X728439Y939760D01*
X728000Y946560D01*
X727400Y953120D01*
X726640Y959400D01*
X725720Y965440D01*
X724640Y971200D01*
X723420Y976720D01*
X722060Y981979D01*
X720560Y987000D01*
X718940Y991760D01*
X717180Y996300D01*
X715320Y1000600D01*
X713319Y1004659D01*
X711240Y1008500D01*
X709020Y1012099D01*
X706720Y1015480D01*
X704320Y1018640D01*
X701840Y1021580D01*
X699260Y1024300D01*
X696620Y1026820D01*
X693880Y1029140D01*
X691100Y1031240D01*
X688220Y1033139D01*
X685300Y1034860D01*
X682340Y1036360D01*
X679320Y1037700D01*
X676240Y1038820D01*
X673139Y1039780D01*
X670000Y1040560D01*
X666820Y1041140D01*
X663640Y1041560D01*
X660420Y1041820D01*
G37*
G36*
X487000Y1041900D02*
G01*
X483860Y1041820D01*
X480720Y1041560D01*
X477580Y1041140D01*
X474480Y1040560D01*
X471400Y1039780D01*
X468360Y1038820D01*
X465340Y1037700D01*
X462360Y1036360D01*
X459440Y1034860D01*
X456560Y1033139D01*
X453740Y1031240D01*
X450959Y1029140D01*
X448280Y1026820D01*
X445660Y1024300D01*
X443100Y1021580D01*
X440640Y1018640D01*
X438260Y1015480D01*
X435980Y1012099D01*
X433800Y1008500D01*
X431700Y1004659D01*
X429739Y1000600D01*
X427879Y996300D01*
X426120Y991760D01*
X424520Y987000D01*
X423020Y981979D01*
X421659Y976720D01*
X420460Y971200D01*
X419380Y965440D01*
X418459Y959400D01*
X417700Y953120D01*
X417100Y946560D01*
X416659Y939760D01*
X416380Y932660D01*
X416300Y925300D01*
X446700Y925300D01*
X446780Y934440D01*
X447040Y943060D01*
X447460Y951180D01*
X448020Y958780D01*
X448740Y965920D01*
X449600Y972600D01*
X450580Y978820D01*
X451700Y984580D01*
X452960Y989940D01*
X454320Y994860D01*
X455800Y999400D01*
X457380Y1003540D01*
X459060Y1007320D01*
X460820Y1010720D01*
X462680Y1013780D01*
X464620Y1016500D01*
X466620Y1018900D01*
X468700Y1021000D01*
X470840Y1022800D01*
X473040Y1024300D01*
X475280Y1025560D01*
X477560Y1026540D01*
X479880Y1027280D01*
X482239Y1027800D01*
X484600Y1028100D01*
X487000Y1028199D01*
X489500Y1028100D01*
X491960Y1027800D01*
X494400Y1027280D01*
X496820Y1026540D01*
X499180Y1025560D01*
X501500Y1024300D01*
X503760Y1022800D01*
X505959Y1021000D01*
X508100Y1018900D01*
X510180Y1016500D01*
X512160Y1013780D01*
X514080Y1010720D01*
X515880Y1007320D01*
X517600Y1003540D01*
X519219Y999400D01*
X520740Y994860D01*
X522120Y989940D01*
X523400Y984580D01*
X524540Y978820D01*
X525560Y972600D01*
X526440Y965920D01*
X527160Y958780D01*
X527740Y951180D01*
X528160Y943060D01*
X528420Y934440D01*
X528500Y925300D01*
X528420Y916480D01*
X528200Y908120D01*
X527840Y900220D01*
X527340Y892760D01*
X526700Y885740D01*
X525940Y879140D01*
X525060Y872960D01*
X524060Y867159D01*
X522960Y861780D01*
X521740Y856760D01*
X520420Y852120D01*
X519000Y847820D01*
X517480Y843880D01*
X515880Y840280D01*
X514200Y837000D01*
X512440Y834020D01*
X510600Y831340D01*
X508700Y828960D01*
X506740Y826860D01*
X504720Y825040D01*
X502640Y823460D01*
X500520Y822140D01*
X498340Y821040D01*
X496140Y820160D01*
X493880Y819500D01*
X491620Y819060D01*
X489320Y818780D01*
X487000Y818700D01*
X484600Y818800D01*
X482239Y819120D01*
X479880Y819659D01*
X477560Y820420D01*
X474140Y822060D01*
X471920Y823500D01*
X469760Y825220D01*
X467660Y827240D01*
X465600Y829560D01*
X463640Y832220D01*
X461740Y835220D01*
X459920Y838580D01*
X458200Y842300D01*
X456560Y846400D01*
X455040Y850879D01*
X453620Y855780D01*
X452320Y861120D01*
X451140Y866880D01*
X450080Y873080D01*
X449140Y879740D01*
X448360Y886900D01*
X447720Y894520D01*
X447220Y902660D01*
X446900Y911320D01*
X446700Y925300D01*
X416300Y925300D01*
X416380Y917700D01*
X416659Y910400D01*
X417100Y903379D01*
X417700Y896620D01*
X418459Y890160D01*
X419380Y883960D01*
X420460Y878020D01*
X421659Y872360D01*
X423020Y866940D01*
X424520Y861800D01*
X426120Y856900D01*
X427879Y852240D01*
X429739Y847840D01*
X431700Y843680D01*
X433800Y839760D01*
X435980Y836060D01*
X438260Y832620D01*
X440640Y829380D01*
X443100Y826380D01*
X445660Y823600D01*
X448280Y821020D01*
X450959Y818680D01*
X453740Y816520D01*
X456560Y814580D01*
X459440Y812840D01*
X462360Y811300D01*
X465340Y809960D01*
X468360Y808820D01*
X471400Y807840D01*
X474480Y807060D01*
X477580Y806460D01*
X480720Y806040D01*
X483860Y805780D01*
X487000Y805699D01*
X490220Y805780D01*
X493440Y806040D01*
X496620Y806460D01*
X499799Y807060D01*
X502939Y807840D01*
X506040Y808820D01*
X509120Y809960D01*
X512140Y811300D01*
X515100Y812840D01*
X518020Y814580D01*
X520900Y816520D01*
X523680Y818680D01*
X526420Y821020D01*
X529060Y823600D01*
X531640Y826380D01*
X534120Y829380D01*
X536520Y832620D01*
X538820Y836060D01*
X541040Y839760D01*
X543120Y843680D01*
X545120Y847840D01*
X546980Y852240D01*
X548740Y856900D01*
X550360Y861800D01*
X551860Y866940D01*
X553220Y872360D01*
X554440Y878020D01*
X555520Y883960D01*
X556440Y890160D01*
X557200Y896620D01*
X557800Y903379D01*
X558240Y910400D01*
X558520Y917700D01*
X558600Y925300D01*
X558520Y932660D01*
X558240Y939760D01*
X557800Y946560D01*
X557200Y953120D01*
X556440Y959400D01*
X555520Y965440D01*
X554440Y971200D01*
X553220Y976720D01*
X551860Y981979D01*
X550360Y987000D01*
X548740Y991760D01*
X546980Y996300D01*
X545120Y1000600D01*
X543120Y1004659D01*
X541040Y1008500D01*
X538820Y1012099D01*
X536520Y1015480D01*
X534120Y1018640D01*
X531640Y1021580D01*
X529060Y1024300D01*
X526420Y1026820D01*
X523680Y1029140D01*
X520900Y1031240D01*
X518020Y1033139D01*
X515100Y1034860D01*
X512140Y1036360D01*
X509120Y1037700D01*
X506040Y1038820D01*
X502939Y1039780D01*
X499799Y1040560D01*
X496620Y1041140D01*
X493440Y1041560D01*
X490220Y1041820D01*
G37*
G36*
X984200Y1040600D02*
G01*
X979599Y1037200D01*
X980800Y988199D01*
X980759Y870759D01*
X980620Y854460D01*
X980200Y827400D01*
X932500Y820500D01*
X932500Y810000D01*
X1057700Y810000D01*
X1057700Y820500D01*
X1009300Y827400D01*
X1008860Y857180D01*
X1008700Y876200D01*
X1008700Y1014900D01*
X1054000Y1010600D01*
X1054000Y1022400D01*
G37*
G36*
X757900Y1037200D02*
G01*
X757900Y1020500D01*
X838199Y810000D01*
X864300Y810000D01*
X867400Y813100D01*
X776800Y1010600D01*
X895900Y1010600D01*
X895900Y1037200D01*
G37*
G36*
X223800Y1005600D02*
G01*
X223800Y930300D01*
X152800Y930300D01*
X152800Y913900D01*
X223800Y913900D01*
X223800Y837000D01*
X241500Y837000D01*
X241500Y913900D01*
X312800Y913900D01*
X312800Y930300D01*
X241500Y930300D01*
X241500Y1005600D01*
G37*
G36*
X1346300Y905200D02*
G01*
X1346300Y885300D01*
X1425400Y885300D01*
X1425400Y905200D01*
G37*
G36*
X-463800Y1954199D02*
G01*
X-463800Y1929300D01*
X-364400Y1929300D01*
X-364400Y1954199D01*
G37*
G36*
X2021600Y2040100D02*
G01*
X2021600Y1943300D01*
X1931900Y1943300D01*
X1931900Y1922700D01*
X2021600Y1922700D01*
X2021600Y1827900D01*
X2043800Y1827900D01*
X2043800Y1922700D01*
X2133100Y1922700D01*
X2133100Y1943300D01*
X2043800Y1943300D01*
X2043800Y2040100D01*
G37*
G36*
X1000800Y2053300D02*
G01*
X997580Y2053220D01*
X994360Y2052960D01*
X991180Y2052540D01*
X988000Y2051940D01*
X984860Y2051160D01*
X981760Y2050180D01*
X978680Y2049040D01*
X975660Y2047700D01*
X972700Y2046160D01*
X969780Y2044420D01*
X966900Y2042480D01*
X964120Y2040320D01*
X961380Y2037980D01*
X958740Y2035400D01*
X956160Y2032620D01*
X953680Y2029620D01*
X951280Y2026380D01*
X948980Y2022940D01*
X946760Y2019240D01*
X944680Y2015320D01*
X942680Y2011160D01*
X940819Y2006759D01*
X939060Y2002100D01*
X937440Y1997200D01*
X935939Y1992060D01*
X934580Y1986639D01*
X933360Y1980980D01*
X932280Y1975040D01*
X931360Y1968839D01*
X930600Y1962380D01*
X930000Y1955620D01*
X929560Y1948600D01*
X929280Y1941300D01*
X929200Y1933700D01*
X959300Y1933700D01*
X959380Y1942520D01*
X959599Y1950880D01*
X959960Y1958779D01*
X960460Y1966240D01*
X961100Y1973260D01*
X961860Y1979860D01*
X962740Y1986040D01*
X963740Y1991840D01*
X964840Y1997220D01*
X966060Y2002240D01*
X967380Y2006879D01*
X968800Y2011180D01*
X970320Y2015120D01*
X971919Y2018720D01*
X973600Y2022000D01*
X975360Y2024980D01*
X977200Y2027660D01*
X979100Y2030040D01*
X981060Y2032140D01*
X983080Y2033959D01*
X985160Y2035540D01*
X987280Y2036860D01*
X989460Y2037960D01*
X991660Y2038839D01*
X993920Y2039500D01*
X996180Y2039940D01*
X998480Y2040220D01*
X1000800Y2040300D01*
X1003199Y2040200D01*
X1005560Y2039880D01*
X1007920Y2039340D01*
X1010240Y2038580D01*
X1013660Y2036940D01*
X1015879Y2035500D01*
X1018040Y2033779D01*
X1020140Y2031759D01*
X1022200Y2029440D01*
X1024160Y2026780D01*
X1026060Y2023779D01*
X1027880Y2020420D01*
X1029599Y2016699D01*
X1031240Y2012600D01*
X1032760Y2008120D01*
X1034180Y2003220D01*
X1035480Y1997880D01*
X1036660Y1992120D01*
X1037720Y1985920D01*
X1038660Y1979259D01*
X1039440Y1972100D01*
X1040080Y1964480D01*
X1040580Y1956339D01*
X1040900Y1947680D01*
X1041080Y1938500D01*
X1041080Y1929060D01*
X1040900Y1920180D01*
X1040580Y1911819D01*
X1040080Y1903959D01*
X1039440Y1896579D01*
X1038660Y1889680D01*
X1037720Y1883240D01*
X1036660Y1877240D01*
X1035480Y1871680D01*
X1034180Y1866540D01*
X1032760Y1861819D01*
X1031240Y1857480D01*
X1029599Y1853520D01*
X1027880Y1849940D01*
X1026060Y1846699D01*
X1024160Y1843820D01*
X1022200Y1841260D01*
X1020140Y1839019D01*
X1018040Y1837080D01*
X1015879Y1835420D01*
X1013660Y1834040D01*
X1011380Y1832920D01*
X1009080Y1832060D01*
X1006740Y1831420D01*
X1004380Y1831020D01*
X1002000Y1830820D01*
X999560Y1830820D01*
X997060Y1831020D01*
X994599Y1831420D01*
X992180Y1832060D01*
X989800Y1832920D01*
X987460Y1834040D01*
X985160Y1835420D01*
X982920Y1837080D01*
X980759Y1839019D01*
X978640Y1841260D01*
X976620Y1843820D01*
X974659Y1846699D01*
X972800Y1849940D01*
X971040Y1853520D01*
X969380Y1857480D01*
X967800Y1861819D01*
X966360Y1866540D01*
X965020Y1871680D01*
X963820Y1877240D01*
X962740Y1883240D01*
X961780Y1889680D01*
X960980Y1896579D01*
X960340Y1903959D01*
X959840Y1911819D01*
X959500Y1920180D01*
X959300Y1933700D01*
X929200Y1933700D01*
X929280Y1926339D01*
X929560Y1919240D01*
X930000Y1912440D01*
X930600Y1905880D01*
X931360Y1899600D01*
X932280Y1893560D01*
X933360Y1887800D01*
X934580Y1882280D01*
X935939Y1877020D01*
X937440Y1872000D01*
X939060Y1867240D01*
X940819Y1862700D01*
X942680Y1858400D01*
X944680Y1854340D01*
X946760Y1850500D01*
X948980Y1846900D01*
X951280Y1843520D01*
X953680Y1840360D01*
X956160Y1837420D01*
X958740Y1834700D01*
X961380Y1832180D01*
X964120Y1829860D01*
X966900Y1827760D01*
X969780Y1825860D01*
X972700Y1824139D01*
X975660Y1822640D01*
X978680Y1821300D01*
X981760Y1820180D01*
X984860Y1819220D01*
X988000Y1818440D01*
X991180Y1817860D01*
X994360Y1817440D01*
X997580Y1817180D01*
X1000800Y1817100D01*
X1003940Y1817180D01*
X1007080Y1817440D01*
X1010220Y1817860D01*
X1013319Y1818440D01*
X1016400Y1819220D01*
X1019440Y1820180D01*
X1022460Y1821300D01*
X1025440Y1822640D01*
X1028360Y1824139D01*
X1031240Y1825860D01*
X1034060Y1827760D01*
X1036840Y1829860D01*
X1039520Y1832180D01*
X1042140Y1834700D01*
X1044700Y1837420D01*
X1047159Y1840360D01*
X1049540Y1843520D01*
X1051820Y1846900D01*
X1054000Y1850500D01*
X1056100Y1854340D01*
X1058060Y1858400D01*
X1059920Y1862700D01*
X1061680Y1867240D01*
X1063280Y1872000D01*
X1064780Y1877020D01*
X1066140Y1882280D01*
X1067340Y1887800D01*
X1068420Y1893560D01*
X1069340Y1899600D01*
X1070100Y1905880D01*
X1070700Y1912440D01*
X1071140Y1919240D01*
X1071420Y1926339D01*
X1071500Y1933700D01*
X1071420Y1941300D01*
X1071140Y1948600D01*
X1070700Y1955620D01*
X1070100Y1962380D01*
X1069340Y1968839D01*
X1068420Y1975040D01*
X1067340Y1980980D01*
X1066140Y1986639D01*
X1064780Y1992060D01*
X1063280Y1997200D01*
X1061680Y2002100D01*
X1059920Y2006759D01*
X1058060Y2011160D01*
X1056100Y2015320D01*
X1054000Y2019240D01*
X1051820Y2022940D01*
X1049540Y2026380D01*
X1047159Y2029620D01*
X1044700Y2032620D01*
X1042140Y2035400D01*
X1039520Y2037980D01*
X1036840Y2040320D01*
X1034060Y2042480D01*
X1031240Y2044420D01*
X1028360Y2046160D01*
X1025440Y2047700D01*
X1022460Y2049040D01*
X1019440Y2050180D01*
X1016400Y2051160D01*
X1013319Y2051940D01*
X1010220Y2052540D01*
X1007080Y2052960D01*
X1003940Y2053220D01*
G37*
G36*
X1171000Y2053300D02*
G01*
X1167780Y2053220D01*
X1164560Y2052960D01*
X1161380Y2052540D01*
X1158200Y2051940D01*
X1155060Y2051160D01*
X1151960Y2050180D01*
X1148880Y2049040D01*
X1145860Y2047700D01*
X1142900Y2046160D01*
X1139980Y2044420D01*
X1137100Y2042480D01*
X1134320Y2040320D01*
X1131580Y2037980D01*
X1128940Y2035400D01*
X1126360Y2032620D01*
X1123880Y2029620D01*
X1121480Y2026380D01*
X1119180Y2022940D01*
X1116960Y2019240D01*
X1114880Y2015320D01*
X1112880Y2011160D01*
X1111020Y2006759D01*
X1109260Y2002100D01*
X1107640Y1997200D01*
X1106140Y1992060D01*
X1104780Y1986639D01*
X1103560Y1980980D01*
X1102480Y1975040D01*
X1101560Y1968839D01*
X1100800Y1962380D01*
X1100200Y1955620D01*
X1099760Y1948600D01*
X1099480Y1941300D01*
X1099400Y1933700D01*
X1129500Y1933700D01*
X1129580Y1942520D01*
X1129800Y1950880D01*
X1130160Y1958779D01*
X1130660Y1966240D01*
X1131300Y1973260D01*
X1132060Y1979860D01*
X1132940Y1986040D01*
X1133940Y1991840D01*
X1135040Y1997220D01*
X1136260Y2002240D01*
X1137580Y2006879D01*
X1139000Y2011180D01*
X1140520Y2015120D01*
X1142120Y2018720D01*
X1143800Y2022000D01*
X1145560Y2024980D01*
X1147400Y2027660D01*
X1149300Y2030040D01*
X1151260Y2032140D01*
X1153280Y2033959D01*
X1155360Y2035540D01*
X1157480Y2036860D01*
X1159660Y2037960D01*
X1161860Y2038839D01*
X1164120Y2039500D01*
X1166380Y2039940D01*
X1168680Y2040220D01*
X1171000Y2040300D01*
X1173400Y2040200D01*
X1175760Y2039880D01*
X1178120Y2039340D01*
X1180440Y2038580D01*
X1183860Y2036940D01*
X1186080Y2035500D01*
X1188240Y2033779D01*
X1190340Y2031759D01*
X1192400Y2029440D01*
X1194360Y2026780D01*
X1196260Y2023779D01*
X1198080Y2020420D01*
X1199800Y2016699D01*
X1201440Y2012600D01*
X1202960Y2008120D01*
X1204380Y2003220D01*
X1205680Y1997880D01*
X1206860Y1992120D01*
X1207920Y1985920D01*
X1208860Y1979259D01*
X1209640Y1972100D01*
X1210280Y1964480D01*
X1210780Y1956339D01*
X1211100Y1947680D01*
X1211280Y1938500D01*
X1211280Y1929060D01*
X1211100Y1920180D01*
X1210780Y1911819D01*
X1210280Y1903959D01*
X1209640Y1896579D01*
X1208860Y1889680D01*
X1207920Y1883240D01*
X1206860Y1877240D01*
X1205680Y1871680D01*
X1204380Y1866540D01*
X1202960Y1861819D01*
X1201440Y1857480D01*
X1199800Y1853520D01*
X1198080Y1849940D01*
X1196260Y1846699D01*
X1194360Y1843820D01*
X1192400Y1841260D01*
X1190340Y1839019D01*
X1188240Y1837080D01*
X1186080Y1835420D01*
X1183860Y1834040D01*
X1181580Y1832920D01*
X1179280Y1832060D01*
X1176940Y1831420D01*
X1174580Y1831020D01*
X1172200Y1830820D01*
X1169760Y1830820D01*
X1167260Y1831020D01*
X1164800Y1831420D01*
X1162380Y1832060D01*
X1160000Y1832920D01*
X1157660Y1834040D01*
X1155360Y1835420D01*
X1153120Y1837080D01*
X1150960Y1839019D01*
X1148840Y1841260D01*
X1146820Y1843820D01*
X1144860Y1846699D01*
X1143000Y1849940D01*
X1141240Y1853520D01*
X1139580Y1857480D01*
X1138000Y1861819D01*
X1136560Y1866540D01*
X1135220Y1871680D01*
X1134020Y1877240D01*
X1132940Y1883240D01*
X1131980Y1889680D01*
X1131180Y1896579D01*
X1130540Y1903959D01*
X1130040Y1911819D01*
X1129700Y1920180D01*
X1129500Y1933700D01*
X1099400Y1933700D01*
X1099480Y1926339D01*
X1099760Y1919240D01*
X1100200Y1912440D01*
X1100800Y1905880D01*
X1101560Y1899600D01*
X1102480Y1893560D01*
X1103560Y1887800D01*
X1104780Y1882280D01*
X1106140Y1877020D01*
X1107640Y1872000D01*
X1109260Y1867240D01*
X1111020Y1862700D01*
X1112880Y1858400D01*
X1114880Y1854340D01*
X1116960Y1850500D01*
X1119180Y1846900D01*
X1121480Y1843520D01*
X1123880Y1840360D01*
X1126360Y1837420D01*
X1128940Y1834700D01*
X1131580Y1832180D01*
X1134320Y1829860D01*
X1137100Y1827760D01*
X1139980Y1825860D01*
X1142900Y1824139D01*
X1145860Y1822640D01*
X1148880Y1821300D01*
X1151960Y1820180D01*
X1155060Y1819220D01*
X1158200Y1818440D01*
X1161380Y1817860D01*
X1164560Y1817440D01*
X1167780Y1817180D01*
X1171000Y1817100D01*
X1174140Y1817180D01*
X1177280Y1817440D01*
X1180420Y1817860D01*
X1183520Y1818440D01*
X1186600Y1819220D01*
X1189640Y1820180D01*
X1192660Y1821300D01*
X1195640Y1822640D01*
X1198560Y1824139D01*
X1201440Y1825860D01*
X1204260Y1827760D01*
X1207040Y1829860D01*
X1209720Y1832180D01*
X1212340Y1834700D01*
X1214900Y1837420D01*
X1217360Y1840360D01*
X1219740Y1843520D01*
X1222020Y1846900D01*
X1224200Y1850500D01*
X1226300Y1854340D01*
X1228260Y1858400D01*
X1230120Y1862700D01*
X1231880Y1867240D01*
X1233480Y1872000D01*
X1234980Y1877020D01*
X1236340Y1882280D01*
X1237540Y1887800D01*
X1238620Y1893560D01*
X1239540Y1899600D01*
X1240300Y1905880D01*
X1240900Y1912440D01*
X1241340Y1919240D01*
X1241620Y1926339D01*
X1241700Y1933700D01*
X1241620Y1941300D01*
X1241340Y1948600D01*
X1240900Y1955620D01*
X1240300Y1962380D01*
X1239540Y1968839D01*
X1238620Y1975040D01*
X1237540Y1980980D01*
X1236340Y1986639D01*
X1234980Y1992060D01*
X1233480Y1997200D01*
X1231880Y2002100D01*
X1230120Y2006759D01*
X1228260Y2011160D01*
X1226300Y2015320D01*
X1224200Y2019240D01*
X1222020Y2022940D01*
X1219740Y2026380D01*
X1217360Y2029620D01*
X1214900Y2032620D01*
X1212340Y2035400D01*
X1209720Y2037980D01*
X1207040Y2040320D01*
X1204260Y2042480D01*
X1201440Y2044420D01*
X1198560Y2046160D01*
X1195640Y2047700D01*
X1192660Y2049040D01*
X1189640Y2050180D01*
X1186600Y2051160D01*
X1183520Y2051940D01*
X1180420Y2052540D01*
X1177280Y2052960D01*
X1174140Y2053220D01*
G37*
G36*
X421400Y2049000D02*
G01*
X421400Y2027900D01*
X443600Y2002980D01*
X472900Y1969600D01*
X481520Y1959580D01*
X489260Y1950100D01*
X492819Y1945540D01*
X496160Y1941100D01*
X499280Y1936759D01*
X502200Y1932500D01*
X504900Y1928340D01*
X507400Y1924259D01*
X509700Y1920260D01*
X511780Y1916320D01*
X513660Y1912440D01*
X515340Y1908600D01*
X516820Y1904820D01*
X518100Y1901060D01*
X519180Y1897320D01*
X520040Y1893620D01*
X520720Y1889920D01*
X521220Y1886220D01*
X521500Y1882520D01*
X521599Y1878800D01*
X521560Y1876100D01*
X521420Y1873460D01*
X520860Y1868360D01*
X519940Y1863520D01*
X518680Y1858959D01*
X517920Y1856780D01*
X516140Y1852660D01*
X515140Y1850700D01*
X512879Y1847020D01*
X510319Y1843680D01*
X508940Y1842140D01*
X507460Y1840680D01*
X505940Y1839319D01*
X504320Y1838040D01*
X500900Y1835760D01*
X499099Y1834760D01*
X495280Y1833080D01*
X493280Y1832380D01*
X491200Y1831780D01*
X489080Y1831279D01*
X486900Y1830900D01*
X484660Y1830620D01*
X482360Y1830460D01*
X478100Y1830440D01*
X473960Y1830700D01*
X469360Y1831240D01*
X461700Y1832600D01*
X453860Y1861140D01*
X452740Y1864480D01*
X451520Y1867400D01*
X450240Y1869980D01*
X448840Y1872180D01*
X447360Y1874019D01*
X445780Y1875560D01*
X444099Y1876759D01*
X442320Y1877680D01*
X440420Y1878320D01*
X438420Y1878680D01*
X436300Y1878800D01*
X433700Y1878620D01*
X431220Y1878080D01*
X428880Y1877200D01*
X426719Y1875980D01*
X424720Y1874480D01*
X422900Y1872680D01*
X421280Y1870620D01*
X419900Y1868300D01*
X420780Y1863320D01*
X422020Y1858580D01*
X422760Y1856300D01*
X424520Y1851960D01*
X426599Y1847860D01*
X427740Y1845920D01*
X430280Y1842200D01*
X433080Y1838740D01*
X436160Y1835540D01*
X439480Y1832600D01*
X443060Y1829920D01*
X446840Y1827480D01*
X450820Y1825300D01*
X454980Y1823380D01*
X459340Y1821720D01*
X463840Y1820300D01*
X468459Y1819160D01*
X473240Y1818260D01*
X478100Y1817620D01*
X483060Y1817220D01*
X488100Y1817100D01*
X493900Y1817260D01*
X499420Y1817700D01*
X504640Y1818440D01*
X509560Y1819480D01*
X514200Y1820780D01*
X516420Y1821519D01*
X520620Y1823220D01*
X524540Y1825180D01*
X528180Y1827380D01*
X531560Y1829820D01*
X534640Y1832500D01*
X537460Y1835400D01*
X540020Y1838520D01*
X542300Y1841840D01*
X544320Y1845360D01*
X546080Y1849060D01*
X547580Y1852960D01*
X548820Y1857020D01*
X549800Y1861260D01*
X550540Y1865660D01*
X551020Y1870220D01*
X551260Y1874900D01*
X551280Y1878980D01*
X551120Y1882320D01*
X550800Y1885600D01*
X550320Y1888839D01*
X549660Y1892080D01*
X548820Y1895300D01*
X547800Y1898520D01*
X546600Y1901759D01*
X545180Y1905020D01*
X543580Y1908340D01*
X541760Y1911720D01*
X539740Y1915160D01*
X537500Y1918700D01*
X532340Y1926060D01*
X529400Y1929940D01*
X526240Y1933940D01*
X519159Y1942420D01*
X511040Y1951600D01*
X501860Y1961600D01*
X491580Y1972540D01*
X463900Y2001240D01*
X443100Y2022600D01*
X560900Y2022600D01*
X560900Y2049000D01*
G37*
G36*
X600300Y2049000D02*
G01*
X600300Y2038500D01*
X648700Y2031600D01*
X649140Y2001819D01*
X649300Y1982800D01*
X649300Y1844100D01*
X604000Y1848400D01*
X604000Y1836600D01*
X673800Y1818400D01*
X678400Y1821800D01*
X677200Y1870800D01*
X677240Y1988240D01*
X677380Y2004540D01*
X677800Y2031600D01*
X725500Y2038500D01*
X725500Y2049000D01*
G37*
G36*
X793700Y2049000D02*
G01*
X790600Y2045900D01*
X881200Y1848400D01*
X762099Y1848400D01*
X762099Y1821800D01*
X900100Y1821800D01*
X900100Y1838500D01*
X819800Y2049000D01*
G37*
G36*
X1416500Y2022000D02*
G01*
X1416500Y1945100D01*
X1345200Y1945100D01*
X1345200Y1928700D01*
X1416500Y1928700D01*
X1416500Y1853400D01*
X1434199Y1853400D01*
X1434199Y1928700D01*
X1505200Y1928700D01*
X1505200Y1945100D01*
X1434199Y1945100D01*
X1434199Y2022000D01*
G37*
G36*
X232600Y1973700D02*
G01*
X232600Y1953800D01*
X311700Y1953800D01*
X311700Y1973700D01*
G37*
G36*
X2021399Y2957700D02*
G01*
X2021399Y2932799D01*
X2120800Y2932799D01*
X2120800Y2957700D01*
G37*
G36*
X-386800Y3059100D02*
G01*
X-386800Y2964300D01*
X-476100Y2964300D01*
X-476100Y2943700D01*
X-386800Y2943700D01*
X-386800Y2846900D01*
X-364600Y2846900D01*
X-364600Y2943700D01*
X-274900Y2943700D01*
X-274900Y2964300D01*
X-364600Y2964300D01*
X-364600Y3059100D01*
G37*
G36*
X1168900Y3069900D02*
G01*
X1163100Y3069740D01*
X1157580Y3069300D01*
X1152360Y3068560D01*
X1147440Y3067520D01*
X1142800Y3066220D01*
X1140580Y3065480D01*
X1136380Y3063780D01*
X1132460Y3061820D01*
X1128820Y3059620D01*
X1125440Y3057180D01*
X1122360Y3054500D01*
X1119540Y3051600D01*
X1116980Y3048480D01*
X1114700Y3045160D01*
X1112680Y3041640D01*
X1110920Y3037940D01*
X1109420Y3034040D01*
X1108180Y3029980D01*
X1107200Y3025740D01*
X1106460Y3021340D01*
X1105980Y3016780D01*
X1105740Y3012100D01*
X1105720Y3008020D01*
X1105880Y3004680D01*
X1106200Y3001400D01*
X1106680Y2998159D01*
X1107340Y2994920D01*
X1108180Y2991700D01*
X1109200Y2988480D01*
X1110400Y2985240D01*
X1111820Y2981980D01*
X1113420Y2978660D01*
X1115240Y2975280D01*
X1117260Y2971840D01*
X1119500Y2968300D01*
X1124660Y2960940D01*
X1127600Y2957060D01*
X1130760Y2953060D01*
X1137840Y2944580D01*
X1145960Y2935400D01*
X1155140Y2925400D01*
X1165420Y2914460D01*
X1193100Y2885760D01*
X1213900Y2864400D01*
X1096100Y2864400D01*
X1096100Y2838000D01*
X1235600Y2838000D01*
X1235600Y2859100D01*
X1216740Y2880240D01*
X1179680Y2922480D01*
X1171500Y2932220D01*
X1164180Y2941460D01*
X1160840Y2945899D01*
X1157720Y2950240D01*
X1154800Y2954500D01*
X1152100Y2958660D01*
X1149600Y2962740D01*
X1147300Y2966740D01*
X1145220Y2970680D01*
X1143340Y2974560D01*
X1141660Y2978399D01*
X1140180Y2982180D01*
X1138900Y2985940D01*
X1137820Y2989680D01*
X1136960Y2993380D01*
X1136280Y2997080D01*
X1135780Y3000779D01*
X1135500Y3004480D01*
X1135400Y3008200D01*
X1135440Y3010899D01*
X1135580Y3013540D01*
X1136140Y3018639D01*
X1137060Y3023480D01*
X1138320Y3028039D01*
X1139080Y3030220D01*
X1140860Y3034340D01*
X1141860Y3036300D01*
X1144120Y3039980D01*
X1146680Y3043320D01*
X1148060Y3044860D01*
X1149540Y3046320D01*
X1151060Y3047679D01*
X1152680Y3048960D01*
X1156100Y3051240D01*
X1157900Y3052240D01*
X1161720Y3053920D01*
X1163720Y3054620D01*
X1165800Y3055220D01*
X1167920Y3055720D01*
X1170100Y3056100D01*
X1172340Y3056380D01*
X1174640Y3056540D01*
X1178900Y3056560D01*
X1183040Y3056300D01*
X1187640Y3055760D01*
X1195300Y3054400D01*
X1203140Y3025860D01*
X1204260Y3022520D01*
X1205480Y3019600D01*
X1206760Y3017020D01*
X1208160Y3014820D01*
X1209640Y3012980D01*
X1211220Y3011440D01*
X1212900Y3010240D01*
X1214680Y3009320D01*
X1216580Y3008680D01*
X1218580Y3008320D01*
X1220700Y3008200D01*
X1223300Y3008380D01*
X1225780Y3008920D01*
X1228120Y3009800D01*
X1230280Y3011019D01*
X1232280Y3012520D01*
X1234100Y3014320D01*
X1235720Y3016380D01*
X1237100Y3018700D01*
X1236220Y3023680D01*
X1234980Y3028420D01*
X1234240Y3030700D01*
X1232480Y3035040D01*
X1230400Y3039140D01*
X1229260Y3041080D01*
X1226720Y3044800D01*
X1223920Y3048260D01*
X1220840Y3051460D01*
X1217520Y3054400D01*
X1213940Y3057080D01*
X1210160Y3059520D01*
X1206180Y3061700D01*
X1202020Y3063620D01*
X1197660Y3065280D01*
X1193160Y3066700D01*
X1188540Y3067840D01*
X1183760Y3068740D01*
X1178900Y3069380D01*
X1173940Y3069780D01*
G37*
G36*
X656200Y3069900D02*
G01*
X653060Y3069820D01*
X649920Y3069560D01*
X646780Y3069140D01*
X643680Y3068560D01*
X640600Y3067780D01*
X637560Y3066820D01*
X634540Y3065700D01*
X631560Y3064360D01*
X628640Y3062860D01*
X625760Y3061139D01*
X622940Y3059240D01*
X620160Y3057140D01*
X617480Y3054820D01*
X614860Y3052300D01*
X612300Y3049580D01*
X609840Y3046640D01*
X607460Y3043480D01*
X605180Y3040100D01*
X603000Y3036500D01*
X600900Y3032660D01*
X598940Y3028600D01*
X597080Y3024300D01*
X595320Y3019760D01*
X593720Y3015000D01*
X592220Y3009980D01*
X590860Y3004720D01*
X589660Y2999200D01*
X588580Y2993440D01*
X587660Y2987400D01*
X586900Y2981120D01*
X586300Y2974560D01*
X585860Y2967760D01*
X585580Y2960659D01*
X585500Y2953300D01*
X615900Y2953300D01*
X615980Y2962440D01*
X616240Y2971060D01*
X616660Y2979180D01*
X617220Y2986780D01*
X617940Y2993920D01*
X618800Y3000600D01*
X619780Y3006820D01*
X620900Y3012580D01*
X622160Y3017940D01*
X623520Y3022860D01*
X625000Y3027400D01*
X626580Y3031540D01*
X628260Y3035320D01*
X630020Y3038720D01*
X631880Y3041780D01*
X633820Y3044500D01*
X635820Y3046900D01*
X637900Y3049000D01*
X640040Y3050800D01*
X642240Y3052300D01*
X644479Y3053560D01*
X646760Y3054540D01*
X649080Y3055280D01*
X651440Y3055800D01*
X653800Y3056100D01*
X656200Y3056200D01*
X658700Y3056100D01*
X661160Y3055800D01*
X663600Y3055280D01*
X666020Y3054540D01*
X668379Y3053560D01*
X670699Y3052300D01*
X672960Y3050800D01*
X675160Y3049000D01*
X677300Y3046900D01*
X679380Y3044500D01*
X681360Y3041780D01*
X683280Y3038720D01*
X685080Y3035320D01*
X686800Y3031540D01*
X688420Y3027400D01*
X689940Y3022860D01*
X691320Y3017940D01*
X692600Y3012580D01*
X693740Y3006820D01*
X694760Y3000600D01*
X695639Y2993920D01*
X696360Y2986780D01*
X696940Y2979180D01*
X697360Y2971060D01*
X697620Y2962440D01*
X697700Y2953300D01*
X697620Y2944480D01*
X697400Y2936120D01*
X697039Y2928220D01*
X696540Y2920760D01*
X695900Y2913740D01*
X695140Y2907140D01*
X694260Y2900960D01*
X693259Y2895160D01*
X692159Y2889780D01*
X690939Y2884760D01*
X689620Y2880120D01*
X688199Y2875820D01*
X686680Y2871880D01*
X685080Y2868279D01*
X683400Y2865000D01*
X681640Y2862020D01*
X679800Y2859340D01*
X677900Y2856960D01*
X675939Y2854860D01*
X673920Y2853039D01*
X671840Y2851460D01*
X669720Y2850140D01*
X667540Y2849040D01*
X665340Y2848159D01*
X663080Y2847500D01*
X660819Y2847060D01*
X658520Y2846780D01*
X656200Y2846700D01*
X653800Y2846800D01*
X651440Y2847120D01*
X649080Y2847660D01*
X646760Y2848420D01*
X643340Y2850059D01*
X641120Y2851500D01*
X638960Y2853220D01*
X636860Y2855240D01*
X634800Y2857559D01*
X632840Y2860220D01*
X630940Y2863220D01*
X629120Y2866580D01*
X627400Y2870299D01*
X625760Y2874400D01*
X624240Y2878880D01*
X622820Y2883780D01*
X621520Y2889120D01*
X620340Y2894880D01*
X619280Y2901080D01*
X618340Y2907740D01*
X617560Y2914900D01*
X616920Y2922520D01*
X616420Y2930659D01*
X616100Y2939320D01*
X615900Y2953300D01*
X585500Y2953300D01*
X585580Y2945700D01*
X585860Y2938399D01*
X586300Y2931380D01*
X586900Y2924620D01*
X587660Y2918159D01*
X588580Y2911960D01*
X589660Y2906019D01*
X590860Y2900360D01*
X592220Y2894940D01*
X593720Y2889800D01*
X595320Y2884900D01*
X597080Y2880240D01*
X598940Y2875840D01*
X600900Y2871680D01*
X603000Y2867760D01*
X605180Y2864060D01*
X607460Y2860620D01*
X609840Y2857380D01*
X612300Y2854380D01*
X614860Y2851600D01*
X617480Y2849020D01*
X620160Y2846680D01*
X622940Y2844520D01*
X625760Y2842580D01*
X628640Y2840840D01*
X631560Y2839300D01*
X634540Y2837960D01*
X637560Y2836820D01*
X640600Y2835840D01*
X643680Y2835059D01*
X646780Y2834460D01*
X649920Y2834040D01*
X653060Y2833780D01*
X656200Y2833700D01*
X659419Y2833780D01*
X662640Y2834040D01*
X665819Y2834460D01*
X669000Y2835059D01*
X672140Y2835840D01*
X675240Y2836820D01*
X678319Y2837960D01*
X681340Y2839300D01*
X684300Y2840840D01*
X687220Y2842580D01*
X690100Y2844520D01*
X692880Y2846680D01*
X695620Y2849020D01*
X698259Y2851600D01*
X700840Y2854380D01*
X703319Y2857380D01*
X705720Y2860620D01*
X708020Y2864060D01*
X710240Y2867760D01*
X712320Y2871680D01*
X714320Y2875840D01*
X716180Y2880240D01*
X717940Y2884900D01*
X719560Y2889800D01*
X721060Y2894940D01*
X722420Y2900360D01*
X723640Y2906019D01*
X724720Y2911960D01*
X725639Y2918159D01*
X726400Y2924620D01*
X727000Y2931380D01*
X727440Y2938399D01*
X727720Y2945700D01*
X727800Y2953300D01*
X727720Y2960659D01*
X727440Y2967760D01*
X727000Y2974560D01*
X726400Y2981120D01*
X725639Y2987400D01*
X724720Y2993440D01*
X723640Y2999200D01*
X722420Y3004720D01*
X721060Y3009980D01*
X719560Y3015000D01*
X717940Y3019760D01*
X716180Y3024300D01*
X714320Y3028600D01*
X712320Y3032660D01*
X710240Y3036500D01*
X708020Y3040100D01*
X705720Y3043480D01*
X703319Y3046640D01*
X700840Y3049580D01*
X698259Y3052300D01*
X695620Y3054820D01*
X692880Y3057140D01*
X690100Y3059240D01*
X687220Y3061139D01*
X684300Y3062860D01*
X681340Y3064360D01*
X678319Y3065700D01*
X675240Y3066820D01*
X672140Y3067780D01*
X669000Y3068560D01*
X665819Y3069140D01*
X662640Y3069560D01*
X659419Y3069820D01*
G37*
G36*
X486000Y3069900D02*
G01*
X482860Y3069820D01*
X479720Y3069560D01*
X476580Y3069140D01*
X473480Y3068560D01*
X470400Y3067780D01*
X467360Y3066820D01*
X464340Y3065700D01*
X461360Y3064360D01*
X458440Y3062860D01*
X455560Y3061139D01*
X452740Y3059240D01*
X449960Y3057140D01*
X447280Y3054820D01*
X444660Y3052300D01*
X442100Y3049580D01*
X439640Y3046640D01*
X437260Y3043480D01*
X434980Y3040100D01*
X432800Y3036500D01*
X430700Y3032660D01*
X428740Y3028600D01*
X426880Y3024300D01*
X425120Y3019760D01*
X423519Y3015000D01*
X422020Y3009980D01*
X420660Y3004720D01*
X419460Y2999200D01*
X418380Y2993440D01*
X417460Y2987400D01*
X416700Y2981120D01*
X416100Y2974560D01*
X415660Y2967760D01*
X415379Y2960659D01*
X415300Y2953300D01*
X445700Y2953300D01*
X445780Y2962440D01*
X446040Y2971060D01*
X446460Y2979180D01*
X447020Y2986780D01*
X447740Y2993920D01*
X448600Y3000600D01*
X449580Y3006820D01*
X450700Y3012580D01*
X451960Y3017940D01*
X453320Y3022860D01*
X454799Y3027400D01*
X456380Y3031540D01*
X458060Y3035320D01*
X459820Y3038720D01*
X461680Y3041780D01*
X463620Y3044500D01*
X465620Y3046900D01*
X467700Y3049000D01*
X469840Y3050800D01*
X472040Y3052300D01*
X474280Y3053560D01*
X476560Y3054540D01*
X478880Y3055280D01*
X481240Y3055800D01*
X483600Y3056100D01*
X486000Y3056200D01*
X488500Y3056100D01*
X490959Y3055800D01*
X493400Y3055280D01*
X495820Y3054540D01*
X498180Y3053560D01*
X500500Y3052300D01*
X502760Y3050800D01*
X504960Y3049000D01*
X507100Y3046900D01*
X509180Y3044500D01*
X511160Y3041780D01*
X513080Y3038720D01*
X514880Y3035320D01*
X516599Y3031540D01*
X518220Y3027400D01*
X519739Y3022860D01*
X521120Y3017940D01*
X522400Y3012580D01*
X523540Y3006820D01*
X524560Y3000600D01*
X525440Y2993920D01*
X526160Y2986780D01*
X526740Y2979180D01*
X527160Y2971060D01*
X527420Y2962440D01*
X527500Y2953300D01*
X527420Y2944480D01*
X527200Y2936120D01*
X526840Y2928220D01*
X526340Y2920760D01*
X525700Y2913740D01*
X524940Y2907140D01*
X524060Y2900960D01*
X523060Y2895160D01*
X521960Y2889780D01*
X520740Y2884760D01*
X519420Y2880120D01*
X518000Y2875820D01*
X516480Y2871880D01*
X514880Y2868279D01*
X513200Y2865000D01*
X511440Y2862020D01*
X509600Y2859340D01*
X507700Y2856960D01*
X505740Y2854860D01*
X503720Y2853039D01*
X501640Y2851460D01*
X499520Y2850140D01*
X497340Y2849040D01*
X495140Y2848159D01*
X492879Y2847500D01*
X490620Y2847060D01*
X488320Y2846780D01*
X486000Y2846700D01*
X483600Y2846800D01*
X481240Y2847120D01*
X478880Y2847660D01*
X476560Y2848420D01*
X473140Y2850059D01*
X470920Y2851500D01*
X468760Y2853220D01*
X466659Y2855240D01*
X464600Y2857559D01*
X462640Y2860220D01*
X460740Y2863220D01*
X458920Y2866580D01*
X457200Y2870299D01*
X455560Y2874400D01*
X454040Y2878880D01*
X452620Y2883780D01*
X451320Y2889120D01*
X450140Y2894880D01*
X449080Y2901080D01*
X448140Y2907740D01*
X447360Y2914900D01*
X446719Y2922520D01*
X446220Y2930659D01*
X445900Y2939320D01*
X445700Y2953300D01*
X415300Y2953300D01*
X415379Y2945700D01*
X415660Y2938399D01*
X416100Y2931380D01*
X416700Y2924620D01*
X417460Y2918159D01*
X418380Y2911960D01*
X419460Y2906019D01*
X420660Y2900360D01*
X422020Y2894940D01*
X423519Y2889800D01*
X425120Y2884900D01*
X426880Y2880240D01*
X428740Y2875840D01*
X430700Y2871680D01*
X432800Y2867760D01*
X434980Y2864060D01*
X437260Y2860620D01*
X439640Y2857380D01*
X442100Y2854380D01*
X444660Y2851600D01*
X447280Y2849020D01*
X449960Y2846680D01*
X452740Y2844520D01*
X455560Y2842580D01*
X458440Y2840840D01*
X461360Y2839300D01*
X464340Y2837960D01*
X467360Y2836820D01*
X470400Y2835840D01*
X473480Y2835059D01*
X476580Y2834460D01*
X479720Y2834040D01*
X482860Y2833780D01*
X486000Y2833700D01*
X489219Y2833780D01*
X492440Y2834040D01*
X495620Y2834460D01*
X498800Y2835059D01*
X501940Y2835840D01*
X505040Y2836820D01*
X508120Y2837960D01*
X511140Y2839300D01*
X514099Y2840840D01*
X517020Y2842580D01*
X519900Y2844520D01*
X522680Y2846680D01*
X525420Y2849020D01*
X528060Y2851600D01*
X530640Y2854380D01*
X533120Y2857380D01*
X535520Y2860620D01*
X537820Y2864060D01*
X540040Y2867760D01*
X542120Y2871680D01*
X544120Y2875840D01*
X545980Y2880240D01*
X547740Y2884900D01*
X549360Y2889800D01*
X550860Y2894940D01*
X552220Y2900360D01*
X553440Y2906019D01*
X554520Y2911960D01*
X555440Y2918159D01*
X556200Y2924620D01*
X556800Y2931380D01*
X557240Y2938399D01*
X557520Y2945700D01*
X557600Y2953300D01*
X557520Y2960659D01*
X557240Y2967760D01*
X556800Y2974560D01*
X556200Y2981120D01*
X555440Y2987400D01*
X554520Y2993440D01*
X553440Y2999200D01*
X552220Y3004720D01*
X550860Y3009980D01*
X549360Y3015000D01*
X547740Y3019760D01*
X545980Y3024300D01*
X544120Y3028600D01*
X542120Y3032660D01*
X540040Y3036500D01*
X537820Y3040100D01*
X535520Y3043480D01*
X533120Y3046640D01*
X530640Y3049580D01*
X528060Y3052300D01*
X525420Y3054820D01*
X522680Y3057140D01*
X519900Y3059240D01*
X517020Y3061139D01*
X514099Y3062860D01*
X511140Y3064360D01*
X508120Y3065700D01*
X505040Y3066820D01*
X501940Y3067780D01*
X498800Y3068560D01*
X495620Y3069140D01*
X492440Y3069560D01*
X489219Y3069820D01*
G37*
G36*
X983199Y3068600D02*
G01*
X978600Y3065200D01*
X979800Y3016200D01*
X979760Y2898759D01*
X979620Y2882460D01*
X979200Y2855400D01*
X931500Y2848500D01*
X931500Y2838000D01*
X1056700Y2838000D01*
X1056700Y2848500D01*
X1008300Y2855400D01*
X1007860Y2885179D01*
X1007700Y2904200D01*
X1007700Y3042900D01*
X1053000Y3038600D01*
X1053000Y3050400D01*
G37*
G36*
X756900Y3065200D02*
G01*
X756900Y3048500D01*
X837200Y2838000D01*
X863300Y2838000D01*
X866400Y2841100D01*
X775800Y3038600D01*
X894900Y3038600D01*
X894900Y3065200D01*
G37*
G36*
X222800Y3033600D02*
G01*
X222800Y2958300D01*
X151800Y2958300D01*
X151800Y2941900D01*
X222800Y2941900D01*
X222800Y2865000D01*
X240500Y2865000D01*
X240500Y2941900D01*
X311800Y2941900D01*
X311800Y2958300D01*
X240500Y2958300D01*
X240500Y3033600D01*
G37*
G36*
X1345300Y2933200D02*
G01*
X1345300Y2913300D01*
X1424400Y2913300D01*
X1424400Y2933200D01*
G37*
G36*
X-461800Y3989200D02*
G01*
X-461800Y3964300D01*
X-362400Y3964300D01*
X-362400Y3989200D01*
G37*
G36*
X2023600Y4075100D02*
G01*
X2023600Y3978300D01*
X1933899Y3978300D01*
X1933899Y3957700D01*
X2023600Y3957700D01*
X2023600Y3862900D01*
X2045800Y3862900D01*
X2045800Y3957700D01*
X2135100Y3957700D01*
X2135100Y3978300D01*
X2045800Y3978300D01*
X2045800Y4075100D01*
G37*
G36*
X1002800Y4088300D02*
G01*
X999580Y4088220D01*
X996360Y4087960D01*
X993180Y4087540D01*
X990000Y4086940D01*
X986860Y4086160D01*
X983760Y4085179D01*
X980680Y4084040D01*
X977660Y4082700D01*
X974700Y4081160D01*
X971780Y4079420D01*
X968900Y4077480D01*
X966120Y4075320D01*
X963379Y4072980D01*
X960740Y4070400D01*
X958160Y4067620D01*
X955680Y4064620D01*
X953280Y4061380D01*
X950980Y4057940D01*
X948760Y4054240D01*
X946680Y4050320D01*
X944680Y4046160D01*
X942820Y4041760D01*
X941060Y4037100D01*
X939440Y4032200D01*
X937940Y4027060D01*
X936580Y4021640D01*
X935360Y4015980D01*
X934280Y4010040D01*
X933360Y4003840D01*
X932600Y3997380D01*
X932000Y3990620D01*
X931560Y3983600D01*
X931280Y3976300D01*
X931200Y3968700D01*
X961300Y3968700D01*
X961380Y3977520D01*
X961600Y3985880D01*
X961960Y3993780D01*
X962460Y4001240D01*
X963100Y4008260D01*
X963860Y4014860D01*
X964740Y4021040D01*
X965740Y4026840D01*
X966840Y4032220D01*
X968060Y4037240D01*
X969380Y4041880D01*
X970800Y4046180D01*
X972320Y4050120D01*
X973920Y4053720D01*
X975600Y4057000D01*
X977360Y4059980D01*
X979200Y4062660D01*
X981100Y4065040D01*
X983060Y4067140D01*
X985080Y4068960D01*
X987159Y4070539D01*
X989280Y4071860D01*
X991460Y4072960D01*
X993660Y4073840D01*
X995920Y4074500D01*
X998180Y4074940D01*
X1000480Y4075220D01*
X1002800Y4075299D01*
X1005200Y4075200D01*
X1007560Y4074880D01*
X1009920Y4074340D01*
X1012240Y4073580D01*
X1015660Y4071940D01*
X1017880Y4070500D01*
X1020040Y4068780D01*
X1022140Y4066760D01*
X1024200Y4064440D01*
X1026160Y4061780D01*
X1028060Y4058780D01*
X1029880Y4055419D01*
X1031600Y4051700D01*
X1033240Y4047600D01*
X1034760Y4043120D01*
X1036180Y4038220D01*
X1037480Y4032880D01*
X1038660Y4027120D01*
X1039720Y4020920D01*
X1040660Y4014260D01*
X1041440Y4007100D01*
X1042080Y3999480D01*
X1042580Y3991340D01*
X1042900Y3982679D01*
X1043080Y3973500D01*
X1043080Y3964060D01*
X1042900Y3955179D01*
X1042580Y3946820D01*
X1042080Y3938960D01*
X1041440Y3931580D01*
X1040660Y3924680D01*
X1039720Y3918240D01*
X1038660Y3912240D01*
X1037480Y3906680D01*
X1036180Y3901540D01*
X1034760Y3896820D01*
X1033240Y3892480D01*
X1031600Y3888519D01*
X1029880Y3884940D01*
X1028060Y3881700D01*
X1026160Y3878820D01*
X1024200Y3876259D01*
X1022140Y3874020D01*
X1020040Y3872080D01*
X1017880Y3870419D01*
X1015660Y3869040D01*
X1013379Y3867919D01*
X1011080Y3867060D01*
X1008740Y3866420D01*
X1006380Y3866019D01*
X1004000Y3865820D01*
X1001560Y3865820D01*
X999060Y3866019D01*
X996600Y3866420D01*
X994180Y3867060D01*
X991800Y3867919D01*
X989460Y3869040D01*
X987159Y3870419D01*
X984920Y3872080D01*
X982760Y3874020D01*
X980639Y3876259D01*
X978620Y3878820D01*
X976660Y3881700D01*
X974800Y3884940D01*
X973040Y3888519D01*
X971380Y3892480D01*
X969800Y3896820D01*
X968360Y3901540D01*
X967020Y3906680D01*
X965819Y3912240D01*
X964740Y3918240D01*
X963780Y3924680D01*
X962980Y3931580D01*
X962340Y3938960D01*
X961840Y3946820D01*
X961500Y3955179D01*
X961300Y3968700D01*
X931200Y3968700D01*
X931280Y3961340D01*
X931560Y3954240D01*
X932000Y3947440D01*
X932600Y3940880D01*
X933360Y3934600D01*
X934280Y3928560D01*
X935360Y3922799D01*
X936580Y3917280D01*
X937940Y3912020D01*
X939440Y3907000D01*
X941060Y3902240D01*
X942820Y3897700D01*
X944680Y3893399D01*
X946680Y3889340D01*
X948760Y3885500D01*
X950980Y3881900D01*
X953280Y3878519D01*
X955680Y3875360D01*
X958160Y3872420D01*
X960740Y3869700D01*
X963379Y3867180D01*
X966120Y3864860D01*
X968900Y3862760D01*
X971780Y3860860D01*
X974700Y3859140D01*
X977660Y3857640D01*
X980680Y3856300D01*
X983760Y3855179D01*
X986860Y3854220D01*
X990000Y3853440D01*
X993180Y3852860D01*
X996360Y3852440D01*
X999580Y3852180D01*
X1002800Y3852100D01*
X1005939Y3852180D01*
X1009080Y3852440D01*
X1012220Y3852860D01*
X1015320Y3853440D01*
X1018400Y3854220D01*
X1021440Y3855179D01*
X1024460Y3856300D01*
X1027440Y3857640D01*
X1030360Y3859140D01*
X1033240Y3860860D01*
X1036060Y3862760D01*
X1038840Y3864860D01*
X1041520Y3867180D01*
X1044140Y3869700D01*
X1046700Y3872420D01*
X1049160Y3875360D01*
X1051540Y3878519D01*
X1053820Y3881900D01*
X1056000Y3885500D01*
X1058100Y3889340D01*
X1060060Y3893399D01*
X1061920Y3897700D01*
X1063680Y3902240D01*
X1065280Y3907000D01*
X1066780Y3912020D01*
X1068140Y3917280D01*
X1069340Y3922799D01*
X1070420Y3928560D01*
X1071340Y3934600D01*
X1072100Y3940880D01*
X1072700Y3947440D01*
X1073140Y3954240D01*
X1073420Y3961340D01*
X1073500Y3968700D01*
X1073420Y3976300D01*
X1073140Y3983600D01*
X1072700Y3990620D01*
X1072100Y3997380D01*
X1071340Y4003840D01*
X1070420Y4010040D01*
X1069340Y4015980D01*
X1068140Y4021640D01*
X1066780Y4027060D01*
X1065280Y4032200D01*
X1063680Y4037100D01*
X1061920Y4041760D01*
X1060060Y4046160D01*
X1058100Y4050320D01*
X1056000Y4054240D01*
X1053820Y4057940D01*
X1051540Y4061380D01*
X1049160Y4064620D01*
X1046700Y4067620D01*
X1044140Y4070400D01*
X1041520Y4072980D01*
X1038840Y4075320D01*
X1036060Y4077480D01*
X1033240Y4079420D01*
X1030360Y4081160D01*
X1027440Y4082700D01*
X1024460Y4084040D01*
X1021440Y4085179D01*
X1018400Y4086160D01*
X1015320Y4086940D01*
X1012220Y4087540D01*
X1009080Y4087960D01*
X1005939Y4088220D01*
G37*
G36*
X1173000Y4088300D02*
G01*
X1169780Y4088220D01*
X1166560Y4087960D01*
X1163380Y4087540D01*
X1160200Y4086940D01*
X1157060Y4086160D01*
X1153960Y4085179D01*
X1150880Y4084040D01*
X1147860Y4082700D01*
X1144900Y4081160D01*
X1141980Y4079420D01*
X1139100Y4077480D01*
X1136320Y4075320D01*
X1133580Y4072980D01*
X1130940Y4070400D01*
X1128360Y4067620D01*
X1125880Y4064620D01*
X1123480Y4061380D01*
X1121180Y4057940D01*
X1118960Y4054240D01*
X1116880Y4050320D01*
X1114880Y4046160D01*
X1113020Y4041760D01*
X1111260Y4037100D01*
X1109640Y4032200D01*
X1108140Y4027060D01*
X1106780Y4021640D01*
X1105560Y4015980D01*
X1104480Y4010040D01*
X1103560Y4003840D01*
X1102800Y3997380D01*
X1102200Y3990620D01*
X1101760Y3983600D01*
X1101480Y3976300D01*
X1101400Y3968700D01*
X1131500Y3968700D01*
X1131580Y3977520D01*
X1131800Y3985880D01*
X1132160Y3993780D01*
X1132660Y4001240D01*
X1133300Y4008260D01*
X1134060Y4014860D01*
X1134940Y4021040D01*
X1135940Y4026840D01*
X1137040Y4032220D01*
X1138260Y4037240D01*
X1139580Y4041880D01*
X1141000Y4046180D01*
X1142520Y4050120D01*
X1144120Y4053720D01*
X1145800Y4057000D01*
X1147560Y4059980D01*
X1149400Y4062660D01*
X1151300Y4065040D01*
X1153260Y4067140D01*
X1155280Y4068960D01*
X1157360Y4070539D01*
X1159480Y4071860D01*
X1161660Y4072960D01*
X1163860Y4073840D01*
X1166120Y4074500D01*
X1168380Y4074940D01*
X1170680Y4075220D01*
X1173000Y4075299D01*
X1175400Y4075200D01*
X1177760Y4074880D01*
X1180120Y4074340D01*
X1182440Y4073580D01*
X1185860Y4071940D01*
X1188080Y4070500D01*
X1190240Y4068780D01*
X1192340Y4066760D01*
X1194400Y4064440D01*
X1196360Y4061780D01*
X1198260Y4058780D01*
X1200080Y4055419D01*
X1201800Y4051700D01*
X1203440Y4047600D01*
X1204960Y4043120D01*
X1206380Y4038220D01*
X1207680Y4032880D01*
X1208860Y4027120D01*
X1209920Y4020920D01*
X1210860Y4014260D01*
X1211640Y4007100D01*
X1212280Y3999480D01*
X1212780Y3991340D01*
X1213100Y3982679D01*
X1213280Y3973500D01*
X1213280Y3964060D01*
X1213100Y3955179D01*
X1212780Y3946820D01*
X1212280Y3938960D01*
X1211640Y3931580D01*
X1210860Y3924680D01*
X1209920Y3918240D01*
X1208860Y3912240D01*
X1207680Y3906680D01*
X1206380Y3901540D01*
X1204960Y3896820D01*
X1203440Y3892480D01*
X1201800Y3888519D01*
X1200080Y3884940D01*
X1198260Y3881700D01*
X1196360Y3878820D01*
X1194400Y3876259D01*
X1192340Y3874020D01*
X1190240Y3872080D01*
X1188080Y3870419D01*
X1185860Y3869040D01*
X1183580Y3867919D01*
X1181280Y3867060D01*
X1178940Y3866420D01*
X1176580Y3866019D01*
X1174200Y3865820D01*
X1171760Y3865820D01*
X1169260Y3866019D01*
X1166800Y3866420D01*
X1164380Y3867060D01*
X1162000Y3867919D01*
X1159660Y3869040D01*
X1157360Y3870419D01*
X1155120Y3872080D01*
X1152960Y3874020D01*
X1150840Y3876259D01*
X1148820Y3878820D01*
X1146860Y3881700D01*
X1145000Y3884940D01*
X1143240Y3888519D01*
X1141580Y3892480D01*
X1140000Y3896820D01*
X1138560Y3901540D01*
X1137220Y3906680D01*
X1136020Y3912240D01*
X1134940Y3918240D01*
X1133980Y3924680D01*
X1133180Y3931580D01*
X1132540Y3938960D01*
X1132040Y3946820D01*
X1131700Y3955179D01*
X1131500Y3968700D01*
X1101400Y3968700D01*
X1101480Y3961340D01*
X1101760Y3954240D01*
X1102200Y3947440D01*
X1102800Y3940880D01*
X1103560Y3934600D01*
X1104480Y3928560D01*
X1105560Y3922799D01*
X1106780Y3917280D01*
X1108140Y3912020D01*
X1109640Y3907000D01*
X1111260Y3902240D01*
X1113020Y3897700D01*
X1114880Y3893399D01*
X1116880Y3889340D01*
X1118960Y3885500D01*
X1121180Y3881900D01*
X1123480Y3878519D01*
X1125880Y3875360D01*
X1128360Y3872420D01*
X1130940Y3869700D01*
X1133580Y3867180D01*
X1136320Y3864860D01*
X1139100Y3862760D01*
X1141980Y3860860D01*
X1144900Y3859140D01*
X1147860Y3857640D01*
X1150880Y3856300D01*
X1153960Y3855179D01*
X1157060Y3854220D01*
X1160200Y3853440D01*
X1163380Y3852860D01*
X1166560Y3852440D01*
X1169780Y3852180D01*
X1173000Y3852100D01*
X1176140Y3852180D01*
X1179280Y3852440D01*
X1182420Y3852860D01*
X1185520Y3853440D01*
X1188600Y3854220D01*
X1191640Y3855179D01*
X1194660Y3856300D01*
X1197640Y3857640D01*
X1200560Y3859140D01*
X1203440Y3860860D01*
X1206260Y3862760D01*
X1209040Y3864860D01*
X1211720Y3867180D01*
X1214340Y3869700D01*
X1216900Y3872420D01*
X1219360Y3875360D01*
X1221740Y3878519D01*
X1224020Y3881900D01*
X1226200Y3885500D01*
X1228300Y3889340D01*
X1230260Y3893399D01*
X1232120Y3897700D01*
X1233880Y3902240D01*
X1235480Y3907000D01*
X1236980Y3912020D01*
X1238340Y3917280D01*
X1239540Y3922799D01*
X1240620Y3928560D01*
X1241540Y3934600D01*
X1242300Y3940880D01*
X1242900Y3947440D01*
X1243340Y3954240D01*
X1243620Y3961340D01*
X1243700Y3968700D01*
X1243620Y3976300D01*
X1243340Y3983600D01*
X1242900Y3990620D01*
X1242300Y3997380D01*
X1241540Y4003840D01*
X1240620Y4010040D01*
X1239540Y4015980D01*
X1238340Y4021640D01*
X1236980Y4027060D01*
X1235480Y4032200D01*
X1233880Y4037100D01*
X1232120Y4041760D01*
X1230260Y4046160D01*
X1228300Y4050320D01*
X1226200Y4054240D01*
X1224020Y4057940D01*
X1221740Y4061380D01*
X1219360Y4064620D01*
X1216900Y4067620D01*
X1214340Y4070400D01*
X1211720Y4072980D01*
X1209040Y4075320D01*
X1206260Y4077480D01*
X1203440Y4079420D01*
X1200560Y4081160D01*
X1197640Y4082700D01*
X1194660Y4084040D01*
X1191640Y4085179D01*
X1188600Y4086160D01*
X1185520Y4086940D01*
X1182420Y4087540D01*
X1179280Y4087960D01*
X1176140Y4088220D01*
G37*
G36*
X423400Y4084000D02*
G01*
X423400Y4062900D01*
X442260Y4041760D01*
X479320Y3999520D01*
X487500Y3989780D01*
X494820Y3980539D01*
X498160Y3976100D01*
X501280Y3971760D01*
X504200Y3967500D01*
X506900Y3963340D01*
X509400Y3959260D01*
X511700Y3955260D01*
X513780Y3951320D01*
X515660Y3947440D01*
X517340Y3943600D01*
X518820Y3939820D01*
X520100Y3936060D01*
X521180Y3932320D01*
X522040Y3928620D01*
X522720Y3924920D01*
X523220Y3921220D01*
X523500Y3917520D01*
X523600Y3913800D01*
X523560Y3911100D01*
X523420Y3908460D01*
X522860Y3903360D01*
X521940Y3898519D01*
X520680Y3893960D01*
X519920Y3891780D01*
X518140Y3887660D01*
X517140Y3885700D01*
X514880Y3882020D01*
X512320Y3878680D01*
X510940Y3877140D01*
X509460Y3875680D01*
X507939Y3874320D01*
X506320Y3873039D01*
X502900Y3870760D01*
X501100Y3869760D01*
X497280Y3868080D01*
X495280Y3867380D01*
X493200Y3866780D01*
X491079Y3866280D01*
X488900Y3865899D01*
X486659Y3865620D01*
X484360Y3865460D01*
X480100Y3865440D01*
X475959Y3865700D01*
X471360Y3866240D01*
X463700Y3867600D01*
X455860Y3896139D01*
X454739Y3899480D01*
X453519Y3902400D01*
X452239Y3904980D01*
X450840Y3907180D01*
X449360Y3909020D01*
X447780Y3910560D01*
X446100Y3911760D01*
X444320Y3912679D01*
X442420Y3913320D01*
X440420Y3913680D01*
X438300Y3913800D01*
X435700Y3913620D01*
X433220Y3913080D01*
X430880Y3912200D01*
X428720Y3910980D01*
X426719Y3909480D01*
X424900Y3907679D01*
X423280Y3905620D01*
X421900Y3903300D01*
X422780Y3898320D01*
X424020Y3893580D01*
X424760Y3891300D01*
X426520Y3886960D01*
X428600Y3882860D01*
X429739Y3880920D01*
X432280Y3877200D01*
X435080Y3873740D01*
X438160Y3870539D01*
X441480Y3867600D01*
X445060Y3864920D01*
X448840Y3862480D01*
X452819Y3860299D01*
X456980Y3858380D01*
X461340Y3856720D01*
X465840Y3855299D01*
X470460Y3854160D01*
X475240Y3853260D01*
X480100Y3852620D01*
X485060Y3852220D01*
X490100Y3852100D01*
X495900Y3852260D01*
X501420Y3852700D01*
X506640Y3853440D01*
X511560Y3854480D01*
X516200Y3855779D01*
X518420Y3856520D01*
X522620Y3858220D01*
X526540Y3860179D01*
X530180Y3862380D01*
X533560Y3864820D01*
X536640Y3867500D01*
X539460Y3870400D01*
X542020Y3873519D01*
X544300Y3876840D01*
X546320Y3880360D01*
X548080Y3884060D01*
X549580Y3887960D01*
X550820Y3892020D01*
X551800Y3896259D01*
X552540Y3900659D01*
X553020Y3905220D01*
X553260Y3909900D01*
X553280Y3913980D01*
X553120Y3917320D01*
X552800Y3920600D01*
X552320Y3923840D01*
X551660Y3927080D01*
X550820Y3930299D01*
X549800Y3933519D01*
X548600Y3936760D01*
X547180Y3940020D01*
X545580Y3943340D01*
X543760Y3946720D01*
X541740Y3950160D01*
X539500Y3953700D01*
X534340Y3961060D01*
X531400Y3964940D01*
X528240Y3968940D01*
X521160Y3977420D01*
X513040Y3986600D01*
X503860Y3996600D01*
X493579Y4007540D01*
X465900Y4036240D01*
X445100Y4057600D01*
X562900Y4057600D01*
X562900Y4084000D01*
G37*
G36*
X602300Y4084000D02*
G01*
X602300Y4073500D01*
X650699Y4066600D01*
X651140Y4036820D01*
X651300Y4017799D01*
X651300Y3879100D01*
X606000Y3883399D01*
X606000Y3871600D01*
X675800Y3853399D01*
X680400Y3856800D01*
X679200Y3905800D01*
X679240Y4023240D01*
X679380Y4039540D01*
X679800Y4066600D01*
X727500Y4073500D01*
X727500Y4084000D01*
G37*
G36*
X795699Y4084000D02*
G01*
X792600Y4080899D01*
X883199Y3883399D01*
X764100Y3883399D01*
X764100Y3856800D01*
X902099Y3856800D01*
X902099Y3873500D01*
X821800Y4084000D01*
G37*
G36*
X1418500Y4057000D02*
G01*
X1418500Y3980100D01*
X1347200Y3980100D01*
X1347200Y3963700D01*
X1418500Y3963700D01*
X1418500Y3888399D01*
X1436200Y3888399D01*
X1436200Y3963700D01*
X1507200Y3963700D01*
X1507200Y3980100D01*
X1436200Y3980100D01*
X1436200Y4057000D01*
G37*
G36*
X234600Y4008700D02*
G01*
X234600Y3988800D01*
X313700Y3988800D01*
X313700Y4008700D01*
G37*
G36*
X3213300Y3050800D02*
G01*
X3213300Y2951400D01*
X3238200Y2951400D01*
X3238200Y3050800D01*
G37*
G36*
X3206700Y655100D02*
G01*
X3206700Y565400D01*
X3111900Y565400D01*
X3111900Y543200D01*
X3206700Y543200D01*
X3206700Y453900D01*
X3227300Y453900D01*
X3227300Y543200D01*
X3324100Y543200D01*
X3324100Y565400D01*
X3227300Y565400D01*
X3227300Y655100D01*
G37*
G36*
X3237799Y2354400D02*
G01*
X3237799Y2275300D01*
X3257700Y2275300D01*
X3257700Y2354400D01*
G37*
G36*
X3152300Y2167100D02*
G01*
X3147320Y2166220D01*
X3142580Y2164980D01*
X3140299Y2164240D01*
X3135960Y2162480D01*
X3131860Y2160400D01*
X3129920Y2159260D01*
X3126200Y2156720D01*
X3122740Y2153920D01*
X3119540Y2150840D01*
X3116600Y2147520D01*
X3113920Y2143940D01*
X3111480Y2140160D01*
X3109300Y2136180D01*
X3107380Y2132020D01*
X3105720Y2127660D01*
X3104300Y2123160D01*
X3103159Y2118540D01*
X3102260Y2113760D01*
X3101620Y2108900D01*
X3101220Y2103940D01*
X3101100Y2098900D01*
X3101259Y2093100D01*
X3101700Y2087580D01*
X3102440Y2082360D01*
X3103480Y2077440D01*
X3104780Y2072800D01*
X3105520Y2070580D01*
X3107220Y2066380D01*
X3109180Y2062460D01*
X3111380Y2058820D01*
X3113820Y2055440D01*
X3116500Y2052360D01*
X3119400Y2049540D01*
X3122520Y2046980D01*
X3125840Y2044700D01*
X3129360Y2042680D01*
X3133060Y2040920D01*
X3136960Y2039420D01*
X3141019Y2038180D01*
X3145260Y2037200D01*
X3149660Y2036459D01*
X3154220Y2035980D01*
X3158900Y2035740D01*
X3162980Y2035720D01*
X3166320Y2035880D01*
X3169600Y2036200D01*
X3172840Y2036680D01*
X3176080Y2037340D01*
X3179300Y2038180D01*
X3182520Y2039199D01*
X3185760Y2040400D01*
X3189020Y2041819D01*
X3192340Y2043420D01*
X3195720Y2045240D01*
X3199160Y2047260D01*
X3202700Y2049500D01*
X3210059Y2054660D01*
X3213940Y2057600D01*
X3217940Y2060760D01*
X3226420Y2067840D01*
X3235600Y2075960D01*
X3245600Y2085140D01*
X3256540Y2095420D01*
X3285240Y2123100D01*
X3306600Y2143900D01*
X3306600Y2026100D01*
X3333000Y2026100D01*
X3333000Y2165600D01*
X3311900Y2165600D01*
X3286980Y2143400D01*
X3253600Y2114100D01*
X3243580Y2105480D01*
X3234100Y2097740D01*
X3229540Y2094180D01*
X3225100Y2090840D01*
X3220760Y2087720D01*
X3216500Y2084800D01*
X3212340Y2082100D01*
X3208260Y2079600D01*
X3204260Y2077300D01*
X3200320Y2075220D01*
X3196440Y2073340D01*
X3192600Y2071660D01*
X3188820Y2070180D01*
X3185059Y2068899D01*
X3181320Y2067820D01*
X3177620Y2066960D01*
X3173920Y2066279D01*
X3170220Y2065780D01*
X3166520Y2065500D01*
X3162799Y2065400D01*
X3160100Y2065440D01*
X3157460Y2065580D01*
X3152360Y2066140D01*
X3147520Y2067060D01*
X3142960Y2068320D01*
X3140779Y2069079D01*
X3136660Y2070860D01*
X3134700Y2071860D01*
X3131019Y2074120D01*
X3127679Y2076680D01*
X3126139Y2078060D01*
X3124680Y2079540D01*
X3123320Y2081060D01*
X3122040Y2082680D01*
X3119760Y2086100D01*
X3118759Y2087900D01*
X3117080Y2091720D01*
X3116380Y2093720D01*
X3115779Y2095800D01*
X3115280Y2097920D01*
X3114900Y2100100D01*
X3114620Y2102340D01*
X3114460Y2104640D01*
X3114440Y2108900D01*
X3114700Y2113040D01*
X3115240Y2117640D01*
X3116600Y2125300D01*
X3145140Y2133140D01*
X3148480Y2134260D01*
X3151400Y2135480D01*
X3153980Y2136760D01*
X3156180Y2138160D01*
X3158020Y2139640D01*
X3159560Y2141220D01*
X3160760Y2142900D01*
X3161680Y2144680D01*
X3162320Y2146580D01*
X3162679Y2148580D01*
X3162799Y2150700D01*
X3162620Y2153300D01*
X3162080Y2155780D01*
X3161200Y2158120D01*
X3159980Y2160280D01*
X3158480Y2162280D01*
X3156680Y2164100D01*
X3154620Y2165720D01*
G37*
G36*
X3322500Y1986699D02*
G01*
X3315600Y1938300D01*
X3285820Y1937860D01*
X3266800Y1937700D01*
X3128100Y1937700D01*
X3132400Y1983000D01*
X3120600Y1983000D01*
X3102400Y1913200D01*
X3105800Y1908600D01*
X3154800Y1909800D01*
X3272240Y1909760D01*
X3288540Y1909620D01*
X3315600Y1909199D01*
X3322500Y1861500D01*
X3333000Y1861500D01*
X3333000Y1986699D01*
G37*
G36*
X3105800Y1824900D02*
G01*
X3105800Y1686900D01*
X3122500Y1686900D01*
X3333000Y1767200D01*
X3333000Y1793300D01*
X3329900Y1796399D01*
X3132400Y1705800D01*
X3132400Y1824900D01*
G37*
G36*
X3217700Y1657800D02*
G01*
X3210340Y1657720D01*
X3203240Y1657440D01*
X3196440Y1657000D01*
X3189880Y1656399D01*
X3183600Y1655640D01*
X3177559Y1654720D01*
X3171800Y1653640D01*
X3166280Y1652420D01*
X3161019Y1651060D01*
X3156000Y1649560D01*
X3151240Y1647940D01*
X3146700Y1646180D01*
X3142400Y1644319D01*
X3138340Y1642320D01*
X3134500Y1640240D01*
X3130899Y1638020D01*
X3127520Y1635720D01*
X3124360Y1633320D01*
X3121420Y1630840D01*
X3118700Y1628260D01*
X3116180Y1625620D01*
X3113860Y1622880D01*
X3111760Y1620100D01*
X3109860Y1617220D01*
X3108140Y1614300D01*
X3106640Y1611339D01*
X3105299Y1608320D01*
X3104180Y1605240D01*
X3103220Y1602140D01*
X3102440Y1599000D01*
X3101860Y1595820D01*
X3101440Y1592640D01*
X3101180Y1589420D01*
X3101100Y1586200D01*
X3114800Y1586200D01*
X3114900Y1588700D01*
X3115200Y1591160D01*
X3115720Y1593600D01*
X3116460Y1596020D01*
X3117440Y1598380D01*
X3118700Y1600700D01*
X3120200Y1602960D01*
X3122000Y1605160D01*
X3124100Y1607300D01*
X3126500Y1609379D01*
X3129220Y1611360D01*
X3132280Y1613280D01*
X3135680Y1615080D01*
X3139460Y1616800D01*
X3143600Y1618420D01*
X3148140Y1619940D01*
X3153060Y1621320D01*
X3158420Y1622600D01*
X3164180Y1623740D01*
X3170400Y1624760D01*
X3177080Y1625640D01*
X3184220Y1626360D01*
X3191820Y1626940D01*
X3199940Y1627360D01*
X3208560Y1627620D01*
X3217700Y1627700D01*
X3226520Y1627620D01*
X3234880Y1627400D01*
X3242780Y1627040D01*
X3250240Y1626540D01*
X3257260Y1625900D01*
X3263860Y1625140D01*
X3270040Y1624259D01*
X3275840Y1623260D01*
X3281220Y1622160D01*
X3286240Y1620940D01*
X3290880Y1619620D01*
X3295179Y1618200D01*
X3299120Y1616680D01*
X3302720Y1615080D01*
X3306000Y1613400D01*
X3308980Y1611639D01*
X3311660Y1609800D01*
X3314040Y1607900D01*
X3316139Y1605940D01*
X3317960Y1603920D01*
X3319540Y1601840D01*
X3320860Y1599720D01*
X3321960Y1597540D01*
X3322840Y1595340D01*
X3323500Y1593080D01*
X3323940Y1590820D01*
X3324220Y1588520D01*
X3324300Y1586200D01*
X3324200Y1583800D01*
X3323880Y1581440D01*
X3323340Y1579079D01*
X3322580Y1576759D01*
X3320940Y1573340D01*
X3319500Y1571120D01*
X3317780Y1568959D01*
X3315760Y1566860D01*
X3313440Y1564800D01*
X3310779Y1562840D01*
X3307780Y1560940D01*
X3304420Y1559120D01*
X3300700Y1557400D01*
X3296600Y1555760D01*
X3292120Y1554240D01*
X3287220Y1552820D01*
X3281880Y1551519D01*
X3276120Y1550340D01*
X3269920Y1549280D01*
X3263260Y1548340D01*
X3256100Y1547560D01*
X3248480Y1546920D01*
X3240340Y1546420D01*
X3231680Y1546100D01*
X3222500Y1545920D01*
X3213060Y1545920D01*
X3204180Y1546100D01*
X3195820Y1546420D01*
X3187960Y1546920D01*
X3180580Y1547560D01*
X3173680Y1548340D01*
X3167240Y1549280D01*
X3161240Y1550340D01*
X3155680Y1551519D01*
X3150539Y1552820D01*
X3145820Y1554240D01*
X3141480Y1555760D01*
X3137520Y1557400D01*
X3133940Y1559120D01*
X3130700Y1560940D01*
X3127820Y1562840D01*
X3125260Y1564800D01*
X3123020Y1566860D01*
X3121080Y1568959D01*
X3119420Y1571120D01*
X3118039Y1573340D01*
X3116920Y1575620D01*
X3116060Y1577920D01*
X3115419Y1580260D01*
X3115020Y1582620D01*
X3114820Y1585000D01*
X3114800Y1586200D01*
X3101100Y1586200D01*
X3101180Y1583060D01*
X3101440Y1579920D01*
X3101860Y1576780D01*
X3102440Y1573680D01*
X3103220Y1570600D01*
X3104180Y1567560D01*
X3105299Y1564540D01*
X3106640Y1561560D01*
X3108140Y1558640D01*
X3109860Y1555760D01*
X3111760Y1552940D01*
X3113860Y1550160D01*
X3116180Y1547480D01*
X3118700Y1544860D01*
X3121420Y1542300D01*
X3124360Y1539840D01*
X3127520Y1537460D01*
X3130899Y1535180D01*
X3134500Y1533000D01*
X3138340Y1530900D01*
X3142400Y1528940D01*
X3146700Y1527080D01*
X3151240Y1525320D01*
X3156000Y1523720D01*
X3161019Y1522220D01*
X3166280Y1520860D01*
X3171800Y1519660D01*
X3177559Y1518580D01*
X3183600Y1517660D01*
X3189880Y1516900D01*
X3196440Y1516300D01*
X3203240Y1515860D01*
X3210340Y1515580D01*
X3217700Y1515500D01*
X3225299Y1515580D01*
X3232600Y1515860D01*
X3239620Y1516300D01*
X3246380Y1516900D01*
X3252840Y1517660D01*
X3259040Y1518580D01*
X3264980Y1519660D01*
X3270640Y1520860D01*
X3276060Y1522220D01*
X3281200Y1523720D01*
X3286100Y1525320D01*
X3290760Y1527080D01*
X3295160Y1528940D01*
X3299320Y1530900D01*
X3303240Y1533000D01*
X3306940Y1535180D01*
X3310380Y1537460D01*
X3313620Y1539840D01*
X3316620Y1542300D01*
X3319400Y1544860D01*
X3321980Y1547480D01*
X3324320Y1550160D01*
X3326480Y1552940D01*
X3328420Y1555760D01*
X3330160Y1558640D01*
X3331700Y1561560D01*
X3333039Y1564540D01*
X3334180Y1567560D01*
X3335160Y1570600D01*
X3335940Y1573680D01*
X3336540Y1576780D01*
X3336960Y1579920D01*
X3337220Y1583060D01*
X3337300Y1586200D01*
X3337220Y1589420D01*
X3336960Y1592640D01*
X3336540Y1595820D01*
X3335940Y1599000D01*
X3335160Y1602140D01*
X3334180Y1605240D01*
X3333039Y1608320D01*
X3331700Y1611339D01*
X3330160Y1614300D01*
X3328420Y1617220D01*
X3326480Y1620100D01*
X3324320Y1622880D01*
X3321980Y1625620D01*
X3319400Y1628260D01*
X3316620Y1630840D01*
X3313620Y1633320D01*
X3310380Y1635720D01*
X3306940Y1638020D01*
X3303240Y1640240D01*
X3299320Y1642320D01*
X3295160Y1644319D01*
X3290760Y1646180D01*
X3286100Y1647940D01*
X3281200Y1649560D01*
X3276060Y1651060D01*
X3270640Y1652420D01*
X3264980Y1653640D01*
X3259040Y1654720D01*
X3252840Y1655640D01*
X3246380Y1656399D01*
X3239620Y1657000D01*
X3232600Y1657440D01*
X3225299Y1657720D01*
G37*
G36*
X3217700Y1487600D02*
G01*
X3210340Y1487520D01*
X3203240Y1487240D01*
X3196440Y1486800D01*
X3189880Y1486200D01*
X3183600Y1485440D01*
X3177559Y1484520D01*
X3171800Y1483440D01*
X3166280Y1482220D01*
X3161019Y1480860D01*
X3156000Y1479360D01*
X3151240Y1477740D01*
X3146700Y1475980D01*
X3142400Y1474120D01*
X3138340Y1472120D01*
X3134500Y1470040D01*
X3130899Y1467820D01*
X3127520Y1465520D01*
X3124360Y1463120D01*
X3121420Y1460640D01*
X3118700Y1458060D01*
X3116180Y1455420D01*
X3113860Y1452680D01*
X3111760Y1449900D01*
X3109860Y1447020D01*
X3108140Y1444100D01*
X3106640Y1441140D01*
X3105299Y1438120D01*
X3104180Y1435040D01*
X3103220Y1431940D01*
X3102440Y1428800D01*
X3101860Y1425620D01*
X3101440Y1422440D01*
X3101180Y1419220D01*
X3101100Y1416000D01*
X3114800Y1416000D01*
X3114900Y1418500D01*
X3115200Y1420960D01*
X3115720Y1423400D01*
X3116460Y1425820D01*
X3117440Y1428180D01*
X3118700Y1430500D01*
X3120200Y1432760D01*
X3122000Y1434960D01*
X3124100Y1437100D01*
X3126500Y1439180D01*
X3129220Y1441160D01*
X3132280Y1443080D01*
X3135680Y1444880D01*
X3139460Y1446600D01*
X3143600Y1448220D01*
X3148140Y1449740D01*
X3153060Y1451120D01*
X3158420Y1452400D01*
X3164180Y1453540D01*
X3170400Y1454560D01*
X3177080Y1455440D01*
X3184220Y1456160D01*
X3191820Y1456740D01*
X3199940Y1457160D01*
X3208560Y1457420D01*
X3217700Y1457500D01*
X3226520Y1457420D01*
X3234880Y1457200D01*
X3242780Y1456840D01*
X3250240Y1456339D01*
X3257260Y1455700D01*
X3263860Y1454940D01*
X3270040Y1454060D01*
X3275840Y1453060D01*
X3281220Y1451960D01*
X3286240Y1450740D01*
X3290880Y1449420D01*
X3295179Y1448000D01*
X3299120Y1446480D01*
X3302720Y1444880D01*
X3306000Y1443200D01*
X3308980Y1441440D01*
X3311660Y1439600D01*
X3314040Y1437700D01*
X3316139Y1435740D01*
X3317960Y1433720D01*
X3319540Y1431639D01*
X3320860Y1429520D01*
X3321960Y1427340D01*
X3322840Y1425140D01*
X3323500Y1422880D01*
X3323940Y1420620D01*
X3324220Y1418320D01*
X3324300Y1416000D01*
X3324200Y1413600D01*
X3323880Y1411240D01*
X3323340Y1408880D01*
X3322580Y1406560D01*
X3320940Y1403140D01*
X3319500Y1400920D01*
X3317780Y1398760D01*
X3315760Y1396660D01*
X3313440Y1394600D01*
X3310779Y1392640D01*
X3307780Y1390740D01*
X3304420Y1388920D01*
X3300700Y1387200D01*
X3296600Y1385560D01*
X3292120Y1384040D01*
X3287220Y1382620D01*
X3281880Y1381320D01*
X3276120Y1380140D01*
X3269920Y1379079D01*
X3263260Y1378140D01*
X3256100Y1377360D01*
X3248480Y1376720D01*
X3240340Y1376220D01*
X3231680Y1375900D01*
X3222500Y1375720D01*
X3213060Y1375720D01*
X3204180Y1375900D01*
X3195820Y1376220D01*
X3187960Y1376720D01*
X3180580Y1377360D01*
X3173680Y1378140D01*
X3167240Y1379079D01*
X3161240Y1380140D01*
X3155680Y1381320D01*
X3150539Y1382620D01*
X3145820Y1384040D01*
X3141480Y1385560D01*
X3137520Y1387200D01*
X3133940Y1388920D01*
X3130700Y1390740D01*
X3127820Y1392640D01*
X3125260Y1394600D01*
X3123020Y1396660D01*
X3121080Y1398760D01*
X3119420Y1400920D01*
X3118039Y1403140D01*
X3116920Y1405420D01*
X3116060Y1407720D01*
X3115419Y1410060D01*
X3115020Y1412420D01*
X3114820Y1414800D01*
X3114800Y1416000D01*
X3101100Y1416000D01*
X3101180Y1412860D01*
X3101440Y1409720D01*
X3101860Y1406579D01*
X3102440Y1403480D01*
X3103220Y1400400D01*
X3104180Y1397360D01*
X3105299Y1394340D01*
X3106640Y1391360D01*
X3108140Y1388440D01*
X3109860Y1385560D01*
X3111760Y1382740D01*
X3113860Y1379960D01*
X3116180Y1377280D01*
X3118700Y1374660D01*
X3121420Y1372100D01*
X3124360Y1369640D01*
X3127520Y1367260D01*
X3130899Y1364980D01*
X3134500Y1362800D01*
X3138340Y1360700D01*
X3142400Y1358740D01*
X3146700Y1356879D01*
X3151240Y1355120D01*
X3156000Y1353520D01*
X3161019Y1352020D01*
X3166280Y1350660D01*
X3171800Y1349460D01*
X3177559Y1348380D01*
X3183600Y1347460D01*
X3189880Y1346699D01*
X3196440Y1346100D01*
X3203240Y1345660D01*
X3210340Y1345380D01*
X3217700Y1345300D01*
X3225299Y1345380D01*
X3232600Y1345660D01*
X3239620Y1346100D01*
X3246380Y1346699D01*
X3252840Y1347460D01*
X3259040Y1348380D01*
X3264980Y1349460D01*
X3270640Y1350660D01*
X3276060Y1352020D01*
X3281200Y1353520D01*
X3286100Y1355120D01*
X3290760Y1356879D01*
X3295160Y1358740D01*
X3299320Y1360700D01*
X3303240Y1362800D01*
X3306940Y1364980D01*
X3310380Y1367260D01*
X3313620Y1369640D01*
X3316620Y1372100D01*
X3319400Y1374660D01*
X3321980Y1377280D01*
X3324320Y1379960D01*
X3326480Y1382740D01*
X3328420Y1385560D01*
X3330160Y1388440D01*
X3331700Y1391360D01*
X3333039Y1394340D01*
X3334180Y1397360D01*
X3335160Y1400400D01*
X3335940Y1403480D01*
X3336540Y1406579D01*
X3336960Y1409720D01*
X3337220Y1412860D01*
X3337300Y1416000D01*
X3337220Y1419220D01*
X3336960Y1422440D01*
X3336540Y1425620D01*
X3335940Y1428800D01*
X3335160Y1431940D01*
X3334180Y1435040D01*
X3333039Y1438120D01*
X3331700Y1441140D01*
X3330160Y1444100D01*
X3328420Y1447020D01*
X3326480Y1449900D01*
X3324320Y1452680D01*
X3321980Y1455420D01*
X3319400Y1458060D01*
X3316620Y1460640D01*
X3313620Y1463120D01*
X3310380Y1465520D01*
X3306940Y1467820D01*
X3303240Y1470040D01*
X3299320Y1472120D01*
X3295160Y1474120D01*
X3290760Y1475980D01*
X3286100Y1477740D01*
X3281200Y1479360D01*
X3276060Y1480860D01*
X3270640Y1482220D01*
X3264980Y1483440D01*
X3259040Y1484520D01*
X3252840Y1485440D01*
X3246380Y1486200D01*
X3239620Y1486800D01*
X3232600Y1487240D01*
X3225299Y1487520D01*
G37*
G36*
X3212700Y1241800D02*
G01*
X3212700Y1170500D01*
X3137400Y1170500D01*
X3137400Y1152800D01*
X3212700Y1152800D01*
X3212700Y1081800D01*
X3229100Y1081800D01*
X3229100Y1152800D01*
X3306000Y1152800D01*
X3306000Y1170500D01*
X3229100Y1170500D01*
X3229100Y1241800D01*
G37*
D10*
X3518364Y4194545D02*
G01*
X3518364Y4198182D01*
X3514727Y4205455D01*
X3511091Y4209091D01*
X3503818Y4212727D01*
X3489273Y4212727D01*
X3482000Y4209091D01*
X3478364Y4205455D01*
X3474727Y4198182D01*
X3474727Y4190909D01*
X3478364Y4183636D01*
X3485636Y4172727D01*
X3522000Y4136364D01*
X3471091Y4136364D01*
X3447091Y4198182D02*
G01*
X3439818Y4201818D01*
X3428909Y4212727D01*
X3428909Y4136364D01*
X3354000Y4212727D02*
G01*
X3390364Y4136364D01*
X3404909Y4212727D02*
G01*
X3354000Y4212727D01*
X3308182Y4212727D02*
G01*
X3319091Y4209091D01*
X3326364Y4198182D01*
X3330000Y4180000D01*
X3330000Y4169091D01*
X3326364Y4150909D01*
X3319091Y4140000D01*
X3308182Y4136364D01*
X3300909Y4136364D01*
X3290000Y4140000D01*
X3282727Y4150909D01*
X3279091Y4169091D01*
X3279091Y4180000D01*
X3282727Y4198182D01*
X3290000Y4209091D01*
X3300909Y4212727D01*
X3308182Y4212727D01*
X3233273Y4212727D02*
G01*
X3244182Y4209091D01*
X3251455Y4198182D01*
X3255091Y4180000D01*
X3255091Y4169091D01*
X3251455Y4150909D01*
X3244182Y4140000D01*
X3233273Y4136364D01*
X3226000Y4136364D01*
X3215091Y4140000D01*
X3207818Y4150909D01*
X3204182Y4169091D01*
X3204182Y4180000D01*
X3207818Y4198182D01*
X3215091Y4209091D01*
X3226000Y4212727D01*
X3233273Y4212727D01*
D11*
X2579636Y4359909D02*
G01*
X2579636Y4237182D01*
X2641000Y4298545D02*
G01*
X2518273Y4298545D01*
D12*
X3947091Y627273D02*
G01*
X3947091Y545455D01*
X3988000Y586364D02*
G01*
X3906182Y586364D01*
D10*
X3606960Y4427700D02*
G01*
X3606960Y4351400D01*
X3606960Y4427700D02*
G01*
X3577860Y4351400D01*
X3548860Y4427700D02*
G01*
X3577860Y4351400D01*
X3548860Y4427700D02*
G01*
X3548860Y4351400D01*
X3488460Y4427700D02*
G01*
X3524860Y4376800D01*
X3470260Y4376800D01*
X3488460Y4427700D02*
G01*
X3488460Y4351400D01*
X3364860Y4442300D02*
G01*
X3372060Y4435000D01*
X3379360Y4424100D01*
X3386660Y4409500D01*
X3390260Y4391400D01*
X3390260Y4376800D01*
X3386660Y4358600D01*
X3379360Y4344100D01*
X3372060Y4333200D01*
X3364860Y4325900D01*
X3333560Y4427700D02*
G01*
X3293560Y4427700D01*
X3315360Y4398600D01*
X3304460Y4398600D01*
X3297160Y4395000D01*
X3293560Y4391400D01*
X3289860Y4380500D01*
X3289860Y4373200D01*
X3293560Y4362300D01*
X3300860Y4355000D01*
X3311760Y4351400D01*
X3322660Y4351400D01*
X3333560Y4355000D01*
X3337160Y4358600D01*
X3340860Y4365900D01*
X3262260Y4369500D02*
G01*
X3265860Y4365900D01*
X3262260Y4362300D01*
X3258660Y4365900D01*
X3262260Y4369500D01*
X3227360Y4427700D02*
G01*
X3187360Y4427700D01*
X3209160Y4398600D01*
X3198260Y4398600D01*
X3190960Y4395000D01*
X3187360Y4391400D01*
X3183760Y4380500D01*
X3183760Y4373200D01*
X3187360Y4362300D01*
X3194660Y4355000D01*
X3205560Y4351400D01*
X3216460Y4351400D01*
X3227360Y4355000D01*
X3230960Y4358600D01*
X3234660Y4365900D01*
X3159760Y4402300D02*
G01*
X3159760Y4351400D01*
X3159760Y4387700D02*
G01*
X3148860Y4398600D01*
X3141560Y4402300D01*
X3130660Y4402300D01*
X3123360Y4398600D01*
X3119760Y4387700D01*
X3119760Y4351400D01*
X3119760Y4387700D02*
G01*
X3108860Y4398600D01*
X3101560Y4402300D01*
X3090660Y4402300D01*
X3083360Y4398600D01*
X3079760Y4387700D01*
X3079760Y4351400D01*
X3055760Y4402300D02*
G01*
X3055760Y4351400D01*
X3055760Y4387700D02*
G01*
X3044860Y4398600D01*
X3037560Y4402300D01*
X3026660Y4402300D01*
X3019360Y4398600D01*
X3015760Y4387700D01*
X3015760Y4351400D01*
X3015760Y4387700D02*
G01*
X3004860Y4398600D01*
X2997560Y4402300D01*
X2986660Y4402300D01*
X2979360Y4398600D01*
X2975760Y4387700D01*
X2975760Y4351400D01*
X2951760Y4442300D02*
G01*
X2944460Y4435000D01*
X2937160Y4424100D01*
X2929860Y4409500D01*
X2926260Y4391400D01*
X2926260Y4376800D01*
X2929860Y4358600D01*
X2937160Y4344100D01*
X2944460Y4333200D01*
X2951760Y4325900D01*
D11*
X2577636Y2324985D02*
G01*
X2577636Y2202258D01*
X2639000Y2263621D02*
G01*
X2516273Y2263621D01*
X2639000Y1263012D02*
G01*
X2516273Y1263012D01*
X-1176999Y3969455D02*
G01*
X-1054272Y3969455D01*
X2638000Y3275118D02*
G01*
X2515273Y3275118D01*
X3528384Y3568000D02*
G01*
X3528384Y3445273D01*
X3603766Y9364D02*
G01*
X3481039Y9364D01*
X3542402Y-51999D02*
G01*
X3542402Y70727D01*
X-1118635Y2890841D02*
G01*
X-1118635Y3013568D01*
X-1179999Y2952205D02*
G01*
X-1057272Y2952205D01*
X-1178999Y1934455D02*
G01*
X-1056272Y1934455D01*
X-1117635Y862841D02*
G01*
X-1117635Y985568D01*
X-1178999Y924205D02*
G01*
X-1056272Y924205D01*
D12*
X3948636Y832000D02*
G01*
X3948636Y750181D01*
D10*
X2369000Y1258000D02*
G01*
X2240200Y1258000D01*
X-495399Y667400D02*
G01*
X-495399Y538600D01*
X-430999Y603000D02*
G01*
X-559799Y603000D01*
X-710999Y1601000D02*
G01*
X-582199Y1601000D01*
X2153400Y2191600D02*
G01*
X2153400Y2320399D01*
X2089000Y2256000D02*
G01*
X2217800Y2256000D01*
X2368000Y3286000D02*
G01*
X2239200Y3286000D01*
X-496399Y2695399D02*
G01*
X-496399Y2566600D01*
X-431999Y2631000D02*
G01*
X-560799Y2631000D01*
X-708999Y3636000D02*
G01*
X-580199Y3636000D01*
X2155400Y4226600D02*
G01*
X2155400Y4355400D01*
X2091000Y4291000D02*
G01*
X2219800Y4291000D01*
X2885000Y3298000D02*
G01*
X2885000Y3169200D01*
X3475600Y433600D02*
G01*
X3604400Y433600D01*
X3540000Y498000D02*
G01*
X3540000Y369200D01*
D13*
X2443173Y1082480D02*
G01*
X-785172Y1082480D01*
X-785172Y767520D01*
X2443173Y767520D01*
X2443173Y1082480D01*
X2403803Y1397441D02*
G01*
X-745802Y1397441D01*
X-785172Y1358071D01*
X-785172Y491929D01*
X-745802Y452559D01*
X2403803Y452559D01*
X2443173Y491929D01*
X2443173Y1358071D01*
X2403803Y1397441D01*
X-785172Y1776520D02*
G01*
X2443173Y1776520D01*
X2443173Y2091480D01*
X-785172Y2091480D01*
X-785172Y1776520D01*
X-745802Y1461559D02*
G01*
X2403803Y1461559D01*
X2443173Y1500929D01*
X2443173Y2367071D01*
X2403803Y2406441D01*
X-745802Y2406441D01*
X-785172Y2367071D01*
X-785172Y1500929D01*
X-745802Y1461559D01*
X2442173Y3110480D02*
G01*
X-786172Y3110480D01*
X-786172Y2795520D01*
X2442173Y2795520D01*
X2442173Y3110480D01*
X2402803Y3425441D02*
G01*
X-746802Y3425441D01*
X-786172Y3386071D01*
X-786172Y2519929D01*
X-746802Y2480559D01*
X2402803Y2480559D01*
X2442173Y2519929D01*
X2442173Y3386071D01*
X2402803Y3425441D01*
X-783172Y3811520D02*
G01*
X2445173Y3811520D01*
X2445173Y4126480D01*
X-783172Y4126480D01*
X-783172Y3811520D01*
X-743802Y3496559D02*
G01*
X2405803Y3496559D01*
X2445173Y3535929D01*
X2445173Y4402071D01*
X2405803Y4441441D01*
X-743802Y4441441D01*
X-783172Y4402071D01*
X-783172Y3535929D01*
X-743802Y3496559D01*
X3060520Y3372173D02*
G01*
X3060520Y143827D01*
X3375480Y143827D01*
X3375480Y3372173D01*
X3060520Y3372173D01*
X2745559Y3332803D02*
G01*
X2745559Y183197D01*
X2784929Y143827D01*
X3651071Y143827D01*
X3690441Y183197D01*
X3690441Y3332803D01*
X3651071Y3372173D01*
X2784929Y3372173D01*
X2745559Y3332803D01*
M02*
