G04 Layer: TopLayer*
G04 EasyEDA v6.5.22, 2023-02-22 15:15:05*
G04 640daacfa6c848ee808a15bd8ce7c787,ef4dac4c239f4a7f90591e71bd1ece2f,10*
G04 Gerber Generator version 0.2*
G04 Scale: 100 percent, Rotated: No, Reflected: No *
G04 Dimensions in inches *
G04 leading zeros omitted , absolute positions ,3 integer and 6 decimal *
%FSLAX36Y36*%
%MOIN*%

%ADD10C,0.2000*%
%ADD11C,0.0900*%
%ADD12C,0.0100*%
%ADD13C,0.0650*%
%ADD14C,0.0210*%
%ADD15C,0.0120*%
%ADD16R,0.2000X0.3000*%
%ADD17C,0.0630*%
%ADD18R,0.0709X0.0630*%
%ADD19R,0.0630X0.0630*%
%ADD20C,0.0945*%
%ADD21C,0.1772*%

%LPD*%
D10*
X2966500Y2897000D02*
G01*
X2968500Y2895000D01*
X2968500Y1985000D01*
D11*
X-41001Y380997D02*
G01*
X-41001Y577000D01*
D10*
X-284499Y1985000D02*
G01*
X-284499Y1594500D01*
X-42999Y1353000D01*
X-41001Y536397D01*
D12*
X-696959Y-192999D02*
G01*
X-436959Y-452999D01*
X798040Y-452999D01*
X959040Y-613999D01*
X-596959Y-192999D02*
G01*
X-398959Y-390999D01*
X836040Y-390999D01*
X1059040Y-613999D01*
D13*
X-285459Y2897000D02*
G01*
X-76959Y2897000D01*
X459040Y2361000D01*
X459040Y381000D01*
D12*
X-496959Y-192999D02*
G01*
X-362959Y-326999D01*
X872040Y-326999D01*
X1159040Y-613999D01*
X-796959Y-192999D02*
G01*
X-711959Y-107999D01*
X-427959Y-107999D01*
X-267959Y-267999D01*
X1313040Y-267999D01*
X1659040Y-613999D01*
D14*
X1759040Y381000D02*
G01*
X1759040Y243000D01*
X1688040Y172000D01*
X-631959Y172000D01*
X-996959Y-192999D01*
D12*
X-896959Y-192999D02*
G01*
X-579959Y-510000D01*
X755040Y-510000D01*
X859040Y-613999D01*
X3796040Y1185000D02*
G01*
X1316040Y1185000D01*
X1059040Y928000D01*
X1059040Y381000D01*
X1158998Y380997D02*
G01*
X1158998Y751998D01*
X1389000Y982000D01*
X3793000Y982000D01*
X3796000Y985000D01*
D15*
X1159000Y-613999D02*
G01*
X1214000Y-668999D01*
X1704000Y-668999D01*
X1759000Y-613999D01*
D16*
G01*
X2968500Y1985000D03*
G01*
X-284499Y1985000D03*
G01*
X-285499Y2897000D03*
G01*
X2967500Y2897000D03*
D17*
G01*
X-496999Y-192999D03*
G01*
X-596999Y-192999D03*
G01*
X-696999Y-192999D03*
G01*
X-796999Y-192999D03*
G01*
X-896999Y-192999D03*
D18*
G01*
X-996999Y-192999D03*
D17*
G01*
X-40999Y381000D03*
G01*
X59000Y381000D03*
G01*
X159000Y381000D03*
G01*
X259000Y381000D03*
G01*
X359000Y381000D03*
G01*
X459000Y381000D03*
G01*
X559000Y381000D03*
G01*
X659000Y381000D03*
G01*
X759000Y381000D03*
G01*
X859000Y381000D03*
G01*
X959000Y381000D03*
G01*
X1059000Y381000D03*
G01*
X1159000Y381000D03*
G01*
X1259000Y381000D03*
G01*
X1359000Y381000D03*
G01*
X1459000Y381000D03*
G01*
X1559000Y381000D03*
G01*
X1659000Y381000D03*
D19*
G01*
X1759000Y381000D03*
D17*
G01*
X-40999Y-613999D03*
G01*
X59000Y-613999D03*
G01*
X159000Y-613999D03*
G01*
X259000Y-613999D03*
G01*
X359000Y-613999D03*
G01*
X459000Y-613999D03*
G01*
X559000Y-613999D03*
G01*
X659000Y-613999D03*
G01*
X759000Y-613999D03*
G01*
X859000Y-613999D03*
G01*
X959000Y-613999D03*
G01*
X1059000Y-613999D03*
G01*
X1159000Y-613999D03*
G01*
X1259000Y-613999D03*
G01*
X1359000Y-613999D03*
G01*
X1459000Y-613999D03*
G01*
X1559000Y-613999D03*
G01*
X1659000Y-613999D03*
D19*
G01*
X1759000Y-613999D03*
D20*
G01*
X3796000Y585000D03*
G01*
X3796000Y785000D03*
G01*
X3796000Y985000D03*
G01*
X3796000Y1185000D03*
D21*
G01*
X3778000Y4380000D03*
G01*
X-1013999Y4377000D03*
G01*
X-1012999Y-478999D03*
G01*
X3779000Y-476999D03*
M02*
