G04 Layer: BottomSolderMaskLayer*
G04 EasyEDA v6.5.23, 2023-05-27 13:46:53*
G04 ad855449ed234b6990cb81ca5ba1a863,ef4dac4c239f4a7f90591e71bd1ece2f,10*
G04 Gerber Generator version 0.2*
G04 Scale: 100 percent, Rotated: No, Reflected: No *
G04 Dimensions in inches *
G04 leading zeros omitted , absolute positions ,3 integer and 6 decimal *
%FSLAX36Y36*%
%MOIN*%

%AMMACRO1*4,1,28,-0.1525,-0.182,-0.1531,-0.1819,-0.1537,-0.1816,-0.1541,-0.1812,-0.1544,-0.1806,-0.1545,-0.18,-0.1545,-0.18,-0.1545,0.18,-0.1545,0.18,-0.1544,0.1806,-0.1541,0.1812,-0.1537,0.1816,-0.1531,0.1819,-0.1525,0.182,0.1525,0.182,0.1531,0.1819,0.1537,0.1816,0.1541,0.1812,0.1544,0.1806,0.1545,0.18,0.1545,0.18,0.1545,-0.18,0.1545,-0.18,0.1544,-0.1806,0.1541,-0.1812,0.1537,-0.1816,0.1531,-0.1819,0.1525,-0.182,-0.1525,-0.182,0*%
%AMMACRO2*4,1,30,-0.1525,-0.182,-0.1531,-0.1819,-0.1537,-0.1816,-0.1541,-0.1812,-0.1544,-0.1806,-0.1545,-0.18,-0.1545,-0.18,-0.1545,0.18,-0.1545,0.18,-0.1544,0.1806,-0.1541,0.1812,-0.1537,0.1816,-0.1531,0.1819,-0.1525,0.182,-0.1525,0.182,0.1525,0.177,0.1525,0.177,0.1531,0.1769,0.1537,0.1766,0.1541,0.1762,0.1544,0.1756,0.1545,0.175,0.1545,0.175,0.1545,-0.18,0.1545,-0.18,0.1544,-0.1806,0.1541,-0.1812,0.1537,-0.1816,0.1531,-0.1819,0.1525,-0.182,-0.1525,-0.182,0*%
%AMMACRO3*4,1,30,0.1524,-0.182,-0.1526,-0.177,-0.1525,-0.177,-0.1531,-0.1769,-0.1537,-0.1766,-0.1541,-0.1762,-0.1544,-0.1756,-0.1545,-0.175,-0.1545,-0.175,-0.1545,0.18,-0.1545,0.18,-0.1544,0.1806,-0.1541,0.1812,-0.1537,0.1816,-0.1531,0.1819,-0.1525,0.182,0.1525,0.182,0.1531,0.1819,0.1537,0.1816,0.1541,0.1812,0.1544,0.1806,0.1545,0.18,0.1545,0.18,0.1545,-0.18,0.1545,-0.18,0.1544,-0.1806,0.1541,-0.1812,0.1537,-0.1816,0.1531,-0.1819,0.1525,-0.182,0.1524,-0.182,0*%
%AMMACRO4*4,1,28,-0.18,-0.1545,-0.1806,-0.1544,-0.1812,-0.1541,-0.1816,-0.1537,-0.1819,-0.1531,-0.182,-0.1525,-0.182,-0.1525,-0.182,0.1525,-0.182,0.1525,-0.1819,0.1531,-0.1816,0.1537,-0.1812,0.1541,-0.1806,0.1544,-0.18,0.1545,0.18,0.1545,0.1806,0.1544,0.1812,0.1541,0.1816,0.1537,0.1819,0.1531,0.182,0.1525,0.182,0.1525,0.182,-0.1525,0.182,-0.1525,0.1819,-0.1531,0.1816,-0.1537,0.1812,-0.1541,0.1806,-0.1544,0.18,-0.1545,-0.18,-0.1545,0*%
%AMMACRO5*4,1,28,-0.18,-0.1545,-0.1806,-0.1544,-0.1812,-0.1541,-0.1816,-0.1537,-0.1819,-0.1531,-0.182,-0.1525,-0.182,-0.1525,-0.177,0.1525,-0.177,0.1525,-0.1769,0.1531,-0.1766,0.1537,-0.1762,0.1541,-0.1756,0.1544,-0.175,0.1545,0.18,0.1545,0.1806,0.1544,0.1812,0.1541,0.1816,0.1537,0.1819,0.1531,0.182,0.1525,0.182,0.1525,0.182,-0.1525,0.182,-0.1525,0.1819,-0.1531,0.1816,-0.1537,0.1812,-0.1541,0.1806,-0.1544,0.18,-0.1545,-0.18,-0.1545,0*%
%AMMACRO6*1,1,$1,$2,$3*1,1,$1,$4,$5*1,1,$1,0-$2,0-$3*1,1,$1,0-$4,0-$5*20,1,$1,$2,$3,$4,$5,0*20,1,$1,$4,$5,0-$2,0-$3,0*20,1,$1,0-$2,0-$3,0-$4,0-$5,0*20,1,$1,0-$4,0-$5,$2,$3,0*4,1,4,$2,$3,$4,$5,0-$2,0-$3,0-$4,0-$5,$2,$3,0*%
%ADD10MACRO1*%
%ADD11MACRO2*%
%ADD12MACRO3*%
%ADD13MACRO4*%
%ADD14MACRO5*%
%ADD15C,0.0670*%
%ADD16MACRO6,0.004X-0.0354X0.0315X0.0354X0.0315*%
%ADD17MACRO6,0.004X0.0315X-0.0315X-0.0315X-0.0315*%
%ADD18C,0.0985*%
%ADD19C,0.1812*%

%LPD*%
D10*
G01*
X2491520Y925000D03*
D11*
G01*
X-833479Y925000D03*
D10*
G01*
X-833479Y1934000D03*
D12*
G01*
X2491520Y1934000D03*
D10*
G01*
X2490520Y2953000D03*
D11*
G01*
X-834479Y2953000D03*
D10*
G01*
X-831479Y3969000D03*
D12*
G01*
X2493520Y3969000D03*
D13*
G01*
X3218020Y3420500D03*
D14*
G01*
X3218020Y95500D03*
D15*
G01*
X-507999Y135000D03*
G01*
X-607999Y135000D03*
G01*
X-707999Y135000D03*
G01*
X-807999Y135000D03*
G01*
X-907999Y135000D03*
D16*
G01*
X-1007999Y135000D03*
D15*
G01*
X-40999Y381000D03*
G01*
X59000Y381000D03*
G01*
X159000Y381000D03*
G01*
X259000Y381000D03*
G01*
X359000Y381000D03*
G01*
X459000Y381000D03*
G01*
X559000Y381000D03*
G01*
X659000Y381000D03*
G01*
X759000Y381000D03*
G01*
X859000Y381000D03*
G01*
X959000Y381000D03*
G01*
X1059000Y381000D03*
G01*
X1159000Y381000D03*
G01*
X1259000Y381000D03*
G01*
X1359000Y381000D03*
G01*
X1459000Y381000D03*
G01*
X1559000Y381000D03*
G01*
X1659000Y381000D03*
D17*
G01*
X1758998Y380998D03*
D15*
G01*
X-40999Y-613999D03*
G01*
X59000Y-613999D03*
G01*
X159000Y-613999D03*
G01*
X259000Y-613999D03*
G01*
X359000Y-613999D03*
G01*
X459000Y-613999D03*
G01*
X559000Y-613999D03*
G01*
X659000Y-613999D03*
G01*
X759000Y-613999D03*
G01*
X859000Y-613999D03*
G01*
X959000Y-613999D03*
G01*
X1059000Y-613999D03*
G01*
X1159000Y-613999D03*
G01*
X1259000Y-613999D03*
G01*
X1359000Y-613999D03*
G01*
X1459000Y-613999D03*
G01*
X1559000Y-613999D03*
G01*
X1659000Y-613999D03*
D17*
G01*
X1759000Y-613999D03*
D18*
G01*
X3796000Y585000D03*
G01*
X3796000Y785000D03*
G01*
X3796000Y985000D03*
G01*
X3796000Y1185000D03*
D19*
G01*
X3778000Y4380000D03*
G01*
X-1013999Y4377000D03*
G01*
X-1012999Y-478999D03*
G01*
X3779000Y-476999D03*
M02*
