G04 Layer: TopSilkscreenLayer*
G04 EasyEDA v6.5.23, 2023-05-27 13:46:53*
G04 ad855449ed234b6990cb81ca5ba1a863,ef4dac4c239f4a7f90591e71bd1ece2f,10*
G04 Gerber Generator version 0.2*
G04 Scale: 100 percent, Rotated: No, Reflected: No *
G04 Dimensions in inches *
G04 leading zeros omitted , absolute positions ,3 integer and 6 decimal *
%FSLAX36Y36*%
%MOIN*%

%ADD10C,0.0120*%
%ADD11C,0.0080*%
%ADD12C,0.0150*%
%ADD13C,0.0200*%
%ADD14C,0.0100*%
%ADD15C,0.0121*%

%LPD*%
G36*
X3542320Y-179280D02*
G01*
X3538039Y-179400D01*
X3535580Y-179720D01*
X3535140Y-180159D01*
X3536900Y-180700D01*
X3540059Y-181119D01*
X3543480Y-181240D01*
X3546720Y-181080D01*
X3549400Y-180640D01*
X3550520Y-180080D01*
X3549560Y-179640D01*
X3546760Y-179360D01*
G37*
G36*
X3393900Y-179340D02*
G01*
X3389000Y-179440D01*
X3386040Y-179740D01*
X3385260Y-180159D01*
X3386880Y-180700D01*
X3390160Y-181119D01*
X3393900Y-181260D01*
X3397660Y-181119D01*
X3400940Y-180700D01*
X3402559Y-180159D01*
X3401780Y-179740D01*
X3398820Y-179440D01*
G37*
G36*
X3371259Y-181480D02*
G01*
X3373200Y-275960D01*
X3373600Y-289920D01*
X3374100Y-303360D01*
X3374700Y-316260D01*
X3375380Y-328640D01*
X3376180Y-340560D01*
X3377080Y-351980D01*
X3378080Y-362939D01*
X3379180Y-373480D01*
X3380400Y-383579D01*
X3381740Y-393280D01*
X3383180Y-402580D01*
X3385160Y-413680D01*
X3387320Y-424240D01*
X3389200Y-432299D01*
X3390680Y-438140D01*
X3394440Y-451100D01*
X3396180Y-456400D01*
X3398000Y-461540D01*
X3401200Y-469799D01*
X3404620Y-477700D01*
X3408260Y-485280D01*
X3410720Y-489880D01*
X3413240Y-494200D01*
X3415820Y-498240D01*
X3418380Y-501920D01*
X3420899Y-505220D01*
X3423300Y-508100D01*
X3425560Y-510520D01*
X3427620Y-512420D01*
X3429420Y-513780D01*
X3430940Y-514560D01*
X3431580Y-514700D01*
X3432120Y-514700D01*
X3432559Y-514540D01*
X3432900Y-514180D01*
X3433140Y-513660D01*
X3433260Y-512960D01*
X3433260Y-512080D01*
X3432860Y-509720D01*
X3431920Y-506560D01*
X3429900Y-501019D01*
X3428200Y-495580D01*
X3426560Y-489560D01*
X3424980Y-482960D01*
X3423480Y-475800D01*
X3422040Y-468160D01*
X3420680Y-460020D01*
X3419400Y-451440D01*
X3418180Y-442460D01*
X3417060Y-433100D01*
X3416000Y-423380D01*
X3414580Y-408240D01*
X3413540Y-395140D01*
X3412460Y-378980D01*
X3411860Y-367980D01*
X3411220Y-354040D01*
X3410520Y-331400D01*
X3410280Y-317160D01*
X3410200Y-305760D01*
X3410260Y-288740D01*
X3410500Y-274700D01*
X3410899Y-260859D01*
X3411320Y-249940D01*
X3411880Y-239240D01*
X3412720Y-226180D01*
X3413519Y-216040D01*
X3414200Y-208619D01*
X3416720Y-184220D01*
X3402980Y-186260D01*
X3399960Y-186620D01*
X3396840Y-186820D01*
X3393700Y-186860D01*
X3390600Y-186740D01*
X3387620Y-186480D01*
X3384840Y-186100D01*
X3382360Y-185560D01*
X3380240Y-184899D01*
G37*
G36*
X3521920Y-182260D02*
G01*
X3524920Y-214600D01*
X3525620Y-224100D01*
X3526240Y-233939D01*
X3526740Y-244120D01*
X3527300Y-259860D01*
X3527580Y-273360D01*
X3527720Y-289920D01*
X3527700Y-301120D01*
X3527559Y-315220D01*
X3526900Y-340720D01*
X3526360Y-354820D01*
X3525820Y-366019D01*
X3524500Y-387980D01*
X3523519Y-401320D01*
X3522420Y-414300D01*
X3521440Y-424360D01*
X3520120Y-436480D01*
X3518700Y-448020D01*
X3517480Y-456800D01*
X3516180Y-465120D01*
X3514840Y-472960D01*
X3513420Y-480280D01*
X3511940Y-487040D01*
X3510400Y-493220D01*
X3509220Y-497600D01*
X3507960Y-502740D01*
X3507160Y-506940D01*
X3506820Y-510140D01*
X3506820Y-511380D01*
X3506920Y-512400D01*
X3507140Y-513160D01*
X3507480Y-513660D01*
X3507919Y-513940D01*
X3508480Y-513980D01*
X3509160Y-513780D01*
X3509960Y-513320D01*
X3510860Y-512640D01*
X3513020Y-510520D01*
X3515640Y-507460D01*
X3518720Y-503420D01*
X3522260Y-498420D01*
X3525400Y-493579D01*
X3528440Y-488459D01*
X3531340Y-483000D01*
X3534120Y-477239D01*
X3538060Y-467939D01*
X3541120Y-459580D01*
X3544020Y-450640D01*
X3546220Y-443060D01*
X3548800Y-433040D01*
X3550740Y-424560D01*
X3552580Y-415680D01*
X3554320Y-406340D01*
X3555940Y-396580D01*
X3557480Y-386360D01*
X3558900Y-375680D01*
X3560240Y-364520D01*
X3561480Y-352879D01*
X3562919Y-337620D01*
X3563960Y-324840D01*
X3564920Y-311560D01*
X3566580Y-283340D01*
X3567280Y-268420D01*
X3568020Y-249880D01*
X3568580Y-231160D01*
X3568720Y-223200D01*
X3568740Y-216119D01*
X3568639Y-209880D01*
X3568420Y-204440D01*
X3568080Y-199760D01*
X3567600Y-195799D01*
X3566960Y-192500D01*
X3566200Y-189840D01*
X3565760Y-188720D01*
X3564740Y-186920D01*
X3564180Y-186220D01*
X3563580Y-185660D01*
X3562919Y-185200D01*
X3562240Y-184860D01*
X3561500Y-184640D01*
X3560720Y-184520D01*
X3559020Y-184560D01*
X3557120Y-184980D01*
X3553700Y-186040D01*
X3551220Y-186560D01*
X3548660Y-186880D01*
X3546019Y-187000D01*
X3543279Y-186900D01*
X3540419Y-186600D01*
X3537460Y-186100D01*
X3534340Y-185400D01*
G37*
D10*
X2200540Y-217599D02*
G01*
X2200540Y-293899D01*
X2175140Y-217599D02*
G01*
X2226040Y-217599D01*
X2250040Y-242999D02*
G01*
X2250040Y-279399D01*
X2253640Y-290299D01*
X2260940Y-293899D01*
X2271840Y-293899D01*
X2279140Y-290299D01*
X2290040Y-279399D01*
X2290040Y-242999D02*
G01*
X2290040Y-293899D01*
X2354040Y-253899D02*
G01*
X2350440Y-246699D01*
X2339440Y-242999D01*
X2328540Y-242999D01*
X2317640Y-246699D01*
X2314040Y-253899D01*
X2317640Y-261199D01*
X2324940Y-264899D01*
X2343140Y-268499D01*
X2350440Y-272100D01*
X2354040Y-279399D01*
X2354040Y-282999D01*
X2350440Y-290299D01*
X2339440Y-293899D01*
X2328540Y-293899D01*
X2317640Y-290299D01*
X2314040Y-282999D01*
X2378040Y-217599D02*
G01*
X2378040Y-293899D01*
X2414440Y-242999D02*
G01*
X2378040Y-279399D01*
X2392540Y-264899D02*
G01*
X2418040Y-293899D01*
X2498040Y-242999D02*
G01*
X2519840Y-293899D01*
X2541640Y-242999D02*
G01*
X2519840Y-293899D01*
X2587440Y-217599D02*
G01*
X2576540Y-221199D01*
X2569340Y-232100D01*
X2565640Y-250299D01*
X2565640Y-261199D01*
X2569340Y-279399D01*
X2576540Y-290299D01*
X2587440Y-293899D01*
X2594740Y-293899D01*
X2605640Y-290299D01*
X2612940Y-279399D01*
X2616540Y-261199D01*
X2616540Y-250299D01*
X2612940Y-232100D01*
X2605640Y-221199D01*
X2594740Y-217599D01*
X2587440Y-217599D01*
X2644240Y-275799D02*
G01*
X2640540Y-279399D01*
X2644240Y-282999D01*
X2647840Y-279399D01*
X2644240Y-275799D01*
X2708240Y-217599D02*
G01*
X2671840Y-268499D01*
X2726440Y-268499D01*
X2708240Y-217599D02*
G01*
X2708240Y-293899D01*
X2806440Y-261199D02*
G01*
X2871840Y-261199D01*
X2955440Y-235799D02*
G01*
X2955440Y-232100D01*
X2959140Y-224899D01*
X2962740Y-221199D01*
X2970040Y-217599D01*
X2984540Y-217599D01*
X2991840Y-221199D01*
X2995440Y-224899D01*
X2999140Y-232100D01*
X2999140Y-239399D01*
X2995440Y-246699D01*
X2988240Y-257599D01*
X2951840Y-293899D01*
X3002740Y-293899D01*
X3048540Y-217599D02*
G01*
X3037640Y-221199D01*
X3030440Y-232100D01*
X3026740Y-250299D01*
X3026740Y-261199D01*
X3030440Y-279399D01*
X3037640Y-290299D01*
X3048540Y-293899D01*
X3055840Y-293899D01*
X3066740Y-290299D01*
X3074040Y-279399D01*
X3077640Y-261199D01*
X3077640Y-250299D01*
X3074040Y-232100D01*
X3066740Y-221199D01*
X3055840Y-217599D01*
X3048540Y-217599D01*
X3105340Y-235799D02*
G01*
X3105340Y-232100D01*
X3108940Y-224899D01*
X3112540Y-221199D01*
X3119840Y-217599D01*
X3134440Y-217599D01*
X3141640Y-221199D01*
X3145340Y-224899D01*
X3148940Y-232100D01*
X3148940Y-239399D01*
X3145340Y-246699D01*
X3138040Y-257599D01*
X3101640Y-293899D01*
X3152540Y-293899D01*
X3183840Y-217599D02*
G01*
X3223840Y-217599D01*
X3202040Y-246699D01*
X3212940Y-246699D01*
X3220240Y-250299D01*
X3223840Y-253899D01*
X3227440Y-264899D01*
X3227440Y-272100D01*
X3223840Y-282999D01*
X3216540Y-290299D01*
X3205640Y-293899D01*
X3194740Y-293899D01*
X3183840Y-290299D01*
X3180240Y-286699D01*
X3176540Y-279399D01*
D11*
X1221040Y3547200D02*
G01*
X1228240Y3550800D01*
X1239140Y3561700D01*
X1239140Y3485399D01*
X1281340Y3561700D02*
G01*
X1270440Y3558100D01*
X1266840Y3550800D01*
X1266840Y3543500D01*
X1270440Y3536300D01*
X1277740Y3532600D01*
X1292240Y3529000D01*
X1303140Y3525399D01*
X1310440Y3518100D01*
X1314140Y3510800D01*
X1314140Y3499900D01*
X1310440Y3492600D01*
X1306840Y3489000D01*
X1295940Y3485399D01*
X1281340Y3485399D01*
X1270440Y3489000D01*
X1266840Y3492600D01*
X1263140Y3499900D01*
X1263140Y3510800D01*
X1266840Y3518100D01*
X1274140Y3525399D01*
X1285040Y3529000D01*
X1299540Y3532600D01*
X1306840Y3536300D01*
X1310440Y3543500D01*
X1310440Y3550800D01*
X1306840Y3558100D01*
X1295940Y3561700D01*
X1281340Y3561700D01*
X1381740Y3550800D02*
G01*
X1378140Y3558100D01*
X1367140Y3561700D01*
X1359940Y3561700D01*
X1349040Y3558100D01*
X1341740Y3547200D01*
X1338140Y3529000D01*
X1338140Y3510800D01*
X1341740Y3496300D01*
X1349040Y3489000D01*
X1359940Y3485399D01*
X1363540Y3485399D01*
X1374440Y3489000D01*
X1381740Y3496300D01*
X1385340Y3507200D01*
X1385340Y3510800D01*
X1381740Y3521700D01*
X1374440Y3529000D01*
X1363540Y3532600D01*
X1359940Y3532600D01*
X1349040Y3529000D01*
X1341740Y3521700D01*
X1338140Y3510800D01*
X1453040Y3561700D02*
G01*
X1416640Y3561700D01*
X1413040Y3529000D01*
X1416640Y3532600D01*
X1427540Y3536300D01*
X1438440Y3536300D01*
X1449340Y3532600D01*
X1456640Y3525399D01*
X1460240Y3514500D01*
X1460240Y3507200D01*
X1456640Y3496300D01*
X1449340Y3489000D01*
X1438440Y3485399D01*
X1427540Y3485399D01*
X1416640Y3489000D01*
X1413040Y3492600D01*
X1409340Y3499900D01*
X1506140Y3561700D02*
G01*
X1495140Y3558100D01*
X1487940Y3547200D01*
X1484240Y3529000D01*
X1484240Y3518100D01*
X1487940Y3499900D01*
X1495140Y3489000D01*
X1506140Y3485399D01*
X1513340Y3485399D01*
X1524240Y3489000D01*
X1531540Y3499900D01*
X1535140Y3518100D01*
X1535140Y3529000D01*
X1531540Y3547200D01*
X1524240Y3558100D01*
X1513340Y3561700D01*
X1506140Y3561700D01*
D12*
X3432600Y747040D02*
G01*
X3432600Y828840D01*
X3430940Y614300D02*
G01*
X3430940Y532500D01*
X3390040Y573400D02*
G01*
X3471840Y573400D01*
D10*
X2183040Y-370299D02*
G01*
X2183040Y-446599D01*
X2183040Y-370299D02*
G01*
X2215740Y-370299D01*
X2226640Y-373899D01*
X2230240Y-377500D01*
X2233940Y-384800D01*
X2233940Y-392100D01*
X2230240Y-399399D01*
X2226640Y-402999D01*
X2215740Y-406599D01*
X2183040Y-406599D02*
G01*
X2215740Y-406599D01*
X2226640Y-410299D01*
X2230240Y-413899D01*
X2233940Y-421199D01*
X2233940Y-432100D01*
X2230240Y-439399D01*
X2226640Y-442999D01*
X2215740Y-446599D01*
X2183040Y-446599D01*
X2261540Y-395699D02*
G01*
X2283340Y-446599D01*
X2305140Y-395699D02*
G01*
X2283340Y-446599D01*
X2276140Y-461199D01*
X2268840Y-468499D01*
X2261540Y-472100D01*
X2257940Y-472100D01*
X2410640Y-370299D02*
G01*
X2410640Y-446599D01*
X2385140Y-370299D02*
G01*
X2436140Y-370299D01*
X2460140Y-417500D02*
G01*
X2503740Y-417500D01*
X2503740Y-410299D01*
X2500140Y-402999D01*
X2496440Y-399399D01*
X2489140Y-395699D01*
X2478240Y-395699D01*
X2471040Y-399399D01*
X2463740Y-406599D01*
X2460140Y-417500D01*
X2460140Y-424800D01*
X2463740Y-435699D01*
X2471040Y-442999D01*
X2478240Y-446599D01*
X2489140Y-446599D01*
X2496440Y-442999D01*
X2503740Y-435699D01*
X2571340Y-395699D02*
G01*
X2571340Y-446599D01*
X2571340Y-406599D02*
G01*
X2564140Y-399399D01*
X2556840Y-395699D01*
X2545940Y-395699D01*
X2538640Y-399399D01*
X2531340Y-406599D01*
X2527740Y-417500D01*
X2527740Y-424800D01*
X2531340Y-435699D01*
X2538640Y-442999D01*
X2545940Y-446599D01*
X2556840Y-446599D01*
X2564140Y-442999D01*
X2571340Y-435699D01*
X2595340Y-395699D02*
G01*
X2595340Y-446599D01*
X2595340Y-410299D02*
G01*
X2606240Y-399399D01*
X2613540Y-395699D01*
X2624440Y-395699D01*
X2631740Y-399399D01*
X2635340Y-410299D01*
X2635340Y-446599D01*
X2635340Y-410299D02*
G01*
X2646240Y-399399D01*
X2653540Y-395699D01*
X2664440Y-395699D01*
X2671740Y-399399D01*
X2675340Y-410299D01*
X2675340Y-446599D01*
X2755340Y-370299D02*
G01*
X2773540Y-446599D01*
X2791740Y-370299D02*
G01*
X2773540Y-446599D01*
X2791740Y-370299D02*
G01*
X2809940Y-446599D01*
X2828140Y-370299D02*
G01*
X2809940Y-446599D01*
X2895740Y-395699D02*
G01*
X2895740Y-446599D01*
X2895740Y-406599D02*
G01*
X2888440Y-399399D01*
X2881140Y-395699D01*
X2870240Y-395699D01*
X2863040Y-399399D01*
X2855740Y-406599D01*
X2852140Y-417500D01*
X2852140Y-424800D01*
X2855740Y-435699D01*
X2863040Y-442999D01*
X2870240Y-446599D01*
X2881140Y-446599D01*
X2888440Y-442999D01*
X2895740Y-435699D01*
X2919740Y-370299D02*
G01*
X2919740Y-446599D01*
X2943740Y-395699D02*
G01*
X2943740Y-446599D01*
X2943740Y-417500D02*
G01*
X2947340Y-406599D01*
X2954640Y-399399D01*
X2961940Y-395699D01*
X2972840Y-395699D01*
X2996840Y-395699D02*
G01*
X2996840Y-432100D01*
X3000440Y-442999D01*
X3007740Y-446599D01*
X3018640Y-446599D01*
X3025940Y-442999D01*
X3036840Y-432100D01*
X3036840Y-395699D02*
G01*
X3036840Y-446599D01*
X3100840Y-406599D02*
G01*
X3097140Y-399399D01*
X3086240Y-395699D01*
X3075340Y-395699D01*
X3064440Y-399399D01*
X3060840Y-406599D01*
X3064440Y-413899D01*
X3071740Y-417500D01*
X3089940Y-421199D01*
X3097140Y-424800D01*
X3100840Y-432100D01*
X3100840Y-435699D01*
X3097140Y-442999D01*
X3086240Y-446599D01*
X3075340Y-446599D01*
X3064440Y-442999D01*
X3060840Y-435699D01*
X1849240Y424700D02*
G01*
X1889240Y424700D01*
X1867440Y395600D01*
X1878340Y395600D01*
X1885640Y392000D01*
X1889240Y388400D01*
X1892940Y377500D01*
X1892940Y370199D01*
X1889240Y359300D01*
X1882040Y352000D01*
X1871140Y348400D01*
X1860140Y348400D01*
X1849240Y352000D01*
X1845640Y355600D01*
X1842040Y362899D01*
X1920540Y366500D02*
G01*
X1916940Y362899D01*
X1920540Y359300D01*
X1924140Y362899D01*
X1920540Y366500D01*
X1955440Y424700D02*
G01*
X1995440Y424700D01*
X1973640Y395600D01*
X1984540Y395600D01*
X1991840Y392000D01*
X1995440Y388400D01*
X1999140Y377500D01*
X1999140Y370199D01*
X1995440Y359300D01*
X1988140Y352000D01*
X1977240Y348400D01*
X1966340Y348400D01*
X1955440Y352000D01*
X1951840Y355600D01*
X1948140Y362899D01*
X2023140Y424700D02*
G01*
X2052140Y348400D01*
X2081240Y424700D02*
G01*
X2052140Y348400D01*
X1919542Y-591499D02*
G01*
X1915942Y-584199D01*
X1908642Y-576899D01*
X1901342Y-573299D01*
X1886842Y-573299D01*
X1879542Y-576899D01*
X1872242Y-584199D01*
X1868642Y-591499D01*
X1865042Y-602399D01*
X1865042Y-620499D01*
X1868642Y-631499D01*
X1872242Y-638699D01*
X1879542Y-645999D01*
X1886842Y-649600D01*
X1901342Y-649600D01*
X1908642Y-645999D01*
X1915942Y-638699D01*
X1919542Y-631499D01*
X1919542Y-620499D01*
X1901342Y-620499D02*
G01*
X1919542Y-620499D01*
X1943542Y-573299D02*
G01*
X1943542Y-649600D01*
X1943542Y-573299D02*
G01*
X1994442Y-649600D01*
X1994442Y-573299D02*
G01*
X1994442Y-649600D01*
X2018442Y-573299D02*
G01*
X2018442Y-649600D01*
X2018442Y-573299D02*
G01*
X2043942Y-573299D01*
X2054842Y-576899D01*
X2062142Y-584199D01*
X2065742Y-591499D01*
X2069342Y-602399D01*
X2069342Y-620499D01*
X2065742Y-631499D01*
X2062142Y-638699D01*
X2054842Y-645999D01*
X2043942Y-649600D01*
X2018442Y-649600D01*
X-237359Y417699D02*
G01*
X-273759Y417699D01*
X-277359Y385000D01*
X-273759Y388600D01*
X-262859Y392300D01*
X-251859Y392300D01*
X-240959Y388600D01*
X-233759Y381400D01*
X-230059Y370500D01*
X-230059Y363200D01*
X-233759Y352300D01*
X-240959Y345000D01*
X-251859Y341400D01*
X-262859Y341400D01*
X-273759Y345000D01*
X-277359Y348600D01*
X-280959Y355900D01*
X-206059Y417699D02*
G01*
X-176959Y341400D01*
X-147859Y417699D02*
G01*
X-176959Y341400D01*
X-266457Y-596499D02*
G01*
X-270057Y-589199D01*
X-277357Y-581899D01*
X-284657Y-578299D01*
X-299157Y-578299D01*
X-306457Y-581899D01*
X-313757Y-589199D01*
X-317357Y-596499D01*
X-320957Y-607399D01*
X-320957Y-625499D01*
X-317357Y-636499D01*
X-313757Y-643699D01*
X-306457Y-650999D01*
X-299157Y-654600D01*
X-284657Y-654600D01*
X-277357Y-650999D01*
X-270057Y-643699D01*
X-266457Y-636499D01*
X-242457Y-578299D02*
G01*
X-242457Y-654600D01*
X-242457Y-654600D02*
G01*
X-198857Y-654600D01*
X-174857Y-578299D02*
G01*
X-174857Y-654600D01*
X-123857Y-578299D02*
G01*
X-174857Y-629199D01*
X-156657Y-610999D02*
G01*
X-123857Y-654600D01*
X398040Y-83299D02*
G01*
X398040Y-159600D01*
X398040Y-83299D02*
G01*
X445240Y-83299D01*
X398040Y-119600D02*
G01*
X427140Y-119600D01*
X398040Y-159600D02*
G01*
X445240Y-159600D01*
X520140Y-94199D02*
G01*
X512940Y-86899D01*
X502040Y-83299D01*
X487440Y-83299D01*
X476540Y-86899D01*
X469240Y-94199D01*
X469240Y-101499D01*
X472940Y-108699D01*
X476540Y-112399D01*
X483840Y-115999D01*
X505640Y-123299D01*
X512940Y-126899D01*
X516540Y-130499D01*
X520140Y-137799D01*
X520140Y-148699D01*
X512940Y-155999D01*
X502040Y-159600D01*
X487440Y-159600D01*
X476540Y-155999D01*
X469240Y-148699D01*
X544140Y-83299D02*
G01*
X544140Y-159600D01*
X544140Y-83299D02*
G01*
X576940Y-83299D01*
X587840Y-86899D01*
X591440Y-90499D01*
X595140Y-97799D01*
X595140Y-108699D01*
X591440Y-115999D01*
X587840Y-119600D01*
X576940Y-123299D01*
X544140Y-123299D01*
X626340Y-83299D02*
G01*
X666340Y-83299D01*
X644540Y-112399D01*
X655440Y-112399D01*
X662740Y-115999D01*
X666340Y-119600D01*
X670040Y-130499D01*
X670040Y-137799D01*
X666340Y-148699D01*
X659140Y-155999D01*
X648140Y-159600D01*
X637240Y-159600D01*
X626340Y-155999D01*
X622740Y-152399D01*
X619140Y-145099D01*
X697640Y-101499D02*
G01*
X697640Y-97799D01*
X701240Y-90499D01*
X704940Y-86899D01*
X712140Y-83299D01*
X726740Y-83299D01*
X734040Y-86899D01*
X737640Y-90499D01*
X741240Y-97799D01*
X741240Y-105099D01*
X737640Y-112399D01*
X730340Y-123299D01*
X694040Y-159600D01*
X744940Y-159600D01*
X768940Y-126899D02*
G01*
X834340Y-126899D01*
X858340Y-83299D02*
G01*
X858340Y-159600D01*
X858340Y-83299D02*
G01*
X883840Y-83299D01*
X894740Y-86899D01*
X902040Y-94199D01*
X905640Y-101499D01*
X909240Y-112399D01*
X909240Y-130499D01*
X905640Y-141499D01*
X902040Y-148699D01*
X894740Y-155999D01*
X883840Y-159600D01*
X858340Y-159600D01*
X933240Y-130499D02*
G01*
X976940Y-130499D01*
X976940Y-123299D01*
X973240Y-115999D01*
X969640Y-112399D01*
X962340Y-108699D01*
X951440Y-108699D01*
X944140Y-112399D01*
X936940Y-119600D01*
X933240Y-130499D01*
X933240Y-137799D01*
X936940Y-148699D01*
X944140Y-155999D01*
X951440Y-159600D01*
X962340Y-159600D01*
X969640Y-155999D01*
X976940Y-148699D01*
X1000940Y-108699D02*
G01*
X1022740Y-159600D01*
X1044540Y-108699D02*
G01*
X1022740Y-159600D01*
X1068540Y-83299D02*
G01*
X1068540Y-159600D01*
X1119440Y-83299D02*
G01*
X1068540Y-134199D01*
X1086740Y-115999D02*
G01*
X1119440Y-159600D01*
X1143440Y-83299D02*
G01*
X1147140Y-86899D01*
X1150740Y-83299D01*
X1147140Y-79600D01*
X1143440Y-83299D01*
X1147140Y-108699D02*
G01*
X1147140Y-159600D01*
X1185640Y-83299D02*
G01*
X1185640Y-145099D01*
X1189240Y-155999D01*
X1196540Y-159600D01*
X1203840Y-159600D01*
X1174740Y-108699D02*
G01*
X1200140Y-108699D01*
X1282340Y-101499D02*
G01*
X1278740Y-94199D01*
X1271440Y-86899D01*
X1264140Y-83299D01*
X1249640Y-83299D01*
X1242340Y-86899D01*
X1235140Y-94199D01*
X1231440Y-101499D01*
X1227840Y-112399D01*
X1227840Y-130499D01*
X1231440Y-141499D01*
X1235140Y-148699D01*
X1242340Y-155999D01*
X1249640Y-159600D01*
X1264140Y-159600D01*
X1271440Y-155999D01*
X1278740Y-148699D01*
X1282340Y-141499D01*
X1362340Y-83299D02*
G01*
X1391440Y-159600D01*
X1420540Y-83299D02*
G01*
X1391440Y-159600D01*
X1480940Y-83299D02*
G01*
X1444540Y-134199D01*
X1499140Y-134199D01*
X1480940Y-83299D02*
G01*
X1480940Y-159600D01*
X-1198959Y387699D02*
G01*
X-1198959Y311400D01*
X-1198959Y387699D02*
G01*
X-1169859Y311400D01*
X-1140859Y387699D02*
G01*
X-1169859Y311400D01*
X-1140859Y387699D02*
G01*
X-1140859Y311400D01*
X-1116859Y387699D02*
G01*
X-1113159Y384100D01*
X-1109559Y387699D01*
X-1113159Y391400D01*
X-1116859Y387699D01*
X-1113159Y362300D02*
G01*
X-1113159Y311400D01*
X-1041859Y351400D02*
G01*
X-1049159Y358600D01*
X-1056459Y362300D01*
X-1067359Y362300D01*
X-1074659Y358600D01*
X-1081859Y351400D01*
X-1085559Y340500D01*
X-1085559Y333200D01*
X-1081859Y322300D01*
X-1074659Y315000D01*
X-1067359Y311400D01*
X-1056459Y311400D01*
X-1049159Y315000D01*
X-1041859Y322300D01*
X-1017859Y362300D02*
G01*
X-1017859Y311400D01*
X-1017859Y340500D02*
G01*
X-1014259Y351400D01*
X-1006959Y358600D01*
X-999759Y362300D01*
X-988859Y362300D01*
X-946659Y362300D02*
G01*
X-953859Y358600D01*
X-961159Y351400D01*
X-964859Y340500D01*
X-964859Y333200D01*
X-961159Y322300D01*
X-953859Y315000D01*
X-946659Y311400D01*
X-935759Y311400D01*
X-928459Y315000D01*
X-921159Y322300D01*
X-917559Y333200D01*
X-917559Y340500D01*
X-921159Y351400D01*
X-928459Y358600D01*
X-935759Y362300D01*
X-946659Y362300D01*
X-786659Y376800D02*
G01*
X-793859Y384100D01*
X-804859Y387699D01*
X-819359Y387699D01*
X-830259Y384100D01*
X-837559Y376800D01*
X-837559Y369500D01*
X-833859Y362300D01*
X-830259Y358600D01*
X-822959Y355000D01*
X-801159Y347699D01*
X-793859Y344100D01*
X-790259Y340500D01*
X-786659Y333200D01*
X-786659Y322300D01*
X-793859Y315000D01*
X-804859Y311400D01*
X-819359Y311400D01*
X-830259Y315000D01*
X-837559Y322300D01*
X-762659Y387699D02*
G01*
X-762659Y311400D01*
X-762659Y387699D02*
G01*
X-737159Y387699D01*
X-726259Y384100D01*
X-718959Y376800D01*
X-715359Y369500D01*
X-711759Y358600D01*
X-711759Y340500D01*
X-715359Y329500D01*
X-718959Y322300D01*
X-726259Y315000D01*
X-737159Y311400D01*
X-762659Y311400D01*
X-577159Y369500D02*
G01*
X-580859Y376800D01*
X-588059Y384100D01*
X-595359Y387699D01*
X-609859Y387699D01*
X-617159Y384100D01*
X-624459Y376800D01*
X-628059Y369500D01*
X-631759Y358600D01*
X-631759Y340500D01*
X-628059Y329500D01*
X-624459Y322300D01*
X-617159Y315000D01*
X-609859Y311400D01*
X-595359Y311400D01*
X-588059Y315000D01*
X-580859Y322300D01*
X-577159Y329500D01*
X-509559Y362300D02*
G01*
X-509559Y311400D01*
X-509559Y351400D02*
G01*
X-516859Y358600D01*
X-524059Y362300D01*
X-534959Y362300D01*
X-542259Y358600D01*
X-549559Y351400D01*
X-553159Y340500D01*
X-553159Y333200D01*
X-549559Y322300D01*
X-542259Y315000D01*
X-534959Y311400D01*
X-524059Y311400D01*
X-516859Y315000D01*
X-509559Y322300D01*
X-485559Y362300D02*
G01*
X-485559Y311400D01*
X-485559Y340500D02*
G01*
X-481859Y351400D01*
X-474659Y358600D01*
X-467359Y362300D01*
X-456459Y362300D01*
X-388859Y387699D02*
G01*
X-388859Y311400D01*
X-388859Y351400D02*
G01*
X-396059Y358600D01*
X-403359Y362300D01*
X-414259Y362300D01*
X-421559Y358600D01*
X-428859Y351400D01*
X-432459Y340500D01*
X-432459Y333200D01*
X-428859Y322300D01*
X-421559Y315000D01*
X-414259Y311400D01*
X-403359Y311400D01*
X-396059Y315000D01*
X-388859Y322300D01*
X-1203088Y64912D02*
G01*
X-1163088Y64912D01*
X-1184888Y35812D01*
X-1173988Y35812D01*
X-1166688Y32212D01*
X-1163088Y28612D01*
X-1159388Y17712D01*
X-1159388Y10412D01*
X-1163088Y-488D01*
X-1170288Y-7787D01*
X-1181188Y-11387D01*
X-1192188Y-11387D01*
X-1203088Y-7787D01*
X-1206688Y-4187D01*
X-1210288Y3112D01*
X-1131788Y6712D02*
G01*
X-1135388Y3112D01*
X-1131788Y-488D01*
X-1128188Y3112D01*
X-1131788Y6712D01*
X-1096888Y64912D02*
G01*
X-1056888Y64912D01*
X-1078688Y35812D01*
X-1067788Y35812D01*
X-1060488Y32212D01*
X-1056888Y28612D01*
X-1053188Y17712D01*
X-1053188Y10412D01*
X-1056888Y-488D01*
X-1064188Y-7787D01*
X-1075088Y-11387D01*
X-1085988Y-11387D01*
X-1096888Y-7787D01*
X-1100488Y-4187D01*
X-1104188Y3112D01*
X-1029188Y64912D02*
G01*
X-1000188Y-11387D01*
X-971088Y64912D02*
G01*
X-1000188Y-11387D01*
X-448789Y51500D02*
G01*
X-452389Y58800D01*
X-459689Y66100D01*
X-466989Y69700D01*
X-481489Y69700D01*
X-488789Y66100D01*
X-496089Y58800D01*
X-499689Y51500D01*
X-503289Y40600D01*
X-503289Y22500D01*
X-499689Y11500D01*
X-496089Y4300D01*
X-488789Y-2999D01*
X-481489Y-6599D01*
X-466989Y-6599D01*
X-459689Y-2999D01*
X-452389Y4300D01*
X-448789Y11500D01*
X-448789Y22500D01*
X-466989Y22500D02*
G01*
X-448789Y22500D01*
X-424789Y69700D02*
G01*
X-424789Y-6599D01*
X-424789Y69700D02*
G01*
X-373889Y-6599D01*
X-373889Y69700D02*
G01*
X-373889Y-6599D01*
X-349889Y69700D02*
G01*
X-349889Y-6599D01*
X-349889Y69700D02*
G01*
X-324389Y69700D01*
X-313489Y66100D01*
X-306189Y58800D01*
X-302589Y51500D01*
X-298989Y40600D01*
X-298989Y22500D01*
X-302589Y11500D01*
X-306189Y4300D01*
X-313489Y-2999D01*
X-324389Y-6599D01*
X-349889Y-6599D01*
X-875929Y8360D02*
G01*
X-868729Y15660D01*
X-865029Y22860D01*
X-865029Y33859D01*
X-868729Y41060D01*
X-875929Y48360D01*
X-886829Y51960D01*
X-894129Y51960D01*
X-905029Y48360D01*
X-912329Y41060D01*
X-915929Y33859D01*
X-915929Y22860D01*
X-912329Y15660D01*
X-905029Y8360D01*
X-875929Y-55639D02*
G01*
X-868729Y-52039D01*
X-865029Y-41140D01*
X-865029Y-30139D01*
X-868729Y-19239D01*
X-875929Y-15639D01*
X-883229Y-19239D01*
X-886829Y-26539D01*
X-890529Y-44739D01*
X-894129Y-52039D01*
X-901429Y-55639D01*
X-905029Y-55639D01*
X-912329Y-52039D01*
X-915929Y-41140D01*
X-915929Y-30139D01*
X-912329Y-19239D01*
X-905029Y-15639D01*
X-772362Y52027D02*
G01*
X-823262Y52027D01*
X-786962Y52027D02*
G01*
X-776062Y41127D01*
X-772362Y33827D01*
X-772362Y22926D01*
X-776062Y15627D01*
X-786962Y12027D01*
X-823262Y12027D01*
X-786962Y12027D02*
G01*
X-776062Y1127D01*
X-772362Y-6172D01*
X-772362Y-17073D01*
X-776062Y-24372D01*
X-786962Y-27972D01*
X-823262Y-27972D01*
X-772362Y-70172D02*
G01*
X-776062Y-62872D01*
X-783262Y-55672D01*
X-794162Y-51972D01*
X-801462Y-51972D01*
X-812362Y-55672D01*
X-819662Y-62872D01*
X-823262Y-70172D01*
X-823262Y-81072D01*
X-819662Y-88372D01*
X-812362Y-95672D01*
X-801462Y-99272D01*
X-794162Y-99272D01*
X-783262Y-95672D01*
X-776062Y-88372D01*
X-772362Y-81072D01*
X-772362Y-70172D01*
X-783262Y-163272D02*
G01*
X-776062Y-159672D01*
X-772362Y-148772D01*
X-772362Y-137772D01*
X-776062Y-126872D01*
X-783262Y-123272D01*
X-790562Y-126872D01*
X-794162Y-134172D01*
X-797862Y-152372D01*
X-801462Y-159672D01*
X-808762Y-163272D01*
X-812362Y-163272D01*
X-819662Y-159672D01*
X-823262Y-148772D01*
X-823262Y-137772D01*
X-819662Y-126872D01*
X-812362Y-123272D01*
X-746962Y-187273D02*
G01*
X-750562Y-190872D01*
X-746962Y-194573D01*
X-743262Y-190872D01*
X-746962Y-187273D01*
X-772362Y-190872D02*
G01*
X-823262Y-190872D01*
X-683929Y8360D02*
G01*
X-676729Y15660D01*
X-673029Y22860D01*
X-673029Y33859D01*
X-676729Y41060D01*
X-683929Y48360D01*
X-694829Y51960D01*
X-702129Y51960D01*
X-713029Y48360D01*
X-720329Y41060D01*
X-723929Y33859D01*
X-723929Y22860D01*
X-720329Y15660D01*
X-713029Y8360D01*
X-647629Y-15639D02*
G01*
X-723929Y-15639D01*
X-647629Y-39639D02*
G01*
X-723929Y-39639D01*
X-673029Y-76039D02*
G01*
X-709429Y-39639D01*
X-694829Y-54139D02*
G01*
X-723929Y-79639D01*
X-571696Y51993D02*
G01*
X-622596Y51993D01*
X-586296Y51993D02*
G01*
X-575396Y41093D01*
X-571696Y33793D01*
X-571696Y22893D01*
X-575396Y15593D01*
X-586296Y11993D01*
X-622596Y11993D01*
X-586296Y11993D02*
G01*
X-575396Y1093D01*
X-571696Y-6206D01*
X-571696Y-17106D01*
X-575396Y-24406D01*
X-586296Y-28006D01*
X-622596Y-28006D01*
X-546296Y-52006D02*
G01*
X-549896Y-55606D01*
X-546296Y-59306D01*
X-542596Y-55606D01*
X-546296Y-52006D01*
X-571696Y-55606D02*
G01*
X-622596Y-55606D01*
X-582596Y-123306D02*
G01*
X-575396Y-119606D01*
X-571696Y-108706D01*
X-571696Y-97806D01*
X-575396Y-86906D01*
X-582596Y-83306D01*
X-589896Y-86906D01*
X-593496Y-94206D01*
X-597196Y-112406D01*
X-600796Y-119606D01*
X-608096Y-123306D01*
X-611696Y-123306D01*
X-618996Y-119606D01*
X-622596Y-108706D01*
X-622596Y-97806D01*
X-618996Y-86906D01*
X-611696Y-83306D01*
X-571696Y-165407D02*
G01*
X-575396Y-158206D01*
X-582596Y-150906D01*
X-593496Y-147306D01*
X-600796Y-147306D01*
X-611696Y-150906D01*
X-618996Y-158206D01*
X-622596Y-165407D01*
X-622596Y-176406D01*
X-618996Y-183606D01*
X-611696Y-190906D01*
X-600796Y-194506D01*
X-593496Y-194506D01*
X-582596Y-190906D01*
X-575396Y-183606D01*
X-571696Y-176406D01*
X-571696Y-165407D01*
D13*
X3315519Y1983261D02*
G01*
X3192792Y1983261D01*
X3253198Y2833912D02*
G01*
X3253198Y2956612D01*
X3314498Y2895212D02*
G01*
X3191798Y2895212D01*
X-632518Y2898739D02*
G01*
X-509791Y2898739D01*
X-570159Y2048100D02*
G01*
X-570159Y1925399D01*
X-631559Y1986700D02*
G01*
X-508759Y1986700D01*
D12*
X3193040Y1089700D02*
G01*
X3193040Y1013400D01*
X3193040Y1089700D02*
G01*
X3218440Y1089700D01*
X3229340Y1086100D01*
X3236640Y1078800D01*
X3240240Y1071500D01*
X3243940Y1060600D01*
X3243940Y1042500D01*
X3240240Y1031500D01*
X3236640Y1024300D01*
X3229340Y1017000D01*
X3218440Y1013400D01*
X3193040Y1013400D01*
X3297040Y1089700D02*
G01*
X3267940Y1013400D01*
X3297040Y1089700D02*
G01*
X3326140Y1013400D01*
X3278840Y1038800D02*
G01*
X3315140Y1038800D01*
X3375540Y1089700D02*
G01*
X3375540Y1013400D01*
X3350140Y1089700D02*
G01*
X3401040Y1089700D01*
X3454140Y1089700D02*
G01*
X3425040Y1013400D01*
X3454140Y1089700D02*
G01*
X3483140Y1013400D01*
X3435940Y1038800D02*
G01*
X3472240Y1038800D01*
X3529040Y1089700D02*
G01*
X3518140Y1086100D01*
X3510840Y1075199D01*
X3507140Y1057000D01*
X3507140Y1046100D01*
X3510840Y1027899D01*
X3518140Y1017000D01*
X3529040Y1013400D01*
X3536240Y1013400D01*
X3547140Y1017000D01*
X3554440Y1027899D01*
X3558140Y1046100D01*
X3558140Y1057000D01*
X3554440Y1075199D01*
X3547140Y1086100D01*
X3536240Y1089700D01*
X3529040Y1089700D01*
X3193040Y1297699D02*
G01*
X3193040Y1221400D01*
X3193040Y1297699D02*
G01*
X3218440Y1297699D01*
X3229340Y1294100D01*
X3236640Y1286800D01*
X3240240Y1279500D01*
X3243940Y1268600D01*
X3243940Y1250500D01*
X3240240Y1239500D01*
X3236640Y1232300D01*
X3229340Y1225000D01*
X3218440Y1221400D01*
X3193040Y1221400D01*
X3297040Y1297699D02*
G01*
X3267940Y1221400D01*
X3297040Y1297699D02*
G01*
X3326140Y1221400D01*
X3278840Y1246800D02*
G01*
X3315140Y1246800D01*
X3375540Y1297699D02*
G01*
X3375540Y1221400D01*
X3350140Y1297699D02*
G01*
X3401040Y1297699D01*
X3454140Y1297699D02*
G01*
X3425040Y1221400D01*
X3454140Y1297699D02*
G01*
X3483140Y1221400D01*
X3435940Y1246800D02*
G01*
X3472240Y1246800D01*
X3507140Y1283200D02*
G01*
X3514440Y1286800D01*
X3525340Y1297699D01*
X3525340Y1221400D01*
D14*
X-1067053Y170433D02*
G01*
X-1067053Y184212D01*
X-448944Y184212D01*
X-448944Y85788D01*
X-1067053Y85788D01*
X-1067053Y172400D01*
X-95725Y430211D02*
G01*
X-95725Y331787D01*
X1813722Y430212D02*
G01*
X-95725Y430212D01*
X1813722Y331787D02*
G01*
X-95725Y331787D01*
X1712618Y331787D02*
G01*
X1712618Y430211D01*
X1813722Y430211D02*
G01*
X1813722Y331787D01*
X-95723Y-564786D02*
G01*
X-95723Y-663210D01*
X1813724Y-564785D02*
G01*
X-95723Y-564785D01*
X1813724Y-663210D02*
G01*
X-95723Y-663210D01*
X1712620Y-663210D02*
G01*
X1712620Y-564786D01*
X1813724Y-564786D02*
G01*
X1813724Y-663210D01*
X3603087Y489724D02*
G01*
X3603087Y1280276D01*
X3603087Y489724D02*
G01*
X4008598Y489724D01*
X4008598Y489724D02*
G01*
X4008598Y1280276D01*
X3603087Y1280276D02*
G01*
X4008598Y1280276D01*
X3696000Y489724D02*
G01*
X3696000Y1280276D01*
X3896083Y489724D02*
G01*
X3896083Y1280276D01*
X3630949Y465000D02*
G01*
X3630949Y488623D01*
X3677763Y465000D02*
G01*
X3630949Y465000D01*
X3677763Y488623D02*
G01*
X3677763Y465000D01*
X3976000Y465000D02*
G01*
X3930949Y465000D01*
X3930949Y488623D01*
X3976000Y488623D02*
G01*
X3976000Y465000D01*
X3603087Y537768D02*
G01*
X3656000Y537768D01*
X3656000Y635000D01*
X3603087Y635000D01*
X3628793Y537768D02*
G01*
X3628793Y635000D01*
X3603087Y737756D02*
G01*
X3656000Y737756D01*
X3656000Y834988D01*
X3603087Y834988D01*
X3628793Y737757D02*
G01*
X3628793Y834988D01*
X3603087Y737757D02*
G01*
X3656000Y737757D01*
X3656000Y834988D02*
G01*
X3603087Y834988D01*
X3956508Y489724D02*
G01*
X3956508Y1280276D01*
X3656000Y1233400D02*
G01*
X3603087Y1233400D01*
X3603087Y1136168D02*
G01*
X3656000Y1136168D01*
X3628793Y1136168D02*
G01*
X3628793Y1233400D01*
X3603087Y1136168D02*
G01*
X3656000Y1136168D01*
X3656000Y1233400D01*
X3603087Y1233400D01*
X3628793Y936181D02*
G01*
X3628793Y1033412D01*
X3603087Y936181D02*
G01*
X3656000Y936181D01*
X3656000Y1033412D01*
X3603087Y1033412D01*
X202000Y1985000D02*
G01*
X292000Y1985000D01*
X247000Y2030000D02*
G01*
X247000Y1940000D01*
X2392000Y1985000D02*
G01*
X2482000Y1985000D01*
X-175499Y1577500D02*
G01*
X-175499Y2392500D01*
X2859500Y2392500D01*
X2859500Y1577500D01*
X-175499Y1577500D01*
X2481000Y2897000D02*
G01*
X2391000Y2897000D01*
X2436000Y2852000D02*
G01*
X2436000Y2942000D01*
X291000Y2897000D02*
G01*
X201000Y2897000D01*
X2858500Y3304500D02*
G01*
X2858500Y2489500D01*
X-176499Y2489500D01*
X-176499Y3304500D01*
X2858500Y3304500D01*
G75*
G01
X-1008000Y209800D02*
G03X-1008000Y209800I-11810J0D01*
G75*
G01
X310000Y1985000D02*
G03X310000Y1985000I-63000J0D01*
G75*
G01
X2500000Y1985000D02*
G03X2500000Y1985000I-63000J0D01*
G75*
G01
X2499000Y2897000D02*
G03X2499000Y2897000I-63000J0D01*
G75*
G01
X309000Y2897000D02*
G03X309000Y2897000I-63000J0D01*
M02*
